<svg width="32" height="32" viewBox="0 0 32 32" fill="none" xmlns="http://www.w3.org/2000/svg">
<path d="M21.5868 2.66669H10.4134C5.56008 2.66669 2.66675 5.56002 2.66675 10.4134V21.5734C2.66675 26.44 5.56008 29.3334 10.4134 29.3334H21.5734C26.4268 29.3334 29.3201 26.44 29.3201 21.5867V10.4134C29.3334 5.56002 26.4401 2.66669 21.5868 2.66669ZM12.1467 22.5334C12.1467 22.9067 11.8534 23.2 11.4801 23.2H7.76008C7.38675 23.2 7.09342 22.9067 7.09342 22.5334V16.3734C7.09342 15.5334 7.77342 14.8534 8.61341 14.8534H11.4801C11.8534 14.8534 12.1467 15.1467 12.1467 15.52V22.5334ZM18.5201 22.5334C18.5201 22.9067 18.2267 23.2 17.8534 23.2H14.1334C13.7601 23.2 13.4667 22.9067 13.4667 22.5334V10.32C13.4667 9.48002 14.1467 8.80002 14.9867 8.80002H17.0134C17.8534 8.80002 18.5334 9.48002 18.5334 10.32V22.5334H18.5201ZM24.9067 22.5334C24.9067 22.9067 24.6134 23.2 24.2401 23.2H20.5201C20.1467 23.2 19.8534 22.9067 19.8534 22.5334V17.8C19.8534 17.4267 20.1467 17.1334 20.5201 17.1334H23.3867C24.2267 17.1334 24.9067 17.8134 24.9067 18.6534V22.5334Z" fill="#292D32"/>
<path d="M21.5868 2.66669H10.4134C5.56008 2.66669 2.66675 5.56002 2.66675 10.4134V21.5734C2.66675 26.44 5.56008 29.3334 10.4134 29.3334H21.5734C26.4268 29.3334 29.3201 26.44 29.3201 21.5867V10.4134C29.3334 5.56002 26.4401 2.66669 21.5868 2.66669ZM12.1467 22.5334C12.1467 22.9067 11.8534 23.2 11.4801 23.2H7.76008C7.38675 23.2 7.09342 22.9067 7.09342 22.5334V16.3734C7.09342 15.5334 7.77342 14.8534 8.61341 14.8534H11.4801C11.8534 14.8534 12.1467 15.1467 12.1467 15.52V22.5334ZM18.5201 22.5334C18.5201 22.9067 18.2267 23.2 17.8534 23.2H14.1334C13.7601 23.2 13.4667 22.9067 13.4667 22.5334V10.32C13.4667 9.48002 14.1467 8.80002 14.9867 8.80002H17.0134C17.8534 8.80002 18.5334 9.48002 18.5334 10.32V22.5334H18.5201ZM24.9067 22.5334C24.9067 22.9067 24.6134 23.2 24.2401 23.2H20.5201C20.1467 23.2 19.8534 22.9067 19.8534 22.5334V17.8C19.8534 17.4267 20.1467 17.1334 20.5201 17.1334H23.3867C24.2267 17.1334 24.9067 17.8134 24.9067 18.6534V22.5334Z" fill="url(#paint0_linear_120_1424)"/>
<defs>
<linearGradient id="paint0_linear_120_1424" x1="3.22396" y1="10.2343" x2="31.0008" y2="11.1078" gradientUnits="userSpaceOnUse">
<stop stop-color="white"/>
<stop offset="1" stop-color="#595959"/>
</linearGradient>
</defs>
</svg>
