<svg width="100" height="100" viewBox="0 0 100 100" fill="none" xmlns="http://www.w3.org/2000/svg">
<rect x="1" y="1" width="98" height="98" rx="49" stroke="#CCCCCC" stroke-width="2"/>
<path d="M50 66.125C41.105 66.125 33.875 58.895 33.875 50C33.875 41.105 41.105 33.875 50 33.875C58.895 33.875 66.125 41.105 66.125 50C66.125 58.895 58.895 66.125 50 66.125ZM50 36.125C42.35 36.125 36.125 42.35 36.125 50C36.125 57.65 42.35 63.875 50 63.875C57.65 63.875 63.875 57.65 63.875 50C63.875 42.35 57.65 36.125 50 36.125Z" fill="#292D32"/>
<path d="M47.8699 55.3699C47.5699 55.3699 47.2849 55.2499 47.0749 55.0399L42.8299 50.7949C42.3949 50.3599 42.3949 49.6399 42.8299 49.2049C43.2649 48.7699 43.9849 48.7699 44.4199 49.2049L47.8699 52.6549L55.5799 44.9449C56.0149 44.5099 56.7349 44.5099 57.1699 44.9449C57.6049 45.3799 57.6049 46.0999 57.1699 46.5349L48.6649 55.0399C48.4549 55.2499 48.1699 55.3699 47.8699 55.3699Z" fill="#292D32"/>
</svg>
