<svg width="100" height="100" viewBox="0 0 100 100" fill="none" xmlns="http://www.w3.org/2000/svg">
<rect x="1" y="1" width="98" height="98" rx="49" stroke="#CCCCCC" stroke-width="2"/>
<path d="M50.2394 49.43C50.1944 49.43 50.1644 49.43 50.1194 49.43C50.0444 49.415 49.9394 49.415 49.8494 49.43C45.4994 49.295 42.2144 45.875 42.2144 41.66C42.2144 37.37 45.7094 33.875 49.9994 33.875C54.2894 33.875 57.7844 37.37 57.7844 41.66C57.7694 45.875 54.4694 49.295 50.2844 49.43C50.2694 49.43 50.2544 49.43 50.2394 49.43ZM49.9994 36.125C46.9544 36.125 44.4644 38.615 44.4644 41.66C44.4644 44.66 46.8044 47.075 49.7894 47.18C49.8644 47.165 50.0744 47.165 50.2694 47.18C53.2094 47.045 55.5194 44.63 55.5344 41.66C55.5344 38.615 53.0444 36.125 49.9994 36.125Z" fill="#292D32"/>
<path d="M50.2544 65.825C47.3144 65.825 44.3594 65.075 42.1244 63.575C40.0394 62.195 38.8994 60.305 38.8994 58.25C38.8994 56.195 40.0394 54.29 42.1244 52.895C46.6244 49.91 53.9144 49.91 58.3844 52.895C60.4544 54.275 61.6094 56.165 61.6094 58.22C61.6094 60.275 60.4694 62.18 58.3844 63.575C56.1344 65.075 53.1944 65.825 50.2544 65.825ZM43.3694 54.785C41.9294 55.745 41.1494 56.975 41.1494 58.265C41.1494 59.54 41.9444 60.77 43.3694 61.715C47.1044 64.22 53.4044 64.22 57.1394 61.715C58.5794 60.755 59.3594 59.525 59.3594 58.235C59.3594 56.96 58.5644 55.73 57.1394 54.785C53.4044 52.295 47.1044 52.295 43.3694 54.785Z" fill="#292D32"/>
</svg>
