<?xml version="1.0" encoding="utf-8"?>
<svg width="35" height="35" viewBox="0 0 35 35" fill="none" xmlns="http://www.w3.org/2000/svg">
  <g>
    <g transform="translate(2.657 1.823)">
      <path d="M5.46875 0C2.44845 0 0 2.44844 0 5.46875C0 8.4891 2.44845 10.9375 5.46875 10.9375C8.4891 10.9375 10.9375 8.4891 10.9375 5.46875C10.9375 2.44844 8.4891 0 5.46875 0L5.46875 0ZM2.1875 5.46875C2.1875 3.65663 3.65663 2.1875 5.46875 2.1875C7.28088 2.1875 8.75 3.65663 8.75 5.46875C8.75 7.28088 7.28088 8.75 5.46875 8.75C3.65663 8.75 2.1875 7.28088 2.1875 5.46875L2.1875 5.46875Z" fill="#959595" fill-rule="evenodd" transform="translate(9.374 10.208)" />
      <path d="M14.8063 5.80824e-07C14.1583 -1.33831e-05 13.6171 -1.34519e-05 13.1729 0.0302907C12.7104 0.0618491 12.2737 0.129866 11.8502 0.305274C10.8675 0.71231 10.0868 1.49303 9.67975 2.4757C9.46786 2.98728 9.41047 3.52643 9.38855 4.11244C9.37094 4.58353 9.1332 4.97658 8.78234 5.17914C8.43149 5.3817 7.97223 5.39107 7.55546 5.17078C7.03699 4.89675 6.54137 4.67686 5.99237 4.60459C4.93785 4.46575 3.87136 4.75153 3.02752 5.39903C2.66387 5.67806 2.38655 6.02233 2.12802 6.40704C1.87965 6.7766 1.60912 7.24522 1.28503 7.80656L1.24821 7.87035C0.924108 8.43167 0.653558 8.90027 0.457689 9.30013C0.2538 9.71639 0.0943014 10.1287 0.0344659 10.5831C-0.104367 11.6377 0.181408 12.7042 0.828894 13.5481C1.16594 13.9872 1.6041 14.3065 2.10057 14.6185C2.49984 14.8693 2.7214 15.2718 2.72137 15.6771C2.72136 16.0822 2.49979 16.4847 2.10057 16.7355C1.60404 17.0475 1.16584 17.3669 0.828762 17.8061C0.181262 18.6499 -0.104498 19.7164 0.0343201 20.7709C0.0941555 21.2253 0.253654 21.6377 0.457543 22.0539C0.653412 22.4538 0.923962 22.9224 1.24805 23.4837L1.28489 23.5476C1.60897 24.1089 1.87951 24.5774 2.12787 24.947C2.38641 25.3317 2.66372 25.676 3.02737 25.955C3.87121 26.6025 4.9377 26.8883 5.99222 26.7495C6.5412 26.6771 7.03679 26.4574 7.55522 26.1834C7.97206 25.963 8.43138 25.9723 8.78226 26.175C9.13317 26.3776 9.37094 26.7706 9.38855 27.2418C9.41047 27.8278 9.46787 28.3669 9.67975 28.8785C10.0868 29.8611 10.8675 30.6419 11.8502 31.0489C12.2737 31.2244 12.7104 31.2923 13.1729 31.3238C13.6171 31.3542 14.1583 31.3542 14.8063 31.3542L14.88 31.3542C15.5282 31.3542 16.0693 31.3542 16.5136 31.3238C16.9761 31.2923 17.4128 31.2244 17.8363 31.0489C18.819 30.6419 19.5997 29.8611 20.0068 28.8785C20.2187 28.3669 20.276 27.8278 20.2978 27.2417C20.3155 26.7706 20.5532 26.3776 20.9041 26.1749C21.255 25.9723 21.7143 25.963 22.1311 26.1832C22.6496 26.4572 23.1451 26.6771 23.6942 26.7493C24.7487 26.8882 25.8152 26.6025 26.659 25.955C27.0227 25.6759 27.2999 25.3317 27.5585 24.947C27.8068 24.5774 28.0773 24.1089 28.4014 23.5476L28.4383 23.4837C28.7623 22.9224 29.033 22.4537 29.2288 22.0538C29.4327 21.6376 29.5921 21.2253 29.652 20.7709C29.7909 19.7162 29.505 18.6497 28.8575 17.806C28.5205 17.3667 28.0823 17.0475 27.5859 16.7355C27.1866 16.4847 26.9651 16.0822 26.9651 15.6769C26.9651 15.2718 27.1866 14.8695 27.5857 14.6186C28.0824 14.3067 28.5207 13.9875 28.8577 13.5481C29.5052 12.7043 29.791 11.6378 29.6522 10.5832C29.5922 10.1288 29.4328 9.7165 29.229 9.30023C29.0331 8.9004 28.7626 8.43184 28.4384 7.87055L28.4017 7.80672C28.0775 7.24536 27.807 6.7767 27.5586 6.40714C27.3 6.02244 27.0228 5.67817 26.6591 5.39912C25.8153 4.75163 24.7488 4.46585 23.6942 4.60469C23.1452 4.67696 22.6497 4.89682 22.1313 5.17084C21.7145 5.39115 21.2551 5.38177 20.9042 5.17918C20.5533 4.97661 20.3155 4.5835 20.2978 4.11237C20.276 3.52637 20.2187 2.98725 20.0068 2.4757C19.5997 1.49303 18.819 0.71231 17.8363 0.305274C17.4128 0.129866 16.9761 0.0618491 16.5136 0.0302907C16.0693 -1.34519e-05 15.5282 -1.33831e-05 14.88 5.80824e-07L14.8063 5.80824e-07L14.8063 5.80824e-07ZM12.6872 2.32626C12.7998 2.27965 12.9707 2.23668 13.3218 2.21272C13.6827 2.1881 14.1488 2.1875 14.8432 2.1875C15.5377 2.1875 16.0038 2.1881 16.3646 2.21272C16.7157 2.23668 16.8867 2.27965 16.9991 2.32626C17.4458 2.51128 17.8007 2.86615 17.9857 3.31282C18.0441 3.45371 18.0924 3.67335 18.112 4.19412C18.1551 5.34968 18.7516 6.4623 19.8105 7.07362C20.8692 7.68495 22.1311 7.64517 23.1534 7.10483C23.6141 6.86131 23.8286 6.79338 23.9797 6.77348C24.4591 6.71038 24.9438 6.84027 25.3273 7.13458C25.424 7.20872 25.5467 7.33526 25.743 7.62732C25.9448 7.92754 26.1783 8.33088 26.5255 8.93229C26.8727 9.53372 27.1054 9.93764 27.2645 10.2625C27.4192 10.5785 27.4675 10.748 27.4833 10.8688C27.5465 11.3481 27.4166 11.8329 27.1223 12.2164C27.0294 12.3374 26.8634 12.4892 26.422 12.7664C25.443 13.3817 24.7777 14.4544 24.7776 15.6769C24.7776 16.8996 25.4428 17.9725 26.422 18.5878C26.8633 18.865 27.0292 19.0167 27.1221 19.1377C27.4164 19.5212 27.5464 20.006 27.4832 20.4854C27.4673 20.6061 27.419 20.7756 27.2643 21.0916C27.1052 21.4164 26.8726 21.8203 26.5254 22.4217C26.1781 23.0231 25.9447 23.4265 25.7428 23.7268C25.5465 24.0187 25.4239 24.1453 25.3272 24.2194C24.9437 24.5139 24.4589 24.6436 23.9796 24.5806C23.8285 24.5607 23.614 24.4927 23.1533 24.2493C22.131 23.7089 20.8691 23.6692 19.8102 24.2805C18.7516 24.8919 18.1551 26.0044 18.112 27.16C18.0924 27.6808 18.0441 27.9004 17.9857 28.0414C17.8007 28.488 17.4458 28.8429 16.9991 29.028C16.8867 29.0745 16.7157 29.1175 16.3646 29.1414C16.0038 29.1661 15.5377 29.1667 14.8432 29.1667C14.1488 29.1667 13.6827 29.1661 13.3218 29.1414C12.9707 29.1175 12.7998 29.0745 12.6872 29.028C12.2407 28.8429 11.8858 28.488 11.7007 28.0414C11.6424 27.9004 11.594 27.6808 11.5745 27.16C11.5313 26.0046 10.9349 24.8919 9.87601 24.2805C8.81718 23.6692 7.5554 23.709 6.53305 24.2493C6.07232 24.4929 5.85791 24.5608 5.70671 24.5806C5.22737 24.6438 4.74261 24.5139 4.35905 24.2196C4.26242 24.1455 4.13973 24.0189 3.94346 23.7268C3.7417 23.4267 3.50814 23.0233 3.16091 22.4219C2.81367 21.8205 2.58115 21.4165 2.42203 21.0917C2.26725 20.7757 2.21901 20.6061 2.20311 20.4854C2.14001 20.006 2.2699 19.5212 2.56422 19.1377C2.65706 19.0168 2.82309 18.865 3.26437 18.5878C4.24346 17.9726 4.90881 16.8997 4.90887 15.6772C4.90895 14.4544 4.24357 13.3815 3.26438 12.7662C2.82321 12.489 2.65719 12.3373 2.56435 12.2163C2.27005 11.8328 2.14015 11.348 2.20326 10.8687C2.21915 10.7479 2.26739 10.5784 2.42218 10.2624C2.5813 9.93754 2.81382 9.53362 3.16105 8.93219C3.50829 8.33077 3.74183 7.92744 3.9436 7.62721C4.13988 7.33517 4.26257 7.20861 4.35918 7.13449C4.74275 6.84017 5.22752 6.71027 5.70684 6.77338C5.85806 6.79328 6.07248 6.86121 6.53327 7.10477C7.55556 7.64509 8.81728 7.68486 9.87607 7.07357C10.9349 6.46228 11.5313 5.34971 11.5745 4.1942C11.594 3.67338 11.6424 3.45373 11.7007 3.31282C11.8858 2.86615 12.2407 2.51128 12.6872 2.32626L12.6872 2.32626Z" fill="#959595" fill-rule="evenodd" transform="translate(0 -0)" />
    </g>
  </g>
</svg>