<?xml version="1.0" encoding="utf-8"?>
<svg width="35" height="35" viewBox="0 0 35 35" fill="none" xmlns="http://www.w3.org/2000/svg">
  <g>
    <g transform="translate(1.823 1.823)">
      <path d="M1.19209e-07 15.6771C1.19209e-07 7.01887 7.01887 0 15.6771 0C24.3354 0 31.3542 7.01887 31.3542 15.6771C31.3542 24.3354 24.3354 31.3542 15.6771 31.3542C13.1712 31.3542 10.7997 30.7654 8.69626 29.7178C8.38237 29.5614 8.06187 29.5282 7.79222 29.6004L4.54592 30.469C2.32366 31.0635 0.290602 29.0305 0.885208 26.8082L1.75379 23.562C1.82595 23.2924 1.79277 22.9718 1.63644 22.658C0.588744 20.5545 1.19209e-07 18.1829 1.19209e-07 15.6771L1.19209e-07 15.6771ZM15.6771 2.1875C8.227 2.1875 2.1875 8.227 2.1875 15.6771C2.1875 17.837 2.69431 19.8753 3.5945 21.6826C3.95579 22.408 4.09491 23.2754 3.86696 24.1274L2.99836 27.3736C2.83884 27.9698 3.3843 28.5154 3.98051 28.3558L7.22681 27.4872C8.07877 27.2593 8.94616 27.3984 9.67153 27.7597C11.4788 28.6599 13.5171 29.1667 15.6771 29.1667C23.1271 29.1667 29.1667 23.1271 29.1667 15.6771C29.1667 8.227 23.1271 2.1875 15.6771 2.1875L15.6771 2.1875ZM20.8254 11.987C21.2526 12.4142 21.2526 13.1066 20.8254 13.5338L14.9921 19.3671C14.5712 19.7881 13.8908 19.7951 13.4613 19.3827L10.5446 16.5827C10.1089 16.1645 10.0947 15.472 10.5131 15.0363C10.9314 14.6005 11.6238 14.5864 12.0595 15.0048L14.2031 17.0626L19.2787 11.987C19.7059 11.5599 20.3983 11.5599 20.8254 11.987L20.8254 11.987Z" fill="#959595" fill-rule="evenodd" transform="translate(-0 0)" />
    </g>
  </g>
</svg>