<svg width="100" height="100" viewBox="0 0 100 100" fill="none" xmlns="http://www.w3.org/2000/svg">
<rect x="1" y="1" width="98" height="98" rx="49" stroke="#CCCCCC" stroke-width="2"/>
<path d="M59 48.125C58.385 48.125 57.875 47.615 57.875 47V44C57.875 39.275 56.54 36.125 50 36.125C43.46 36.125 42.125 39.275 42.125 44V47C42.125 47.615 41.615 48.125 41 48.125C40.385 48.125 39.875 47.615 39.875 47V44C39.875 39.65 40.925 33.875 50 33.875C59.075 33.875 60.125 39.65 60.125 44V47C60.125 47.615 59.615 48.125 59 48.125Z" fill="#292D32"/>
<path d="M50 60.875C47.315 60.875 45.125 58.685 45.125 56C45.125 53.315 47.315 51.125 50 51.125C52.685 51.125 54.875 53.315 54.875 56C54.875 58.685 52.685 60.875 50 60.875ZM50 53.375C48.56 53.375 47.375 54.56 47.375 56C47.375 57.44 48.56 58.625 50 58.625C51.44 58.625 52.625 57.44 52.625 56C52.625 54.56 51.44 53.375 50 53.375Z" fill="#292D32"/>
<path d="M57.5 66.125H42.5C35.885 66.125 33.875 64.115 33.875 57.5V54.5C33.875 47.885 35.885 45.875 42.5 45.875H57.5C64.115 45.875 66.125 47.885 66.125 54.5V57.5C66.125 64.115 64.115 66.125 57.5 66.125ZM42.5 48.125C37.13 48.125 36.125 49.145 36.125 54.5V57.5C36.125 62.855 37.13 63.875 42.5 63.875H57.5C62.87 63.875 63.875 62.855 63.875 57.5V54.5C63.875 49.145 62.87 48.125 57.5 48.125H42.5Z" fill="#292D32"/>
</svg>
