<svg width="36" height="36" viewBox="0 0 36 36" fill="none" xmlns="http://www.w3.org/2000/svg">
<path d="M24.5882 23.1333H23.902V11.4333C23.902 11.3184 23.8586 11.2082 23.7814 11.1269C23.7041 11.0457 23.5994 11 23.4902 11H19.6471C19.5379 11 19.4331 11.0457 19.3559 11.1269C19.2787 11.2082 19.2353 11.3184 19.2353 11.4333V14.4667H15.8039C15.6947 14.4667 15.59 14.5123 15.5128 14.5936C15.4355 14.6749 15.3922 14.7851 15.3922 14.9V17.9333H12.5098C12.4006 17.9333 12.2959 17.979 12.2186 18.0603C12.1414 18.1415 12.098 18.2517 12.098 18.3667V23.1333H11.4118C11.3026 23.1333 11.1978 23.179 11.1206 23.2603C11.0434 23.3415 11 23.4517 11 23.5667C11 23.6816 11.0434 23.7918 11.1206 23.8731C11.1978 23.9543 11.3026 24 11.4118 24H24.5882C24.6974 24 24.8022 23.9543 24.8794 23.8731C24.9566 23.7918 25 23.6816 25 23.5667C25 23.4517 24.9566 23.3415 24.8794 23.2603C24.8022 23.179 24.6974 23.1333 24.5882 23.1333ZM20.0588 11.8667H23.0784V23.1333H20.0588V11.8667ZM16.2157 15.3333H19.2353V23.1333H16.2157V15.3333ZM12.9216 18.8H15.3922V23.1333H12.9216V18.8Z" fill="white"/>
</svg>
