<svg width="36" height="36" viewBox="0 0 36 36" fill="none" xmlns="http://www.w3.org/2000/svg">
<g filter="url(#filter0_i_1_12)">
<rect width="36" height="36" rx="18" fill="url(#paint0_linear_1_12)"/>
<path fill-rule="evenodd" clip-rule="evenodd" d="M23.8605 11H19.9535C19.6513 11 19.3614 11.1201 19.1477 11.3338C18.934 11.5475 18.814 11.8373 18.814 12.1395V16.0465C18.814 16.1962 18.8434 16.3443 18.9007 16.4826C18.958 16.6208 19.0419 16.7465 19.1477 16.8523C19.2535 16.9581 19.3792 17.042 19.5174 17.0993C19.6557 17.1566 19.8038 17.186 19.9535 17.186H23.8605C24.0101 17.186 24.1583 17.1566 24.2965 17.0993C24.4348 17.042 24.5604 16.9581 24.6662 16.8523C24.7721 16.7465 24.856 16.6208 24.9133 16.4826C24.9705 16.3443 25 16.1962 25 16.0465V12.1395C25 11.8373 24.8799 11.5475 24.6662 11.3338C24.4525 11.1201 24.1627 11 23.8605 11Z" fill="white"/>
<path fill-rule="evenodd" clip-rule="evenodd" d="M12.1395 18.814H16.0465C16.1962 18.814 16.3443 18.8434 16.4826 18.9007C16.6208 18.958 16.7465 19.0419 16.8523 19.1477C16.9581 19.2535 17.042 19.3792 17.0993 19.5174C17.1566 19.6557 17.186 19.8038 17.186 19.9535V23.8605C17.186 24.0101 17.1566 24.1583 17.0993 24.2965C17.042 24.4348 16.9581 24.5604 16.8523 24.6662C16.7465 24.7721 16.6208 24.856 16.4826 24.9133C16.3443 24.9705 16.1962 25 16.0465 25H12.1395C11.8373 25 11.5475 24.8799 11.3338 24.6662C11.1201 24.4525 11 24.1627 11 23.8605V19.9535C11 19.6513 11.1201 19.3614 11.3338 19.1477C11.5475 18.934 11.8373 18.814 12.1395 18.814Z" fill="white"/>
<path fill-rule="evenodd" clip-rule="evenodd" d="M16.0465 11H12.1395C11.8373 11 11.5475 11.1201 11.3338 11.3338C11.1201 11.5475 11 11.8373 11 12.1395V16.0465C11 16.1962 11.0295 16.3443 11.0867 16.4826C11.144 16.6208 11.2279 16.7465 11.3338 16.8523C11.4396 16.9581 11.5652 17.042 11.7035 17.0993C11.8417 17.1566 11.9899 17.186 12.1395 17.186H16.0465C16.1962 17.186 16.3443 17.1566 16.4826 17.0993C16.6208 17.042 16.7465 16.9581 16.8523 16.8523C16.9581 16.7465 17.042 16.6208 17.0993 16.4826C17.1566 16.3443 17.186 16.1962 17.186 16.0465V12.1395C17.186 11.9899 17.1566 11.8417 17.0993 11.7035C17.042 11.5652 16.9581 11.4396 16.8523 11.3338C16.7465 11.2279 16.6208 11.144 16.4826 11.0867C16.3443 11.0295 16.1962 11 16.0465 11Z" fill="white"/>
<path fill-rule="evenodd" clip-rule="evenodd" d="M19.9535 18.814H23.8605C24.1627 18.814 24.4525 18.934 24.6662 19.1477C24.8799 19.3614 25 19.6513 25 19.9535V23.8605C25 24.1627 24.8799 24.4525 24.6662 24.6662C24.4525 24.8799 24.1627 25 23.8605 25H19.9535C19.6513 25 19.3614 24.8799 19.1477 24.6662C18.934 24.4525 18.814 24.1627 18.814 23.8605V19.9535C18.814 19.6513 18.934 19.3614 19.1477 19.1477C19.3614 18.934 19.6513 18.814 19.9535 18.814Z" fill="white"/>
</g>
<defs>
<filter id="filter0_i_1_12" x="0" y="-2" width="36" height="38" filterUnits="userSpaceOnUse" color-interpolation-filters="sRGB">
<feFlood flood-opacity="0" result="BackgroundImageFix"/>
<feBlend mode="normal" in="SourceGraphic" in2="BackgroundImageFix" result="shape"/>
<feColorMatrix in="SourceAlpha" type="matrix" values="0 0 0 0 0 0 0 0 0 0 0 0 0 0 0 0 0 0 127 0" result="hardAlpha"/>
<feOffset dy="-2"/>
<feGaussianBlur stdDeviation="1.5"/>
<feComposite in2="hardAlpha" operator="arithmetic" k2="-1" k3="1"/>
<feColorMatrix type="matrix" values="0 0 0 0 0.909804 0 0 0 0 0.317647 0 0 0 0 0.00784314 0 0 0 1 0"/>
<feBlend mode="normal" in2="shape" result="effect1_innerShadow_1_12"/>
</filter>
<linearGradient id="paint0_linear_1_12" x1="18" y1="0" x2="18" y2="36" gradientUnits="userSpaceOnUse">
<stop stop-color="#111111" stop-opacity="0"/>
<stop offset="1" stop-color="#E85102" stop-opacity="0.75"/>
</linearGradient>
</defs>
</svg>
