<svg width="37" height="82" viewBox="0 0 37 82" fill="none" xmlns="http://www.w3.org/2000/svg">
<rect x="0.5" y="0.5" width="36" height="81" rx="18" fill="#111111"/>
<rect x="0.5" y="0.5" width="36" height="81" rx="18" stroke="url(#paint0_linear_1_28)" stroke-linecap="round" stroke-linejoin="round"/>
<path d="M18.5007 19.1177C17.839 19.1177 17.1922 19.3161 16.642 19.6877C16.0918 20.0594 15.6629 20.5876 15.4097 21.2057C15.1565 21.8237 15.0902 22.5038 15.2193 23.1599C15.3484 23.816 15.6671 24.4187 16.135 24.8917C16.6029 25.3647 17.199 25.6869 17.848 25.8174C18.497 25.9479 19.1697 25.8809 19.7811 25.6249C20.3924 25.3689 20.9149 24.9354 21.2826 24.3792C21.6502 23.8229 21.8464 23.169 21.8464 22.5C21.8453 21.6033 21.4924 20.7437 20.8652 20.1096C20.238 19.4756 19.3877 19.1189 18.5007 19.1177ZM18.5007 25C18.0116 25 17.5335 24.8534 17.1269 24.5787C16.7202 24.304 16.4032 23.9135 16.2161 23.4567C16.0289 22.9999 15.9799 22.4973 16.0753 22.0123C16.1708 21.5274 16.4063 21.0819 16.7521 20.7323C17.098 20.3826 17.5386 20.1445 18.0183 20.0481C18.498 19.9516 18.9952 20.0011 19.4471 20.1903C19.8989 20.3796 20.2851 20.7 20.5569 21.1111C20.8286 21.5222 20.9736 22.0056 20.9736 22.5C20.9736 23.1631 20.7131 23.7989 20.2493 24.2678C19.7856 24.7366 19.1566 25 18.5007 25ZM26.3558 21C26.3432 20.9386 26.3177 20.8805 26.281 20.8298C26.2444 20.7791 26.1975 20.7368 26.1434 20.7059L23.9295 19.428L23.8989 19.3758L23.8902 16.853C23.8902 16.7893 23.8765 16.7263 23.8502 16.6684C23.8238 16.6105 23.7853 16.5591 23.7374 16.5177C22.9642 15.8567 22.074 15.35 21.114 15.0243C21.0563 15.0047 20.9951 14.9975 20.9345 15.0032C20.8739 15.0089 20.8151 15.0274 20.762 15.0574L18.5342 16.3133H18.4615L16.2395 15.0559C16.1861 15.0258 16.127 15.0074 16.0661 15.0018C16.0052 14.9962 15.9439 15.0036 15.886 15.0236C14.9261 15.3502 14.0363 15.8582 13.264 16.5206C13.2159 16.5618 13.1773 16.6131 13.1506 16.6708C13.124 16.7286 13.1101 16.7915 13.1098 16.8552L13.0982 19.3802C13.088 19.3971 13.0778 19.4147 13.0684 19.4324L10.8573 20.7037C10.803 20.7351 10.7559 20.7779 10.7194 20.8293C10.6829 20.8807 10.6577 20.9394 10.6456 21.0015C10.4515 21.9914 10.4515 23.0102 10.6456 24C10.6583 24.0615 10.6838 24.1195 10.7204 24.1703C10.757 24.221 10.804 24.2632 10.858 24.2941L13.0705 25.5684L13.1011 25.6206L13.1098 28.1434C13.1095 28.2078 13.1231 28.2716 13.1497 28.3302C13.1764 28.3887 13.2154 28.4407 13.264 28.4824C14.0372 29.1433 14.9275 29.6501 15.8875 29.9757C15.9452 29.9953 16.0063 30.0025 16.0669 29.9968C16.1276 29.9911 16.1863 29.9727 16.2395 29.9426L18.4658 28.6868H18.5385L20.7612 29.9441C20.8263 29.9805 20.8993 29.9997 20.9736 30C21.0214 30.0002 21.0688 29.9922 21.114 29.9765C22.0726 29.6494 22.9611 29.1414 23.7324 28.4794C23.7804 28.4382 23.8191 28.387 23.8457 28.3292C23.8723 28.2715 23.8863 28.2086 23.8865 28.1449L23.8982 25.6199C23.9084 25.603 23.9185 25.5853 23.928 25.5677L26.1405 24.2963C26.195 24.265 26.2422 24.2222 26.2788 24.1708C26.3155 24.1195 26.3407 24.0607 26.3529 23.9986C26.5481 23.0089 26.549 21.9901 26.3558 21ZM25.5376 23.6316L23.3971 24.8603C23.3277 24.9005 23.2703 24.9589 23.2312 25.0294C23.1883 25.103 23.1432 25.1846 23.0959 25.2603C23.0529 25.33 23.03 25.4105 23.0298 25.4927L23.0181 27.9346C22.4163 28.422 21.7404 28.8076 21.0165 29.0765L18.8644 27.8588C18.7993 27.8218 18.7259 27.8023 18.6513 27.8022H18.6411C18.5509 27.8022 18.4593 27.8022 18.3691 27.8022C18.291 27.8003 18.2139 27.8196 18.1458 27.8581L15.9878 29.0757C15.2631 28.8083 14.5861 28.4236 13.9833 27.9368L13.9746 25.4978C13.9744 25.4156 13.9514 25.3352 13.9084 25.2655C13.8619 25.1919 13.816 25.1125 13.7731 25.0346C13.7344 24.964 13.6773 24.9055 13.608 24.8655L11.4675 23.6324C11.3431 22.883 11.3431 22.1178 11.4675 21.3684L13.6044 20.1397C13.6749 20.1 13.7332 20.0415 13.7731 19.9706C13.816 19.8971 13.8611 19.8155 13.9084 19.7397C13.9514 19.67 13.9744 19.5896 13.9746 19.5074L13.9862 17.0655C14.5872 16.5783 15.2621 16.1927 15.9849 15.9236L18.1371 17.1412C18.205 17.1804 18.2822 17.1997 18.3604 17.1971C18.4505 17.1971 18.5422 17.1971 18.6324 17.1971C18.7104 17.199 18.7875 17.1797 18.8557 17.1412L21.0122 15.9236C21.7369 16.1911 22.4139 16.5757 23.0167 17.0626L23.0254 19.5015C23.0256 19.5837 23.0485 19.6642 23.0916 19.7339C23.1381 19.8074 23.184 19.8868 23.2269 19.9647C23.2656 20.0353 23.3227 20.0938 23.392 20.1339L25.5339 21.3677C25.6591 22.117 25.6598 22.8821 25.5361 23.6316H25.5376Z" fill="white"/>
<path d="M22.7629 54.7769C22.2109 54.2164 21.5542 53.771 20.8304 53.4661C20.1067 53.1612 19.3301 53.0028 18.5453 53H18.5C16.9087 53 15.3826 53.635 14.2574 54.7653C13.1321 55.8957 12.5 57.4287 12.5 59.0273V62.3364C12.5 62.6811 12.6363 63.0118 12.879 63.2556C13.1217 63.4994 13.4509 63.6364 13.7941 63.6364H14.7353C15.0785 63.6364 15.4077 63.4994 15.6504 63.2556C15.8931 63.0118 16.0294 62.6811 16.0294 62.3364V59.9727C16.0294 59.6279 15.8931 59.2973 15.6504 59.0535C15.4077 58.8097 15.0785 58.6727 14.7353 58.6727H13.2176C13.3072 57.3266 13.9026 56.065 14.8834 55.1434C15.8642 54.2218 17.157 53.7091 18.5 53.7091H18.54C19.8773 53.7151 21.1626 54.2309 22.1358 55.1523C23.1091 56.0737 23.6978 57.332 23.7829 58.6727H22.2647C21.9215 58.6727 21.5923 58.8097 21.3496 59.0535C21.1069 59.2973 20.9706 59.6279 20.9706 59.9727V62.3364C20.9706 62.6811 21.1069 63.0118 21.3496 63.2556C21.5923 63.4994 21.9215 63.6364 22.2647 63.6364H23.7941V63.7545C23.7941 64.162 23.6329 64.5528 23.3461 64.8409C23.0593 65.129 22.6703 65.2909 22.2647 65.2909H18.9706C18.877 65.2909 18.7872 65.3283 18.721 65.3948C18.6548 65.4612 18.6176 65.5514 18.6176 65.6455C18.6176 65.7395 18.6548 65.8297 18.721 65.8962C18.7872 65.9626 18.877 66 18.9706 66H22.2647C22.8575 66 23.4261 65.7634 23.8453 65.3423C24.2645 64.9212 24.5 64.3501 24.5 63.7545V59.0273C24.5029 58.2389 24.351 57.4576 24.0529 56.7282C23.7549 55.9989 23.3165 55.3358 22.7629 54.7769ZM14.7353 59.3818C14.8913 59.3818 15.0409 59.4441 15.1512 59.5549C15.2615 59.6657 15.3235 59.816 15.3235 59.9727V62.3364C15.3235 62.4931 15.2615 62.6434 15.1512 62.7542C15.0409 62.865 14.8913 62.9273 14.7353 62.9273H13.7941C13.6381 62.9273 13.4885 62.865 13.3782 62.7542C13.2679 62.6434 13.2059 62.4931 13.2059 62.3364V59.3818H14.7353ZM21.6764 62.3364V59.9727C21.6764 59.816 21.7384 59.6657 21.8487 59.5549C21.959 59.4441 22.1087 59.3818 22.2647 59.3818H23.7941V62.9273H22.2647C22.1087 62.9273 21.959 62.865 21.8487 62.7542C21.7384 62.6434 21.6764 62.4931 21.6764 62.3364Z" fill="white"/>
<defs>
<linearGradient id="paint0_linear_1_28" x1="12.2895" y1="-112.141" x2="99.7467" y2="-89.9806" gradientUnits="userSpaceOnUse">
<stop stop-color="#767676"/>
<stop offset="0.490038" stop-color="#0B0B0B" stop-opacity="0.26"/>
<stop offset="1" stop-color="#767676"/>
</linearGradient>
</defs>
</svg>
