<svg width="36" height="36" viewBox="0 0 36 36" fill="none" xmlns="http://www.w3.org/2000/svg">
<path d="M18.0007 14.1177C17.339 14.1177 16.6922 14.3161 16.142 14.6877C15.5918 15.0594 15.1629 15.5876 14.9097 16.2057C14.6565 16.8237 14.5902 17.5038 14.7193 18.1599C14.8484 18.816 15.1671 19.4187 15.635 19.8917C16.1029 20.3647 16.699 20.6869 17.348 20.8174C17.997 20.9479 18.6697 20.8809 19.2811 20.6249C19.8924 20.3689 20.4149 19.9354 20.7826 19.3792C21.1502 18.8229 21.3464 18.169 21.3464 17.5C21.3453 16.6033 20.9924 15.7437 20.3652 15.1096C19.738 14.4756 18.8877 14.1189 18.0007 14.1177ZM18.0007 20C17.5116 20 17.0335 19.8534 16.6269 19.5787C16.2202 19.304 15.9032 18.9135 15.7161 18.4567C15.5289 17.9999 15.4799 17.4973 15.5753 17.0123C15.6708 16.5274 15.9063 16.0819 16.2521 15.7323C16.598 15.3826 17.0386 15.1445 17.5183 15.0481C17.998 14.9516 18.4952 15.0011 18.9471 15.1903C19.3989 15.3796 19.7851 15.7 20.0569 16.1111C20.3286 16.5222 20.4736 17.0056 20.4736 17.5C20.4736 18.1631 20.2131 18.7989 19.7493 19.2678C19.2856 19.7366 18.6566 20 18.0007 20ZM25.8558 16C25.8432 15.9386 25.8177 15.8805 25.781 15.8298C25.7444 15.7791 25.6975 15.7368 25.6434 15.7059L23.4295 14.428L23.3989 14.3758L23.3902 11.853C23.3902 11.7893 23.3765 11.7263 23.3502 11.6684C23.3238 11.6105 23.2853 11.5591 23.2374 11.5177C22.4642 10.8567 21.574 10.35 20.614 10.0243C20.5563 10.0047 20.4951 9.99752 20.4345 10.0032C20.3739 10.0089 20.3151 10.0274 20.262 10.0574L18.0342 11.3133H17.9615L15.7395 10.0559C15.6861 10.0258 15.627 10.0074 15.5661 10.0018C15.5052 9.99622 15.4439 10.0036 15.386 10.0236C14.4261 10.3502 13.5363 10.8582 12.764 11.5206C12.7159 11.5618 12.6773 11.6131 12.6506 11.6708C12.624 11.7286 12.6101 11.7915 12.6098 11.8552L12.5982 14.3802C12.588 14.3971 12.5778 14.4147 12.5684 14.4324L10.3573 15.7037C10.303 15.7351 10.2559 15.7779 10.2194 15.8293C10.1829 15.8807 10.1577 15.9394 10.1456 16.0015C9.95145 16.9914 9.95145 18.0102 10.1456 19C10.1583 19.0615 10.1838 19.1195 10.2204 19.1703C10.257 19.221 10.304 19.2632 10.358 19.2941L12.5705 20.5684L12.6011 20.6206L12.6098 23.1434C12.6095 23.2078 12.6231 23.2716 12.6497 23.3302C12.6764 23.3887 12.7154 23.4407 12.764 23.4824C13.5372 24.1433 14.4275 24.6501 15.3875 24.9757C15.4452 24.9953 15.5063 25.0025 15.5669 24.9968C15.6276 24.9911 15.6863 24.9727 15.7395 24.9426L17.9658 23.6868H18.0385L20.2612 24.9441C20.3263 24.9805 20.3993 24.9997 20.4736 25C20.5214 25.0002 20.5688 24.9922 20.614 24.9765C21.5726 24.6494 22.4611 24.1414 23.2324 23.4794C23.2804 23.4382 23.3191 23.387 23.3457 23.3292C23.3723 23.2715 23.3863 23.2086 23.3865 23.1449L23.3982 20.6199C23.4084 20.603 23.4185 20.5853 23.428 20.5677L25.6405 19.2963C25.695 19.265 25.7422 19.2222 25.7788 19.1708C25.8155 19.1195 25.8407 19.0607 25.8529 18.9986C26.0481 18.0089 26.049 16.9901 25.8558 16ZM25.0376 18.6316L22.8971 19.8603C22.8277 19.9005 22.7703 19.9589 22.7312 20.0294C22.6883 20.103 22.6432 20.1846 22.5959 20.2603C22.5529 20.33 22.53 20.4105 22.5298 20.4927L22.5181 22.9346C21.9163 23.422 21.2404 23.8076 20.5165 24.0765L18.3644 22.8588C18.2993 22.8218 18.2259 22.8023 18.1513 22.8022H18.1411C18.0509 22.8022 17.9593 22.8022 17.8691 22.8022C17.791 22.8003 17.7139 22.8196 17.6458 22.8581L15.4878 24.0757C14.7631 23.8083 14.0861 23.4236 13.4833 22.9368L13.4746 20.4978C13.4744 20.4156 13.4514 20.3352 13.4084 20.2655C13.3619 20.1919 13.316 20.1125 13.2731 20.0346C13.2344 19.964 13.1773 19.9055 13.108 19.8655L10.9675 18.6324C10.8431 17.883 10.8431 17.1178 10.9675 16.3684L13.1044 15.1397C13.1749 15.1 13.2332 15.0415 13.2731 14.9706C13.316 14.8971 13.3611 14.8155 13.4084 14.7397C13.4514 14.67 13.4744 14.5896 13.4746 14.5074L13.4862 12.0655C14.0872 11.5783 14.7621 11.1927 15.4849 10.9236L17.6371 12.1412C17.705 12.1804 17.7822 12.1997 17.8604 12.1971C17.9505 12.1971 18.0422 12.1971 18.1324 12.1971C18.2104 12.199 18.2875 12.1797 18.3557 12.1412L20.5122 10.9236C21.2369 11.1911 21.9139 11.5757 22.5167 12.0626L22.5254 14.5015C22.5256 14.5837 22.5485 14.6642 22.5916 14.7339C22.6381 14.8074 22.684 14.8868 22.7269 14.9647C22.7656 15.0353 22.8227 15.0938 22.892 15.1339L25.0339 16.3677C25.1591 17.117 25.1598 17.8821 25.0361 18.6316H25.0376Z" fill="white"/>
</svg>
