<svg width="20" height="20" viewBox="0 0 20 20" fill="none" xmlns="http://www.w3.org/2000/svg">
<path d="M14.2629 5.77686C13.7109 5.21644 13.0542 4.771 12.3304 4.46608C11.6067 4.16117 10.8301 4.00278 10.0453 4H9.99998C8.40869 4 6.88257 4.63501 5.75735 5.76535C4.63214 6.89568 4 8.42874 4 10.0273V13.3364C4 13.6811 4.13634 14.0118 4.37904 14.2556C4.62173 14.4994 4.95089 14.6364 5.29411 14.6364H6.23529C6.57851 14.6364 6.90767 14.4994 7.15036 14.2556C7.39306 14.0118 7.5294 13.6811 7.5294 13.3364V10.9727C7.5294 10.6279 7.39306 10.2973 7.15036 10.0535C6.90767 9.80969 6.57851 9.67273 6.23529 9.67273H4.71764C4.80718 8.32663 5.40263 7.06503 6.38341 6.14342C7.36419 5.22181 8.65699 4.70909 9.99998 4.70909H10.04C11.3773 4.71505 12.6626 5.23089 13.6358 6.1523C14.6091 7.07372 15.1978 8.33199 15.2829 9.67273H13.7647C13.4215 9.67273 13.0923 9.80969 12.8496 10.0535C12.6069 10.2973 12.4706 10.6279 12.4706 10.9727V13.3364C12.4706 13.6811 12.6069 14.0118 12.8496 14.2556C13.0923 14.4994 13.4215 14.6364 13.7647 14.6364H15.2941V14.7545C15.2941 15.162 15.1329 15.5528 14.8461 15.8409C14.5593 16.129 14.1703 16.2909 13.7647 16.2909H10.4706C10.377 16.2909 10.2872 16.3283 10.221 16.3948C10.1548 16.4612 10.1176 16.5514 10.1176 16.6455C10.1176 16.7395 10.1548 16.8297 10.221 16.8962C10.2872 16.9626 10.377 17 10.4706 17H13.7647C14.3575 17 14.9261 16.7634 15.3453 16.3423C15.7645 15.9212 16 15.3501 16 14.7545V10.0273C16.0029 9.23885 15.851 8.45759 15.5529 7.72824C15.2549 6.99888 14.8165 6.33577 14.2629 5.77686ZM6.23529 10.3818C6.3913 10.3818 6.54091 10.4441 6.65123 10.5549C6.76154 10.6657 6.82352 10.816 6.82352 10.9727V13.3364C6.82352 13.4931 6.76154 13.6434 6.65123 13.7542C6.54091 13.865 6.3913 13.9273 6.23529 13.9273H5.29411C5.1381 13.9273 4.98848 13.865 4.87817 13.7542C4.76785 13.6434 4.70588 13.4931 4.70588 13.3364V10.3818H6.23529ZM13.1764 13.3364V10.9727C13.1764 10.816 13.2384 10.6657 13.3487 10.5549C13.459 10.4441 13.6087 10.3818 13.7647 10.3818H15.2941V13.9273H13.7647C13.6087 13.9273 13.459 13.865 13.3487 13.7542C13.2384 13.6434 13.1764 13.4931 13.1764 13.3364Z" fill="white"/>
</svg>
