<svg width="36" height="36" viewBox="0 0 36 36" fill="none" xmlns="http://www.w3.org/2000/svg">
<path d="M25 12.0426V19.7872C25 20.0637 24.8902 20.3289 24.6946 20.5244C24.4991 20.7199 24.2339 20.8298 23.9574 20.8298H15.5046L16.5285 21.8545C16.5724 21.8954 16.6076 21.9447 16.632 21.9995C16.6565 22.0543 16.6696 22.1135 16.6707 22.1735C16.6717 22.2335 16.6607 22.2931 16.6382 22.3487C16.6157 22.4043 16.5823 22.4549 16.5399 22.4973C16.4974 22.5397 16.4469 22.5732 16.3912 22.5956C16.3356 22.6181 16.276 22.6292 16.216 22.6281C16.156 22.627 16.0969 22.6139 16.0421 22.5895C15.9873 22.5651 15.9379 22.5299 15.897 22.486L14.1098 20.6987C14.0261 20.6149 13.9791 20.5014 13.9791 20.383C13.9791 20.2646 14.0261 20.151 14.1098 20.0672L15.897 18.28C15.9817 18.2011 16.0937 18.1581 16.2095 18.1602C16.3253 18.1622 16.4357 18.2091 16.5176 18.2909C16.5994 18.3728 16.6463 18.4833 16.6484 18.599C16.6504 18.7148 16.6074 18.8268 16.5285 18.9115L15.5046 19.9362H23.9574C23.9969 19.9362 24.0348 19.9205 24.0628 19.8925C24.0907 19.8646 24.1064 19.8267 24.1064 19.7872V12.0426C24.1064 12.0031 24.0907 11.9652 24.0628 11.9372C24.0348 11.9093 23.9969 11.8936 23.9574 11.8936H15.617C15.5775 11.8936 15.5396 11.9093 15.5117 11.9372C15.4838 11.9652 15.4681 12.0031 15.4681 12.0426V12.6383C15.4681 12.7568 15.421 12.8704 15.3372 12.9542C15.2534 13.038 15.1398 13.0851 15.0213 13.0851C14.9028 13.0851 14.7891 13.038 14.7053 12.9542C14.6215 12.8704 14.5745 12.7568 14.5745 12.6383V12.0426C14.5745 11.7661 14.6843 11.5009 14.8798 11.3054C15.0753 11.1098 15.3405 11 15.617 11H23.9574C24.2339 11 24.4991 11.1098 24.6946 11.3054C24.8902 11.5009 25 11.7661 25 12.0426ZM20.9787 22.9149C20.8602 22.9149 20.7466 22.962 20.6628 23.0458C20.579 23.1296 20.5319 23.2432 20.5319 23.3617V23.9574C20.5319 23.9969 20.5162 24.0348 20.4883 24.0628C20.4604 24.0907 20.4225 24.1064 20.383 24.1064H12.0426C12.0031 24.1064 11.9652 24.0907 11.9372 24.0628C11.9093 24.0348 11.8936 23.9969 11.8936 23.9574V16.2128C11.8936 16.1733 11.9093 16.1354 11.9372 16.1075C11.9652 16.0795 12.0031 16.0638 12.0426 16.0638H20.4954L19.4715 17.0885C19.4276 17.1294 19.3924 17.1787 19.368 17.2336C19.3435 17.2884 19.3304 17.3475 19.3293 17.4075C19.3283 17.4675 19.3393 17.5271 19.3618 17.5827C19.3843 17.6384 19.4177 17.6889 19.4601 17.7313C19.5026 17.7738 19.5531 17.8072 19.6088 17.8297C19.6644 17.8522 19.724 17.8632 19.784 17.8621C19.844 17.8611 19.9031 17.8479 19.9579 17.8235C20.0127 17.7991 20.0621 17.7639 20.103 17.72L21.8902 15.9328C21.9739 15.849 22.0209 15.7354 22.0209 15.617C22.0209 15.4986 21.9739 15.3851 21.8902 15.3013L20.103 13.514C20.0183 13.4351 19.9063 13.3922 19.7905 13.3942C19.6747 13.3962 19.5643 13.4431 19.4824 13.525C19.4006 13.6069 19.3537 13.7173 19.3516 13.8331C19.3496 13.9488 19.3926 14.0608 19.4715 14.1455L20.4954 15.1702H12.0426C11.7661 15.1702 11.5009 15.2801 11.3054 15.4756C11.1098 15.6711 11 15.9363 11 16.2128V23.9574C11 24.2339 11.1098 24.4991 11.3054 24.6946C11.5009 24.8902 11.7661 25 12.0426 25H20.383C20.6595 25 20.9247 24.8902 21.1202 24.6946C21.3157 24.4991 21.4255 24.2339 21.4255 23.9574V23.3617C21.4255 23.2432 21.3785 23.1296 21.2947 23.0458C21.2109 22.962 21.0972 22.9149 20.9787 22.9149Z" fill="white"/>
</svg>
