<svg width="137" height="33" viewBox="0 0 137 33" fill="none" xmlns="http://www.w3.org/2000/svg">
<rect x="0.5" y="0.5" width="136" height="32" rx="16" fill="#111111"/>
<rect x="0.5" y="0.5" width="136" height="32" rx="16" stroke="url(#paint0_linear_1_70)" stroke-linecap="round" stroke-linejoin="round"/>
<path d="M19.2422 20V12.8418H20.668L22.3623 17.9102C22.5186 18.3822 22.6325 18.7354 22.7041 18.9697C22.7855 18.7093 22.9124 18.3268 23.085 17.8223L24.7988 12.8418H26.0732V20H25.1602V14.0088L23.0801 20H22.2256L20.1553 13.9062V20H19.2422ZM30.873 19.3604C30.5475 19.637 30.2334 19.8324 29.9307 19.9463C29.6312 20.0602 29.3089 20.1172 28.9639 20.1172C28.3942 20.1172 27.9564 19.9788 27.6504 19.7021C27.3444 19.4222 27.1914 19.0658 27.1914 18.6328C27.1914 18.3789 27.2484 18.1478 27.3623 17.9395C27.4795 17.7279 27.6309 17.5586 27.8164 17.4316C28.0052 17.3047 28.2168 17.2087 28.4512 17.1436C28.6237 17.098 28.8841 17.054 29.2324 17.0117C29.9421 16.9271 30.4645 16.8262 30.7998 16.709C30.8031 16.5885 30.8047 16.512 30.8047 16.4795C30.8047 16.1214 30.7217 15.8691 30.5557 15.7227C30.3311 15.5241 29.9974 15.4248 29.5547 15.4248C29.1413 15.4248 28.8353 15.498 28.6367 15.6445C28.4414 15.7878 28.2965 16.0433 28.2021 16.4111L27.3428 16.2939C27.4209 15.9261 27.5495 15.6299 27.7285 15.4053C27.9076 15.1774 28.1663 15.0033 28.5049 14.8828C28.8434 14.7591 29.2357 14.6973 29.6816 14.6973C30.1243 14.6973 30.484 14.7493 30.7607 14.8535C31.0374 14.9577 31.2409 15.0895 31.3711 15.249C31.5013 15.4053 31.5924 15.6038 31.6445 15.8447C31.6738 15.9945 31.6885 16.2646 31.6885 16.6553V17.8271C31.6885 18.6442 31.7064 19.1618 31.7422 19.3799C31.7812 19.5947 31.8561 19.8014 31.9668 20H31.0488C30.9577 19.8177 30.8991 19.6045 30.873 19.3604ZM30.7998 17.3975C30.4808 17.5277 30.0023 17.6383 29.3643 17.7295C29.0029 17.7816 28.7474 17.8402 28.5977 17.9053C28.4479 17.9704 28.3324 18.0664 28.251 18.1934C28.1696 18.3171 28.1289 18.4554 28.1289 18.6084C28.1289 18.8428 28.2168 19.0381 28.3926 19.1943C28.5716 19.3506 28.832 19.4287 29.1738 19.4287C29.5124 19.4287 29.8135 19.3555 30.0771 19.209C30.3408 19.0592 30.5345 18.8558 30.6582 18.5986C30.7526 18.4001 30.7998 18.1071 30.7998 17.7197V17.3975ZM33.0605 13.8525V12.8418H33.9395V13.8525H33.0605ZM33.0605 20V14.8145H33.9395V20H33.0605ZM35.2822 20V14.8145H36.0732V15.5518C36.4541 14.9821 37.0042 14.6973 37.7236 14.6973C38.0361 14.6973 38.3226 14.7542 38.583 14.8682C38.8467 14.9788 39.0436 15.1253 39.1738 15.3076C39.304 15.4899 39.3952 15.7064 39.4473 15.957C39.4798 16.1198 39.4961 16.4046 39.4961 16.8115V20H38.6172V16.8457C38.6172 16.4876 38.583 16.2207 38.5146 16.0449C38.4463 15.8659 38.3242 15.7243 38.1484 15.6201C37.9759 15.5127 37.7725 15.459 37.5381 15.459C37.1637 15.459 36.8398 15.5778 36.5664 15.8154C36.2962 16.0531 36.1611 16.5039 36.1611 17.168V20H35.2822ZM48.4414 12.8418H49.3887V16.9775C49.3887 17.6969 49.3073 18.2682 49.1445 18.6914C48.9818 19.1146 48.6872 19.4596 48.2607 19.7266C47.8376 19.9902 47.2809 20.1221 46.5908 20.1221C45.9202 20.1221 45.3717 20.0065 44.9453 19.7754C44.5189 19.5443 44.2145 19.2106 44.0322 18.7744C43.8499 18.335 43.7588 17.736 43.7588 16.9775V12.8418H44.7061V16.9727C44.7061 17.5944 44.763 18.0534 44.877 18.3496C44.9941 18.6426 45.1927 18.8688 45.4727 19.0283C45.7559 19.1878 46.1009 19.2676 46.5078 19.2676C47.2044 19.2676 47.7008 19.1097 47.9971 18.7939C48.2933 18.4782 48.4414 17.8711 48.4414 16.9727V12.8418ZM50.6484 17.7002L51.542 17.6221C51.5843 17.9801 51.682 18.2747 51.835 18.5059C51.9912 18.7337 52.2321 18.9193 52.5576 19.0625C52.8831 19.2025 53.2493 19.2725 53.6562 19.2725C54.0176 19.2725 54.3366 19.2188 54.6133 19.1113C54.89 19.0039 55.0951 18.8574 55.2285 18.6719C55.3652 18.4831 55.4336 18.278 55.4336 18.0566C55.4336 17.832 55.3685 17.6367 55.2383 17.4707C55.1081 17.3014 54.8932 17.1598 54.5938 17.0459C54.4017 16.971 53.9769 16.8555 53.3193 16.6992C52.6618 16.5397 52.2012 16.39 51.9375 16.25C51.5957 16.071 51.3402 15.8496 51.1709 15.5859C51.0049 15.319 50.9219 15.0212 50.9219 14.6924C50.9219 14.3311 51.0244 13.9941 51.2295 13.6816C51.4346 13.3659 51.734 13.1266 52.1279 12.9639C52.5218 12.8011 52.9596 12.7197 53.4414 12.7197C53.972 12.7197 54.4391 12.806 54.8428 12.9785C55.2497 13.1478 55.5622 13.3984 55.7803 13.7305C55.9984 14.0625 56.1156 14.4385 56.1318 14.8584L55.2236 14.9268C55.1748 14.4743 55.0088 14.1325 54.7256 13.9014C54.4456 13.6702 54.0306 13.5547 53.4805 13.5547C52.9076 13.5547 52.4893 13.6605 52.2256 13.8721C51.9652 14.0804 51.835 14.3327 51.835 14.6289C51.835 14.8861 51.9277 15.0977 52.1133 15.2637C52.2956 15.4297 52.7708 15.6006 53.5391 15.7764C54.3105 15.9489 54.8395 16.1003 55.126 16.2305C55.5426 16.4225 55.8503 16.6667 56.0488 16.9629C56.2474 17.2559 56.3467 17.5944 56.3467 17.9785C56.3467 18.3594 56.2376 18.7191 56.0195 19.0576C55.8014 19.3929 55.4873 19.6549 55.0771 19.8438C54.6702 20.0293 54.2113 20.1221 53.7002 20.1221C53.0524 20.1221 52.5088 20.0277 52.0693 19.8389C51.6331 19.6501 51.2897 19.3669 51.0391 18.9893C50.7917 18.6084 50.6615 18.1787 50.6484 17.7002ZM57.6406 20V12.8418H60.1064C60.6631 12.8418 61.0879 12.876 61.3809 12.9443C61.791 13.0387 62.141 13.2096 62.4307 13.457C62.8083 13.776 63.0898 14.1846 63.2754 14.6826C63.4642 15.1774 63.5586 15.7438 63.5586 16.3818C63.5586 16.9255 63.4951 17.4072 63.3682 17.8271C63.2412 18.2471 63.0785 18.5954 62.8799 18.8721C62.6813 19.1455 62.4632 19.362 62.2256 19.5215C61.9912 19.6777 61.7064 19.7965 61.3711 19.8779C61.0391 19.9593 60.6566 20 60.2236 20H57.6406ZM58.5879 19.1553H60.1162C60.5882 19.1553 60.9577 19.1113 61.2246 19.0234C61.4948 18.9355 61.7096 18.8118 61.8691 18.6523C62.0938 18.4277 62.2679 18.1266 62.3916 17.749C62.5186 17.3682 62.582 16.9076 62.582 16.3672C62.582 15.6185 62.4583 15.0439 62.2109 14.6436C61.9668 14.2399 61.6689 13.9697 61.3174 13.833C61.0635 13.7354 60.6549 13.6865 60.0918 13.6865H58.5879V19.1553ZM66.3076 20L69.0566 12.8418H70.0771L73.0068 20H71.9277L71.0928 17.832H68.0996L67.3135 20H66.3076ZM68.373 17.0605H70.7998L70.0527 15.0781C69.8249 14.4759 69.6556 13.9811 69.5449 13.5938C69.4538 14.0527 69.3252 14.5085 69.1592 14.9609L68.373 17.0605ZM77.0352 18.1006L77.8994 18.2129C77.805 18.8086 77.5625 19.2757 77.1719 19.6143C76.7845 19.9495 76.3076 20.1172 75.7412 20.1172C75.0316 20.1172 74.4603 19.8861 74.0273 19.4238C73.5977 18.9583 73.3828 18.2926 73.3828 17.4268C73.3828 16.8669 73.4756 16.377 73.6611 15.957C73.8467 15.5371 74.1283 15.223 74.5059 15.0146C74.8867 14.8031 75.3001 14.6973 75.7461 14.6973C76.3092 14.6973 76.7699 14.8405 77.1279 15.127C77.486 15.4102 77.7155 15.8138 77.8164 16.3379L76.9619 16.4697C76.8805 16.1214 76.7357 15.8594 76.5273 15.6836C76.3223 15.5078 76.0732 15.4199 75.7803 15.4199C75.3376 15.4199 74.9779 15.5794 74.7012 15.8984C74.4245 16.2142 74.2861 16.7155 74.2861 17.4023C74.2861 18.099 74.4196 18.6051 74.6865 18.9209C74.9535 19.2367 75.3018 19.3945 75.7314 19.3945C76.0765 19.3945 76.3646 19.2887 76.5957 19.0771C76.8268 18.8656 76.9733 18.54 77.0352 18.1006ZM82.0352 18.1006L82.8994 18.2129C82.805 18.8086 82.5625 19.2757 82.1719 19.6143C81.7845 19.9495 81.3076 20.1172 80.7412 20.1172C80.0316 20.1172 79.4603 19.8861 79.0273 19.4238C78.5977 18.9583 78.3828 18.2926 78.3828 17.4268C78.3828 16.8669 78.4756 16.377 78.6611 15.957C78.8467 15.5371 79.1283 15.223 79.5059 15.0146C79.8867 14.8031 80.3001 14.6973 80.7461 14.6973C81.3092 14.6973 81.7699 14.8405 82.1279 15.127C82.486 15.4102 82.7155 15.8138 82.8164 16.3379L81.9619 16.4697C81.8805 16.1214 81.7357 15.8594 81.5273 15.6836C81.3223 15.5078 81.0732 15.4199 80.7803 15.4199C80.3376 15.4199 79.9779 15.5794 79.7012 15.8984C79.4245 16.2142 79.2861 16.7155 79.2861 17.4023C79.2861 18.099 79.4196 18.6051 79.6865 18.9209C79.9535 19.2367 80.3018 19.3945 80.7314 19.3945C81.0765 19.3945 81.3646 19.2887 81.5957 19.0771C81.8268 18.8656 81.9733 18.54 82.0352 18.1006ZM83.3242 17.4072C83.3242 16.4469 83.5911 15.7357 84.125 15.2734C84.571 14.8893 85.1146 14.6973 85.7559 14.6973C86.4688 14.6973 87.0514 14.9316 87.5039 15.4004C87.9564 15.8659 88.1826 16.5104 88.1826 17.334C88.1826 18.0013 88.0817 18.527 87.8799 18.9111C87.6813 19.292 87.39 19.5882 87.0059 19.7998C86.625 20.0114 86.2083 20.1172 85.7559 20.1172C85.0299 20.1172 84.4424 19.8844 83.9932 19.4189C83.5472 18.9535 83.3242 18.2829 83.3242 17.4072ZM84.2275 17.4072C84.2275 18.0713 84.3724 18.5693 84.6621 18.9014C84.9518 19.2301 85.3164 19.3945 85.7559 19.3945C86.1921 19.3945 86.555 19.2285 86.8447 18.8965C87.1344 18.5645 87.2793 18.0583 87.2793 17.3779C87.2793 16.7367 87.1328 16.2516 86.8398 15.9229C86.5501 15.5908 86.1888 15.4248 85.7559 15.4248C85.3164 15.4248 84.9518 15.5892 84.6621 15.918C84.3724 16.2467 84.2275 16.7432 84.2275 17.4072ZM92.6162 20V19.2383C92.2126 19.8242 91.6641 20.1172 90.9707 20.1172C90.6647 20.1172 90.3783 20.0586 90.1113 19.9414C89.8477 19.8242 89.6507 19.6777 89.5205 19.502C89.3936 19.3229 89.304 19.1048 89.252 18.8477C89.2161 18.6751 89.1982 18.4017 89.1982 18.0273V14.8145H90.0771V17.6904C90.0771 18.1494 90.0951 18.4587 90.1309 18.6182C90.1862 18.8493 90.3034 19.0316 90.4824 19.165C90.6615 19.2952 90.8828 19.3604 91.1465 19.3604C91.4102 19.3604 91.6576 19.2936 91.8887 19.1602C92.1198 19.0234 92.2826 18.8395 92.377 18.6084C92.4746 18.374 92.5234 18.0355 92.5234 17.5928V14.8145H93.4023V20H92.6162ZM94.7842 20V14.8145H95.5752V15.5518C95.9561 14.9821 96.5062 14.6973 97.2256 14.6973C97.5381 14.6973 97.8245 14.7542 98.085 14.8682C98.3486 14.9788 98.5456 15.1253 98.6758 15.3076C98.806 15.4899 98.8971 15.7064 98.9492 15.957C98.9818 16.1198 98.998 16.4046 98.998 16.8115V20H98.1191V16.8457C98.1191 16.4876 98.085 16.2207 98.0166 16.0449C97.9482 15.8659 97.8262 15.7243 97.6504 15.6201C97.4779 15.5127 97.2744 15.459 97.04 15.459C96.6657 15.459 96.3418 15.5778 96.0684 15.8154C95.7982 16.0531 95.6631 16.5039 95.6631 17.168V20H94.7842ZM102.27 19.2139L102.396 19.9902C102.149 20.0423 101.928 20.0684 101.732 20.0684C101.413 20.0684 101.166 20.0179 100.99 19.917C100.814 19.8161 100.691 19.6842 100.619 19.5215C100.548 19.3555 100.512 19.0088 100.512 18.4814V15.498H99.8672V14.8145H100.512V13.5303L101.386 13.0029V14.8145H102.27V15.498H101.386V18.5303C101.386 18.7809 101.4 18.9421 101.43 19.0137C101.462 19.0853 101.513 19.1423 101.581 19.1846C101.653 19.2269 101.754 19.248 101.884 19.248C101.981 19.248 102.11 19.2367 102.27 19.2139Z" fill="white"/>
<path d="M112.5 16.5C112.5 13.1863 115.186 10.5 118.5 10.5C121.814 10.5 124.5 13.1863 124.5 16.5C124.5 19.8137 121.814 22.5 118.5 22.5C115.186 22.5 112.5 19.8137 112.5 16.5Z" fill="#111111"/>
<mask id="path-4-inside-1_1_70" fill="white">
<path d="M122.5 15.5L118.5 19.5L114.5 15.5"/>
</mask>
<path d="M118.5 19.5L117.793 20.2071L118.5 20.9142L119.207 20.2071L118.5 19.5ZM122.5 15.5L121.793 14.7929L117.793 18.7929L118.5 19.5L119.207 20.2071L123.207 16.2071L122.5 15.5ZM118.5 19.5L119.207 18.7929L115.207 14.7929L114.5 15.5L113.793 16.2071L117.793 20.2071L118.5 19.5Z" fill="white" mask="url(#path-4-inside-1_1_70)"/>
<defs>
<linearGradient id="paint0_linear_1_70" x1="45.038" y1="-44" x2="96.2126" y2="79.9938" gradientUnits="userSpaceOnUse">
<stop stop-color="#767676"/>
<stop offset="0.490038" stop-color="#0B0B0B" stop-opacity="0.26"/>
<stop offset="1" stop-color="#767676"/>
</linearGradient>
</defs>
</svg>
