<svg width="72" height="26" viewBox="0 0 72 26" fill="none" xmlns="http://www.w3.org/2000/svg">
<path d="M0.878906 10V1.41016H4.10156C4.75781 1.41016 5.2832 1.49805 5.67773 1.67383C6.07617 1.8457 6.38672 2.11328 6.60938 2.47656C6.83594 2.83594 6.94922 3.21289 6.94922 3.60742C6.94922 3.97461 6.84961 4.32031 6.65039 4.64453C6.45117 4.96875 6.15039 5.23047 5.74805 5.42969C6.26758 5.58203 6.66602 5.8418 6.94336 6.20898C7.22461 6.57617 7.36523 7.00977 7.36523 7.50977C7.36523 7.91211 7.2793 8.28711 7.10742 8.63477C6.93945 8.97852 6.73047 9.24414 6.48047 9.43164C6.23047 9.61914 5.91602 9.76172 5.53711 9.85938C5.16211 9.95312 4.70117 10 4.1543 10H0.878906ZM2.01562 5.01953H3.87305C4.37695 5.01953 4.73828 4.98633 4.95703 4.91992C5.24609 4.83398 5.46289 4.69141 5.60742 4.49219C5.75586 4.29297 5.83008 4.04297 5.83008 3.74219C5.83008 3.45703 5.76172 3.20703 5.625 2.99219C5.48828 2.77344 5.29297 2.625 5.03906 2.54688C4.78516 2.46484 4.34961 2.42383 3.73242 2.42383H2.01562V5.01953ZM2.01562 8.98633H4.1543C4.52148 8.98633 4.7793 8.97266 4.92773 8.94531C5.18945 8.89844 5.4082 8.82031 5.58398 8.71094C5.75977 8.60156 5.9043 8.44336 6.01758 8.23633C6.13086 8.02539 6.1875 7.7832 6.1875 7.50977C6.1875 7.18945 6.10547 6.91211 5.94141 6.67773C5.77734 6.43945 5.54883 6.27344 5.25586 6.17969C4.9668 6.08203 4.54883 6.0332 4.00195 6.0332H2.01562V8.98633ZM12.8555 9.23242C12.4648 9.56445 12.0879 9.79883 11.7246 9.93555C11.3652 10.0723 10.9785 10.1406 10.5645 10.1406C9.88086 10.1406 9.35547 9.97461 8.98828 9.64258C8.62109 9.30664 8.4375 8.87891 8.4375 8.35938C8.4375 8.05469 8.50586 7.77734 8.64258 7.52734C8.7832 7.27344 8.96484 7.07031 9.1875 6.91797C9.41406 6.76562 9.66797 6.65039 9.94922 6.57227C10.1562 6.51758 10.4688 6.46484 10.8867 6.41406C11.7383 6.3125 12.3652 6.19141 12.7676 6.05078C12.7715 5.90625 12.7734 5.81445 12.7734 5.77539C12.7734 5.3457 12.6738 5.04297 12.4746 4.86719C12.2051 4.62891 11.8047 4.50977 11.2734 4.50977C10.7773 4.50977 10.4102 4.59766 10.1719 4.77344C9.9375 4.94531 9.76367 5.25195 9.65039 5.69336L8.61914 5.55273C8.71289 5.11133 8.86719 4.75586 9.08203 4.48633C9.29688 4.21289 9.60742 4.00391 10.0137 3.85938C10.4199 3.71094 10.8906 3.63672 11.4258 3.63672C11.957 3.63672 12.3887 3.69922 12.7207 3.82422C13.0527 3.94922 13.2969 4.10742 13.4531 4.29883C13.6094 4.48633 13.7188 4.72461 13.7812 5.01367C13.8164 5.19336 13.834 5.51758 13.834 5.98633V7.39258C13.834 8.37305 13.8555 8.99414 13.8984 9.25586C13.9453 9.51367 14.0352 9.76172 14.168 10H13.0664C12.957 9.78125 12.8867 9.52539 12.8555 9.23242ZM12.7676 6.87695C12.3848 7.0332 11.8105 7.16602 11.0449 7.27539C10.6113 7.33789 10.3047 7.4082 10.125 7.48633C9.94531 7.56445 9.80664 7.67969 9.70898 7.83203C9.61133 7.98047 9.5625 8.14648 9.5625 8.33008C9.5625 8.61133 9.66797 8.8457 9.87891 9.0332C10.0938 9.2207 10.4062 9.31445 10.8164 9.31445C11.2227 9.31445 11.584 9.22656 11.9004 9.05078C12.2168 8.87109 12.4492 8.62695 12.5977 8.31836C12.7109 8.08008 12.7676 7.72852 12.7676 7.26367V6.87695ZM15.4512 10V1.41016H16.5059V10H15.4512ZM22.207 9.23242C21.8164 9.56445 21.4395 9.79883 21.0762 9.93555C20.7168 10.0723 20.3301 10.1406 19.916 10.1406C19.2324 10.1406 18.707 9.97461 18.3398 9.64258C17.9727 9.30664 17.7891 8.87891 17.7891 8.35938C17.7891 8.05469 17.8574 7.77734 17.9941 7.52734C18.1348 7.27344 18.3164 7.07031 18.5391 6.91797C18.7656 6.76562 19.0195 6.65039 19.3008 6.57227C19.5078 6.51758 19.8203 6.46484 20.2383 6.41406C21.0898 6.3125 21.7168 6.19141 22.1191 6.05078C22.123 5.90625 22.125 5.81445 22.125 5.77539C22.125 5.3457 22.0254 5.04297 21.8262 4.86719C21.5566 4.62891 21.1562 4.50977 20.625 4.50977C20.1289 4.50977 19.7617 4.59766 19.5234 4.77344C19.2891 4.94531 19.1152 5.25195 19.002 5.69336L17.9707 5.55273C18.0645 5.11133 18.2188 4.75586 18.4336 4.48633C18.6484 4.21289 18.959 4.00391 19.3652 3.85938C19.7715 3.71094 20.2422 3.63672 20.7773 3.63672C21.3086 3.63672 21.7402 3.69922 22.0723 3.82422C22.4043 3.94922 22.6484 4.10742 22.8047 4.29883C22.9609 4.48633 23.0703 4.72461 23.1328 5.01367C23.168 5.19336 23.1855 5.51758 23.1855 5.98633V7.39258C23.1855 8.37305 23.207 8.99414 23.25 9.25586C23.2969 9.51367 23.3867 9.76172 23.5195 10H22.418C22.3086 9.78125 22.2383 9.52539 22.207 9.23242ZM22.1191 6.87695C21.7363 7.0332 21.1621 7.16602 20.3965 7.27539C19.9629 7.33789 19.6562 7.4082 19.4766 7.48633C19.2969 7.56445 19.1582 7.67969 19.0605 7.83203C18.9629 7.98047 18.9141 8.14648 18.9141 8.33008C18.9141 8.61133 19.0195 8.8457 19.2305 9.0332C19.4453 9.2207 19.7578 9.31445 20.168 9.31445C20.5742 9.31445 20.9355 9.22656 21.252 9.05078C21.5684 8.87109 21.8008 8.62695 21.9492 8.31836C22.0625 8.08008 22.1191 7.72852 22.1191 7.26367V6.87695ZM24.8262 10V3.77734H25.7754V4.66211C26.2324 3.97852 26.8926 3.63672 27.7559 3.63672C28.1309 3.63672 28.4746 3.70508 28.7871 3.8418C29.1035 3.97461 29.3398 4.15039 29.4961 4.36914C29.6523 4.58789 29.7617 4.84766 29.8242 5.14844C29.8633 5.34375 29.8828 5.68555 29.8828 6.17383V10H28.8281V6.21484C28.8281 5.78516 28.7871 5.46484 28.7051 5.25391C28.623 5.03906 28.4766 4.86914 28.2656 4.74414C28.0586 4.61523 27.8145 4.55078 27.5332 4.55078C27.084 4.55078 26.6953 4.69336 26.3672 4.97852C26.043 5.26367 25.8809 5.80469 25.8809 6.60156V10H24.8262ZM35.5664 7.7207L36.6035 7.85547C36.4902 8.57031 36.1992 9.13086 35.7305 9.53711C35.2656 9.93945 34.6934 10.1406 34.0137 10.1406C33.1621 10.1406 32.4766 9.86328 31.957 9.30859C31.4414 8.75 31.1836 7.95117 31.1836 6.91211C31.1836 6.24023 31.2949 5.65234 31.5176 5.14844C31.7402 4.64453 32.0781 4.26758 32.5312 4.01758C32.9883 3.76367 33.4844 3.63672 34.0195 3.63672C34.6953 3.63672 35.248 3.80859 35.6777 4.15234C36.1074 4.49219 36.3828 4.97656 36.5039 5.60547L35.4785 5.76367C35.3809 5.3457 35.207 5.03125 34.957 4.82031C34.7109 4.60938 34.4121 4.50391 34.0605 4.50391C33.5293 4.50391 33.0977 4.69531 32.7656 5.07812C32.4336 5.45703 32.2676 6.05859 32.2676 6.88281C32.2676 7.71875 32.4277 8.32617 32.748 8.70508C33.0684 9.08398 33.4863 9.27344 34.002 9.27344C34.416 9.27344 34.7617 9.14648 35.0391 8.89258C35.3164 8.63867 35.4922 8.24805 35.5664 7.7207ZM41.7656 7.99609L42.8555 8.13086C42.6836 8.76758 42.3652 9.26172 41.9004 9.61328C41.4355 9.96484 40.8418 10.1406 40.1191 10.1406C39.209 10.1406 38.4863 9.86133 37.9512 9.30273C37.4199 8.74023 37.1543 7.95312 37.1543 6.94141C37.1543 5.89453 37.4238 5.08203 37.9629 4.50391C38.502 3.92578 39.2012 3.63672 40.0605 3.63672C40.8926 3.63672 41.5723 3.91992 42.0996 4.48633C42.627 5.05273 42.8906 5.84961 42.8906 6.87695C42.8906 6.93945 42.8887 7.0332 42.8848 7.1582H38.2441C38.2832 7.8418 38.4766 8.36523 38.8242 8.72852C39.1719 9.0918 39.6055 9.27344 40.125 9.27344C40.5117 9.27344 40.8418 9.17188 41.1152 8.96875C41.3887 8.76562 41.6055 8.44141 41.7656 7.99609ZM38.3027 6.29102H41.7773C41.7305 5.76758 41.5977 5.375 41.3789 5.11328C41.043 4.70703 40.6074 4.50391 40.0723 4.50391C39.5879 4.50391 39.1797 4.66602 38.8477 4.99023C38.5195 5.31445 38.3379 5.74805 38.3027 6.29102Z" fill="url(#paint0_linear_1_41)"/>
<path d="M2.86523 22.7285V20.2734C2.09961 20.0547 1.53711 19.7246 1.17773 19.2832C0.822266 18.8379 0.644531 18.2988 0.644531 17.666C0.644531 17.0254 0.845703 16.4883 1.24805 16.0547C1.6543 15.6172 2.19336 15.3652 2.86523 15.2988V14.7188H3.71484V15.2988C4.33594 15.373 4.83008 15.5859 5.19727 15.9375C5.56445 16.2852 5.79883 16.752 5.90039 17.3379L4.41797 17.5312C4.32812 17.0703 4.09375 16.7578 3.71484 16.5938V18.8848C4.65234 19.1387 5.29102 19.4688 5.63086 19.875C5.9707 20.2773 6.14062 20.7949 6.14062 21.4277C6.14062 22.1348 5.92578 22.7305 5.49609 23.2148C5.07031 23.6992 4.47656 23.9961 3.71484 24.1055V25.2012H2.86523V24.1348C2.18945 24.0527 1.64062 23.8008 1.21875 23.3789C0.796875 22.957 0.527344 22.3613 0.410156 21.5918L1.93945 21.4277C2.00195 21.7402 2.11914 22.0098 2.29102 22.2363C2.46289 22.4629 2.6543 22.627 2.86523 22.7285ZM2.86523 16.5762C2.63477 16.6543 2.45117 16.7871 2.31445 16.9746C2.17773 17.1621 2.10938 17.3691 2.10938 17.5957C2.10938 17.8027 2.17188 17.9961 2.29688 18.1758C2.42188 18.3516 2.61133 18.4941 2.86523 18.6035V16.5762ZM3.71484 22.8105C4.00781 22.7559 4.24609 22.6211 4.42969 22.4062C4.61328 22.1875 4.70508 21.9316 4.70508 21.6387C4.70508 21.377 4.62695 21.1523 4.4707 20.9648C4.31836 20.7734 4.06641 20.627 3.71484 20.5254V22.8105ZM11.4023 24H9.75586V17.7949C9.1543 18.3574 8.44531 18.7734 7.62891 19.043V17.5488C8.05859 17.4082 8.52539 17.1426 9.0293 16.752C9.5332 16.3574 9.87891 15.8984 10.0664 15.375H11.4023V24ZM16.6523 15.375C17.4844 15.375 18.1348 15.6719 18.6035 16.2656C19.1621 16.9688 19.4414 18.1348 19.4414 19.7637C19.4414 21.3887 19.1602 22.5566 18.5977 23.2676C18.1328 23.8535 17.4844 24.1465 16.6523 24.1465C15.8164 24.1465 15.1426 23.8262 14.6309 23.1855C14.1191 22.541 13.8633 21.3945 13.8633 19.7461C13.8633 18.1289 14.1445 16.9648 14.707 16.2539C15.1719 15.668 15.8203 15.375 16.6523 15.375ZM16.6523 16.7402C16.4531 16.7402 16.2754 16.8047 16.1191 16.9336C15.9629 17.0586 15.8418 17.2852 15.7559 17.6133C15.6426 18.0391 15.5859 18.7559 15.5859 19.7637C15.5859 20.7715 15.6367 21.4648 15.7383 21.8438C15.8398 22.2188 15.9668 22.4688 16.1191 22.5938C16.2754 22.7188 16.4531 22.7812 16.6523 22.7812C16.8516 22.7812 17.0293 22.7188 17.1855 22.5938C17.3418 22.4648 17.4629 22.2363 17.5488 21.9082C17.6621 21.4863 17.7188 20.7715 17.7188 19.7637C17.7188 18.7559 17.668 18.0645 17.5664 17.6895C17.4648 17.3105 17.3359 17.0586 17.1797 16.9336C17.0273 16.8047 16.8516 16.7402 16.6523 16.7402ZM20.8594 22.3535H22.5059V23.5312C22.5059 24.0078 22.4648 24.3828 22.3828 24.6562C22.3008 24.9336 22.1445 25.1816 21.9141 25.4004C21.6875 25.6191 21.3984 25.791 21.0469 25.916L20.7246 25.2363C21.0566 25.127 21.293 24.9766 21.4336 24.7852C21.5742 24.5938 21.6484 24.332 21.6562 24H20.8594V22.3535ZM23.9121 21.791L25.5527 21.6211C25.5996 21.9922 25.7383 22.2871 25.9688 22.5059C26.1992 22.7207 26.4648 22.8281 26.7656 22.8281C27.1094 22.8281 27.4004 22.6895 27.6387 22.4121C27.877 22.1309 27.9961 21.709 27.9961 21.1465C27.9961 20.6191 27.877 20.2246 27.6387 19.9629C27.4043 19.6973 27.0977 19.5645 26.7188 19.5645C26.2461 19.5645 25.8223 19.7734 25.4473 20.1914L24.1113 19.998L24.9551 15.5273H29.3086V17.0684H26.2031L25.9453 18.5273C26.3125 18.3438 26.6875 18.252 27.0703 18.252C27.8008 18.252 28.4199 18.5176 28.9277 19.0488C29.4355 19.5801 29.6895 20.2695 29.6895 21.1172C29.6895 21.8242 29.4844 22.4551 29.0742 23.0098C28.5156 23.7676 27.7402 24.1465 26.748 24.1465C25.9551 24.1465 25.3086 23.9336 24.8086 23.5078C24.3086 23.082 24.0098 22.5098 23.9121 21.791ZM33.3516 15.375C34.1836 15.375 34.834 15.6719 35.3027 16.2656C35.8613 16.9688 36.1406 18.1348 36.1406 19.7637C36.1406 21.3887 35.8594 22.5566 35.2969 23.2676C34.832 23.8535 34.1836 24.1465 33.3516 24.1465C32.5156 24.1465 31.8418 23.8262 31.3301 23.1855C30.8184 22.541 30.5625 21.3945 30.5625 19.7461C30.5625 18.1289 30.8438 16.9648 31.4062 16.2539C31.8711 15.668 32.5195 15.375 33.3516 15.375ZM33.3516 16.7402C33.1523 16.7402 32.9746 16.8047 32.8184 16.9336C32.6621 17.0586 32.541 17.2852 32.4551 17.6133C32.3418 18.0391 32.2852 18.7559 32.2852 19.7637C32.2852 20.7715 32.3359 21.4648 32.4375 21.8438C32.5391 22.2188 32.666 22.4688 32.8184 22.5938C32.9746 22.7188 33.1523 22.7812 33.3516 22.7812C33.5508 22.7812 33.7285 22.7188 33.8848 22.5938C34.041 22.4648 34.1621 22.2363 34.248 21.9082C34.3613 21.4863 34.418 20.7715 34.418 19.7637C34.418 18.7559 34.3672 18.0645 34.2656 17.6895C34.1641 17.3105 34.0352 17.0586 33.8789 16.9336C33.7266 16.8047 33.5508 16.7402 33.3516 16.7402ZM40.0312 15.375C40.8633 15.375 41.5137 15.6719 41.9824 16.2656C42.541 16.9688 42.8203 18.1348 42.8203 19.7637C42.8203 21.3887 42.5391 22.5566 41.9766 23.2676C41.5117 23.8535 40.8633 24.1465 40.0312 24.1465C39.1953 24.1465 38.5215 23.8262 38.0098 23.1855C37.498 22.541 37.2422 21.3945 37.2422 19.7461C37.2422 18.1289 37.5234 16.9648 38.0859 16.2539C38.5508 15.668 39.1992 15.375 40.0312 15.375ZM40.0312 16.7402C39.832 16.7402 39.6543 16.8047 39.498 16.9336C39.3418 17.0586 39.2207 17.2852 39.1348 17.6133C39.0215 18.0391 38.9648 18.7559 38.9648 19.7637C38.9648 20.7715 39.0156 21.4648 39.1172 21.8438C39.2188 22.2188 39.3457 22.4688 39.498 22.5938C39.6543 22.7188 39.832 22.7812 40.0312 22.7812C40.2305 22.7812 40.4082 22.7188 40.5645 22.5938C40.7207 22.4648 40.8418 22.2363 40.9277 21.9082C41.041 21.4863 41.0977 20.7715 41.0977 19.7637C41.0977 18.7559 41.0469 18.0645 40.9453 17.6895C40.8438 17.3105 40.7148 17.0586 40.5586 16.9336C40.4062 16.8047 40.2305 16.7402 40.0312 16.7402ZM44.2793 24V22.3535H45.9258V24H44.2793ZM50.0508 15.375C50.8828 15.375 51.5332 15.6719 52.002 16.2656C52.5605 16.9688 52.8398 18.1348 52.8398 19.7637C52.8398 21.3887 52.5586 22.5566 51.9961 23.2676C51.5312 23.8535 50.8828 24.1465 50.0508 24.1465C49.2148 24.1465 48.541 23.8262 48.0293 23.1855C47.5176 22.541 47.2617 21.3945 47.2617 19.7461C47.2617 18.1289 47.543 16.9648 48.1055 16.2539C48.5703 15.668 49.2188 15.375 50.0508 15.375ZM50.0508 16.7402C49.8516 16.7402 49.6738 16.8047 49.5176 16.9336C49.3613 17.0586 49.2402 17.2852 49.1543 17.6133C49.041 18.0391 48.9844 18.7559 48.9844 19.7637C48.9844 20.7715 49.0352 21.4648 49.1367 21.8438C49.2383 22.2188 49.3652 22.4688 49.5176 22.5938C49.6738 22.7188 49.8516 22.7812 50.0508 22.7812C50.25 22.7812 50.4277 22.7188 50.584 22.5938C50.7402 22.4648 50.8613 22.2363 50.9473 21.9082C51.0605 21.4863 51.1172 20.7715 51.1172 19.7637C51.1172 18.7559 51.0664 18.0645 50.9648 17.6895C50.8633 17.3105 50.7344 17.0586 50.5781 16.9336C50.4258 16.8047 50.25 16.7402 50.0508 16.7402ZM56.7305 15.375C57.5625 15.375 58.2129 15.6719 58.6816 16.2656C59.2402 16.9688 59.5195 18.1348 59.5195 19.7637C59.5195 21.3887 59.2383 22.5566 58.6758 23.2676C58.2109 23.8535 57.5625 24.1465 56.7305 24.1465C55.8945 24.1465 55.2207 23.8262 54.709 23.1855C54.1973 22.541 53.9414 21.3945 53.9414 19.7461C53.9414 18.1289 54.2227 16.9648 54.7852 16.2539C55.25 15.668 55.8984 15.375 56.7305 15.375ZM56.7305 16.7402C56.5312 16.7402 56.3535 16.8047 56.1973 16.9336C56.041 17.0586 55.9199 17.2852 55.834 17.6133C55.7207 18.0391 55.6641 18.7559 55.6641 19.7637C55.6641 20.7715 55.7148 21.4648 55.8164 21.8438C55.918 22.2188 56.0449 22.4688 56.1973 22.5938C56.3535 22.7188 56.5312 22.7812 56.7305 22.7812C56.9297 22.7812 57.1074 22.7188 57.2637 22.5938C57.4199 22.4648 57.541 22.2363 57.627 21.9082C57.7402 21.4863 57.7969 20.7715 57.7969 19.7637C57.7969 18.7559 57.7461 18.0645 57.6445 17.6895C57.543 17.3105 57.4141 17.0586 57.2578 16.9336C57.1055 16.8047 56.9297 16.7402 56.7305 16.7402Z" fill="white"/>
<defs>
<linearGradient id="paint0_linear_1_41" x1="36" y1="0" x2="36" y2="12" gradientUnits="userSpaceOnUse">
<stop stop-color="white"/>
<stop offset="1" stop-color="#767676"/>
</linearGradient>
</defs>
</svg>
