<svg width="64" height="26" viewBox="0 0 64 26" fill="none" xmlns="http://www.w3.org/2000/svg">
<path d="M0.949219 10V1.41016H7.16016V2.42383H2.08594V5.05469H6.83789V6.0625H2.08594V8.98633H7.35938V10H0.949219ZM12.7617 12.3848V9.33789C12.5977 9.56836 12.3672 9.75977 12.0703 9.91211C11.7773 10.0645 11.4648 10.1406 11.1328 10.1406C10.3945 10.1406 9.75781 9.8457 9.22266 9.25586C8.69141 8.66602 8.42578 7.85742 8.42578 6.83008C8.42578 6.20508 8.5332 5.64453 8.74805 5.14844C8.9668 4.65234 9.28125 4.27734 9.69141 4.02344C10.1055 3.76562 10.5586 3.63672 11.0508 3.63672C11.8203 3.63672 12.4258 3.96094 12.8672 4.60938V3.77734H13.8164V12.3848H12.7617ZM9.50977 6.87109C9.50977 7.67188 9.67773 8.27344 10.0137 8.67578C10.3496 9.07422 10.752 9.27344 11.2207 9.27344C11.6699 9.27344 12.0566 9.08398 12.3809 8.70508C12.7051 8.32227 12.8672 7.74219 12.8672 6.96484C12.8672 6.13672 12.6953 5.51367 12.3516 5.0957C12.0117 4.67773 11.6113 4.46875 11.1504 4.46875C10.6934 4.46875 10.3047 4.66406 9.98438 5.05469C9.66797 5.44141 9.50977 6.04688 9.50977 6.87109ZM19.5527 10V9.08594C19.0684 9.78906 18.4102 10.1406 17.5781 10.1406C17.2109 10.1406 16.8672 10.0703 16.5469 9.92969C16.2305 9.78906 15.9941 9.61328 15.8379 9.40234C15.6855 9.1875 15.5781 8.92578 15.5156 8.61719C15.4727 8.41016 15.4512 8.08203 15.4512 7.63281V3.77734H16.5059V7.22852C16.5059 7.7793 16.5273 8.15039 16.5703 8.3418C16.6367 8.61914 16.7773 8.83789 16.9922 8.99805C17.207 9.1543 17.4727 9.23242 17.7891 9.23242C18.1055 9.23242 18.4023 9.15234 18.6797 8.99219C18.957 8.82812 19.1523 8.60742 19.2656 8.33008C19.3828 8.04883 19.4414 7.64258 19.4414 7.11133V3.77734H20.4961V10H19.5527ZM22.1602 2.62305V1.41016H23.2148V2.62305H22.1602ZM22.1602 10V3.77734H23.2148V10H22.1602ZM27.1289 9.05664L27.2812 9.98828C26.9844 10.0508 26.7188 10.082 26.4844 10.082C26.1016 10.082 25.8047 10.0215 25.5938 9.90039C25.3828 9.7793 25.2344 9.62109 25.1484 9.42578C25.0625 9.22656 25.0195 8.81055 25.0195 8.17773V4.59766H24.2461V3.77734H25.0195V2.23633L26.0684 1.60352V3.77734H27.1289V4.59766H26.0684V8.23633C26.0684 8.53711 26.0859 8.73047 26.1211 8.81641C26.1602 8.90234 26.2207 8.9707 26.3027 9.02148C26.3887 9.07227 26.5098 9.09766 26.666 9.09766C26.7832 9.09766 26.9375 9.08398 27.1289 9.05664ZM28.1191 12.3965L28.002 11.4062C28.2324 11.4688 28.4336 11.5 28.6055 11.5C28.8398 11.5 29.0273 11.4609 29.168 11.3828C29.3086 11.3047 29.4238 11.1953 29.5137 11.0547C29.5801 10.9492 29.6875 10.6875 29.8359 10.2695C29.8555 10.2109 29.8867 10.125 29.9297 10.0117L27.5684 3.77734H28.7051L30 7.38086C30.168 7.83789 30.3184 8.31836 30.4512 8.82227C30.5723 8.33789 30.7168 7.86523 30.8848 7.4043L32.2148 3.77734H33.2695L30.9023 10.1055C30.6484 10.7891 30.4512 11.2598 30.3105 11.5176C30.123 11.8652 29.9082 12.1191 29.666 12.2793C29.4238 12.4434 29.1348 12.5254 28.7988 12.5254C28.5957 12.5254 28.3691 12.4824 28.1191 12.3965Z" fill="url(#paint0_linear_1_44)"/>
<path d="M2.86523 22.7285V20.2734C2.09961 20.0547 1.53711 19.7246 1.17773 19.2832C0.822266 18.8379 0.644531 18.2988 0.644531 17.666C0.644531 17.0254 0.845703 16.4883 1.24805 16.0547C1.6543 15.6172 2.19336 15.3652 2.86523 15.2988V14.7188H3.71484V15.2988C4.33594 15.373 4.83008 15.5859 5.19727 15.9375C5.56445 16.2852 5.79883 16.752 5.90039 17.3379L4.41797 17.5312C4.32812 17.0703 4.09375 16.7578 3.71484 16.5938V18.8848C4.65234 19.1387 5.29102 19.4688 5.63086 19.875C5.9707 20.2773 6.14062 20.7949 6.14062 21.4277C6.14062 22.1348 5.92578 22.7305 5.49609 23.2148C5.07031 23.6992 4.47656 23.9961 3.71484 24.1055V25.2012H2.86523V24.1348C2.18945 24.0527 1.64062 23.8008 1.21875 23.3789C0.796875 22.957 0.527344 22.3613 0.410156 21.5918L1.93945 21.4277C2.00195 21.7402 2.11914 22.0098 2.29102 22.2363C2.46289 22.4629 2.6543 22.627 2.86523 22.7285ZM2.86523 16.5762C2.63477 16.6543 2.45117 16.7871 2.31445 16.9746C2.17773 17.1621 2.10938 17.3691 2.10938 17.5957C2.10938 17.8027 2.17188 17.9961 2.29688 18.1758C2.42188 18.3516 2.61133 18.4941 2.86523 18.6035V16.5762ZM3.71484 22.8105C4.00781 22.7559 4.24609 22.6211 4.42969 22.4062C4.61328 22.1875 4.70508 21.9316 4.70508 21.6387C4.70508 21.377 4.62695 21.1523 4.4707 20.9648C4.31836 20.7734 4.06641 20.627 3.71484 20.5254V22.8105ZM11.4023 24H9.75586V17.7949C9.1543 18.3574 8.44531 18.7734 7.62891 19.043V17.5488C8.05859 17.4082 8.52539 17.1426 9.0293 16.752C9.5332 16.3574 9.87891 15.8984 10.0664 15.375H11.4023V24ZM16.6523 15.375C17.4844 15.375 18.1348 15.6719 18.6035 16.2656C19.1621 16.9688 19.4414 18.1348 19.4414 19.7637C19.4414 21.3887 19.1602 22.5566 18.5977 23.2676C18.1328 23.8535 17.4844 24.1465 16.6523 24.1465C15.8164 24.1465 15.1426 23.8262 14.6309 23.1855C14.1191 22.541 13.8633 21.3945 13.8633 19.7461C13.8633 18.1289 14.1445 16.9648 14.707 16.2539C15.1719 15.668 15.8203 15.375 16.6523 15.375ZM16.6523 16.7402C16.4531 16.7402 16.2754 16.8047 16.1191 16.9336C15.9629 17.0586 15.8418 17.2852 15.7559 17.6133C15.6426 18.0391 15.5859 18.7559 15.5859 19.7637C15.5859 20.7715 15.6367 21.4648 15.7383 21.8438C15.8398 22.2188 15.9668 22.4688 16.1191 22.5938C16.2754 22.7188 16.4531 22.7812 16.6523 22.7812C16.8516 22.7812 17.0293 22.7188 17.1855 22.5938C17.3418 22.4648 17.4629 22.2363 17.5488 21.9082C17.6621 21.4863 17.7188 20.7715 17.7188 19.7637C17.7188 18.7559 17.668 18.0645 17.5664 17.6895C17.4648 17.3105 17.3359 17.0586 17.1797 16.9336C17.0273 16.8047 16.8516 16.7402 16.6523 16.7402ZM20.8594 22.3535H22.5059V23.5312C22.5059 24.0078 22.4648 24.3828 22.3828 24.6562C22.3008 24.9336 22.1445 25.1816 21.9141 25.4004C21.6875 25.6191 21.3984 25.791 21.0469 25.916L20.7246 25.2363C21.0566 25.127 21.293 24.9766 21.4336 24.7852C21.5742 24.5938 21.6484 24.332 21.6562 24H20.8594V22.3535ZM29.4668 17.5137L27.873 17.6895C27.834 17.3613 27.7324 17.1191 27.5684 16.9629C27.4043 16.8066 27.1914 16.7285 26.9297 16.7285C26.582 16.7285 26.2871 16.8848 26.0449 17.1973C25.8066 17.5098 25.6562 18.1602 25.5938 19.1484C26.0039 18.6641 26.5137 18.4219 27.123 18.4219C27.8105 18.4219 28.3984 18.6836 28.8867 19.207C29.3789 19.7305 29.625 20.4062 29.625 21.2344C29.625 22.1133 29.3672 22.8184 28.8516 23.3496C28.3359 23.8809 27.6738 24.1465 26.8652 24.1465C25.998 24.1465 25.2852 23.8105 24.7266 23.1387C24.168 22.4629 23.8887 21.3574 23.8887 19.8223C23.8887 18.248 24.1797 17.1133 24.7617 16.418C25.3438 15.7227 26.0996 15.375 27.0293 15.375C27.6816 15.375 28.2207 15.5586 28.6465 15.9258C29.0762 16.2891 29.3496 16.8184 29.4668 17.5137ZM25.7344 21.1055C25.7344 21.6406 25.8574 22.0547 26.1035 22.3477C26.3496 22.6367 26.6309 22.7812 26.9473 22.7812C27.252 22.7812 27.5059 22.6621 27.709 22.4238C27.9121 22.1855 28.0137 21.7949 28.0137 21.252C28.0137 20.6934 27.9043 20.2852 27.6855 20.0273C27.4668 19.7656 27.1934 19.6348 26.8652 19.6348C26.5488 19.6348 26.2812 19.7598 26.0625 20.0098C25.8438 20.2559 25.7344 20.6211 25.7344 21.1055ZM36.1465 17.5137L34.5527 17.6895C34.5137 17.3613 34.4121 17.1191 34.248 16.9629C34.084 16.8066 33.8711 16.7285 33.6094 16.7285C33.2617 16.7285 32.9668 16.8848 32.7246 17.1973C32.4863 17.5098 32.3359 18.1602 32.2734 19.1484C32.6836 18.6641 33.1934 18.4219 33.8027 18.4219C34.4902 18.4219 35.0781 18.6836 35.5664 19.207C36.0586 19.7305 36.3047 20.4062 36.3047 21.2344C36.3047 22.1133 36.0469 22.8184 35.5312 23.3496C35.0156 23.8809 34.3535 24.1465 33.5449 24.1465C32.6777 24.1465 31.9648 23.8105 31.4062 23.1387C30.8477 22.4629 30.5684 21.3574 30.5684 19.8223C30.5684 18.248 30.8594 17.1133 31.4414 16.418C32.0234 15.7227 32.7793 15.375 33.709 15.375C34.3613 15.375 34.9004 15.5586 35.3262 15.9258C35.7559 16.2891 36.0293 16.8184 36.1465 17.5137ZM32.4141 21.1055C32.4141 21.6406 32.5371 22.0547 32.7832 22.3477C33.0293 22.6367 33.3105 22.7812 33.627 22.7812C33.9316 22.7812 34.1855 22.6621 34.3887 22.4238C34.5918 22.1855 34.6934 21.7949 34.6934 21.252C34.6934 20.6934 34.584 20.2852 34.3652 20.0273C34.1465 19.7656 33.873 19.6348 33.5449 19.6348C33.2285 19.6348 32.9609 19.7598 32.7422 20.0098C32.5234 20.2559 32.4141 20.6211 32.4141 21.1055ZM40.0312 15.375C40.8633 15.375 41.5137 15.6719 41.9824 16.2656C42.541 16.9688 42.8203 18.1348 42.8203 19.7637C42.8203 21.3887 42.5391 22.5566 41.9766 23.2676C41.5117 23.8535 40.8633 24.1465 40.0312 24.1465C39.1953 24.1465 38.5215 23.8262 38.0098 23.1855C37.498 22.541 37.2422 21.3945 37.2422 19.7461C37.2422 18.1289 37.5234 16.9648 38.0859 16.2539C38.5508 15.668 39.1992 15.375 40.0312 15.375ZM40.0312 16.7402C39.832 16.7402 39.6543 16.8047 39.498 16.9336C39.3418 17.0586 39.2207 17.2852 39.1348 17.6133C39.0215 18.0391 38.9648 18.7559 38.9648 19.7637C38.9648 20.7715 39.0156 21.4648 39.1172 21.8438C39.2188 22.2188 39.3457 22.4688 39.498 22.5938C39.6543 22.7188 39.832 22.7812 40.0312 22.7812C40.2305 22.7812 40.4082 22.7188 40.5645 22.5938C40.7207 22.4648 40.8418 22.2363 40.9277 21.9082C41.041 21.4863 41.0977 20.7715 41.0977 19.7637C41.0977 18.7559 41.0469 18.0645 40.9453 17.6895C40.8438 17.3105 40.7148 17.0586 40.5586 16.9336C40.4062 16.8047 40.2305 16.7402 40.0312 16.7402ZM44.2793 24V22.3535H45.9258V24H44.2793ZM50.0508 15.375C50.8828 15.375 51.5332 15.6719 52.002 16.2656C52.5605 16.9688 52.8398 18.1348 52.8398 19.7637C52.8398 21.3887 52.5586 22.5566 51.9961 23.2676C51.5312 23.8535 50.8828 24.1465 50.0508 24.1465C49.2148 24.1465 48.541 23.8262 48.0293 23.1855C47.5176 22.541 47.2617 21.3945 47.2617 19.7461C47.2617 18.1289 47.543 16.9648 48.1055 16.2539C48.5703 15.668 49.2188 15.375 50.0508 15.375ZM50.0508 16.7402C49.8516 16.7402 49.6738 16.8047 49.5176 16.9336C49.3613 17.0586 49.2402 17.2852 49.1543 17.6133C49.041 18.0391 48.9844 18.7559 48.9844 19.7637C48.9844 20.7715 49.0352 21.4648 49.1367 21.8438C49.2383 22.2188 49.3652 22.4688 49.5176 22.5938C49.6738 22.7188 49.8516 22.7812 50.0508 22.7812C50.25 22.7812 50.4277 22.7188 50.584 22.5938C50.7402 22.4648 50.8613 22.2363 50.9473 21.9082C51.0605 21.4863 51.1172 20.7715 51.1172 19.7637C51.1172 18.7559 51.0664 18.0645 50.9648 17.6895C50.8633 17.3105 50.7344 17.0586 50.5781 16.9336C50.4258 16.8047 50.25 16.7402 50.0508 16.7402ZM56.7305 15.375C57.5625 15.375 58.2129 15.6719 58.6816 16.2656C59.2402 16.9688 59.5195 18.1348 59.5195 19.7637C59.5195 21.3887 59.2383 22.5566 58.6758 23.2676C58.2109 23.8535 57.5625 24.1465 56.7305 24.1465C55.8945 24.1465 55.2207 23.8262 54.709 23.1855C54.1973 22.541 53.9414 21.3945 53.9414 19.7461C53.9414 18.1289 54.2227 16.9648 54.7852 16.2539C55.25 15.668 55.8984 15.375 56.7305 15.375ZM56.7305 16.7402C56.5312 16.7402 56.3535 16.8047 56.1973 16.9336C56.041 17.0586 55.9199 17.2852 55.834 17.6133C55.7207 18.0391 55.6641 18.7559 55.6641 19.7637C55.6641 20.7715 55.7148 21.4648 55.8164 21.8438C55.918 22.2188 56.0449 22.4688 56.1973 22.5938C56.3535 22.7188 56.5312 22.7812 56.7305 22.7812C56.9297 22.7812 57.1074 22.7188 57.2637 22.5938C57.4199 22.4648 57.541 22.2363 57.627 21.9082C57.7402 21.4863 57.7969 20.7715 57.7969 19.7637C57.7969 18.7559 57.7461 18.0645 57.6445 17.6895C57.543 17.3105 57.4141 17.0586 57.2578 16.9336C57.1055 16.8047 56.9297 16.7402 56.7305 16.7402Z" fill="white"/>
<defs>
<linearGradient id="paint0_linear_1_44" x1="32" y1="0" x2="32" y2="12" gradientUnits="userSpaceOnUse">
<stop stop-color="white"/>
<stop offset="1" stop-color="#767676"/>
</linearGradient>
</defs>
</svg>
