<svg width="127" height="26" viewBox="0 0 127 26" fill="none" xmlns="http://www.w3.org/2000/svg">
<path d="M0.890625 10V1.41016H2.60156L4.63477 7.49219C4.82227 8.05859 4.95898 8.48242 5.04492 8.76367C5.14258 8.45117 5.29492 7.99219 5.50195 7.38672L7.55859 1.41016H9.08789V10H7.99219V2.81055L5.49609 10H4.4707L1.98633 2.6875V10H0.890625ZM14.8477 9.23242C14.457 9.56445 14.0801 9.79883 13.7168 9.93555C13.3574 10.0723 12.9707 10.1406 12.5566 10.1406C11.873 10.1406 11.3477 9.97461 10.9805 9.64258C10.6133 9.30664 10.4297 8.87891 10.4297 8.35938C10.4297 8.05469 10.498 7.77734 10.6348 7.52734C10.7754 7.27344 10.957 7.07031 11.1797 6.91797C11.4062 6.76562 11.6602 6.65039 11.9414 6.57227C12.1484 6.51758 12.4609 6.46484 12.8789 6.41406C13.7305 6.3125 14.3574 6.19141 14.7598 6.05078C14.7637 5.90625 14.7656 5.81445 14.7656 5.77539C14.7656 5.3457 14.666 5.04297 14.4668 4.86719C14.1973 4.62891 13.7969 4.50977 13.2656 4.50977C12.7695 4.50977 12.4023 4.59766 12.1641 4.77344C11.9297 4.94531 11.7559 5.25195 11.6426 5.69336L10.6113 5.55273C10.7051 5.11133 10.8594 4.75586 11.0742 4.48633C11.2891 4.21289 11.5996 4.00391 12.0059 3.85938C12.4121 3.71094 12.8828 3.63672 13.418 3.63672C13.9492 3.63672 14.3809 3.69922 14.7129 3.82422C15.0449 3.94922 15.2891 4.10742 15.4453 4.29883C15.6016 4.48633 15.7109 4.72461 15.7734 5.01367C15.8086 5.19336 15.8262 5.51758 15.8262 5.98633V7.39258C15.8262 8.37305 15.8477 8.99414 15.8906 9.25586C15.9375 9.51367 16.0273 9.76172 16.1602 10H15.0586C14.9492 9.78125 14.8789 9.52539 14.8477 9.23242ZM14.7598 6.87695C14.377 7.0332 13.8027 7.16602 13.0371 7.27539C12.6035 7.33789 12.2969 7.4082 12.1172 7.48633C11.9375 7.56445 11.7988 7.67969 11.7012 7.83203C11.6035 7.98047 11.5547 8.14648 11.5547 8.33008C11.5547 8.61133 11.6602 8.8457 11.8711 9.0332C12.0859 9.2207 12.3984 9.31445 12.8086 9.31445C13.2148 9.31445 13.5762 9.22656 13.8926 9.05078C14.209 8.87109 14.4414 8.62695 14.5898 8.31836C14.7031 8.08008 14.7598 7.72852 14.7598 7.26367V6.87695ZM17.4551 10V3.77734H18.4043V4.7207C18.6465 4.2793 18.8691 3.98828 19.0723 3.84766C19.2793 3.70703 19.5059 3.63672 19.752 3.63672C20.1074 3.63672 20.4688 3.75 20.8359 3.97656L20.4727 4.95508C20.2148 4.80273 19.957 4.72656 19.6992 4.72656C19.4688 4.72656 19.2617 4.79688 19.0781 4.9375C18.8945 5.07422 18.7637 5.26562 18.6855 5.51172C18.5684 5.88672 18.5098 6.29688 18.5098 6.74219V10H17.4551ZM21.2695 10.5156L22.2949 10.668C22.3379 10.9844 22.457 11.2148 22.6523 11.3594C22.9141 11.5547 23.2715 11.6523 23.7246 11.6523C24.2129 11.6523 24.5898 11.5547 24.8555 11.3594C25.1211 11.1641 25.3008 10.8906 25.3945 10.5391C25.4492 10.3242 25.4746 9.87305 25.4707 9.18555C25.0098 9.72852 24.4355 10 23.748 10C22.8926 10 22.2305 9.69141 21.7617 9.07422C21.293 8.45703 21.0586 7.7168 21.0586 6.85352C21.0586 6.25977 21.166 5.71289 21.3809 5.21289C21.5957 4.70898 21.9062 4.32031 22.3125 4.04688C22.7227 3.77344 23.2031 3.63672 23.7539 3.63672C24.4883 3.63672 25.0938 3.93359 25.5703 4.52734V3.77734H26.543V9.15625C26.543 10.125 26.4434 10.8105 26.2441 11.2129C26.0488 11.6191 25.7363 11.9395 25.3066 12.1738C24.8809 12.4082 24.3555 12.5254 23.7305 12.5254C22.9883 12.5254 22.3887 12.3574 21.9316 12.0215C21.4746 11.6895 21.2539 11.1875 21.2695 10.5156ZM22.1426 6.77734C22.1426 7.59375 22.3047 8.18945 22.6289 8.56445C22.9531 8.93945 23.3594 9.12695 23.8477 9.12695C24.332 9.12695 24.7383 8.94141 25.0664 8.57031C25.3945 8.19531 25.5586 7.60938 25.5586 6.8125C25.5586 6.05078 25.3887 5.47656 25.0488 5.08984C24.7129 4.70312 24.3066 4.50977 23.8301 4.50977C23.3613 4.50977 22.9629 4.70117 22.6348 5.08398C22.3066 5.46289 22.1426 6.02734 22.1426 6.77734ZM28.1484 2.62305V1.41016H29.2031V2.62305H28.1484ZM28.1484 10V3.77734H29.2031V10H28.1484ZM30.8145 10V3.77734H31.7637V4.66211C32.2207 3.97852 32.8809 3.63672 33.7441 3.63672C34.1191 3.63672 34.4629 3.70508 34.7754 3.8418C35.0918 3.97461 35.3281 4.15039 35.4844 4.36914C35.6406 4.58789 35.75 4.84766 35.8125 5.14844C35.8516 5.34375 35.8711 5.68555 35.8711 6.17383V10H34.8164V6.21484C34.8164 5.78516 34.7754 5.46484 34.6934 5.25391C34.6113 5.03906 34.4648 4.86914 34.2539 4.74414C34.0469 4.61523 33.8027 4.55078 33.5215 4.55078C33.0723 4.55078 32.6836 4.69336 32.3555 4.97852C32.0312 5.26367 31.8691 5.80469 31.8691 6.60156V10H30.8145ZM46.6055 1.41016H47.7422V6.37305C47.7422 7.23633 47.6445 7.92188 47.4492 8.42969C47.2539 8.9375 46.9004 9.35156 46.3887 9.67188C45.8809 9.98828 45.2129 10.1465 44.3848 10.1465C43.5801 10.1465 42.9219 10.0078 42.4102 9.73047C41.8984 9.45312 41.5332 9.05273 41.3145 8.5293C41.0957 8.00195 40.9863 7.2832 40.9863 6.37305V1.41016H42.123V6.36719C42.123 7.11328 42.1914 7.66406 42.3281 8.01953C42.4688 8.37109 42.707 8.64258 43.043 8.83398C43.3828 9.02539 43.7969 9.12109 44.2852 9.12109C45.1211 9.12109 45.7168 8.93164 46.0723 8.55273C46.4277 8.17383 46.6055 7.44531 46.6055 6.36719V1.41016ZM49.084 8.14258L50.127 7.97852C50.1855 8.39648 50.3477 8.7168 50.6133 8.93945C50.8828 9.16211 51.2578 9.27344 51.7383 9.27344C52.2227 9.27344 52.582 9.17578 52.8164 8.98047C53.0508 8.78125 53.168 8.54883 53.168 8.2832C53.168 8.04492 53.0645 7.85742 52.8574 7.7207C52.7129 7.62695 52.3535 7.50781 51.7793 7.36328C51.0059 7.16797 50.4688 7 50.168 6.85938C49.8711 6.71484 49.6445 6.51758 49.4883 6.26758C49.3359 6.01367 49.2598 5.73438 49.2598 5.42969C49.2598 5.15234 49.3223 4.89648 49.4473 4.66211C49.5762 4.42383 49.75 4.22656 49.9688 4.07031C50.1328 3.94922 50.3555 3.84766 50.6367 3.76562C50.9219 3.67969 51.2266 3.63672 51.5508 3.63672C52.0391 3.63672 52.4668 3.70703 52.834 3.84766C53.2051 3.98828 53.4785 4.17969 53.6543 4.42188C53.8301 4.66016 53.9512 4.98047 54.0176 5.38281L52.9863 5.52344C52.9395 5.20312 52.8027 4.95312 52.5762 4.77344C52.3535 4.59375 52.0371 4.50391 51.627 4.50391C51.1426 4.50391 50.7969 4.58398 50.5898 4.74414C50.3828 4.9043 50.2793 5.0918 50.2793 5.30664C50.2793 5.44336 50.3223 5.56641 50.4082 5.67578C50.4941 5.78906 50.6289 5.88281 50.8125 5.95703C50.918 5.99609 51.2285 6.08594 51.7441 6.22656C52.4902 6.42578 53.0098 6.58984 53.3027 6.71875C53.5996 6.84375 53.832 7.02734 54 7.26953C54.168 7.51172 54.252 7.8125 54.252 8.17188C54.252 8.52344 54.1484 8.85547 53.9414 9.16797C53.7383 9.47656 53.4434 9.7168 53.0566 9.88867C52.6699 10.0566 52.2324 10.1406 51.7441 10.1406C50.9355 10.1406 50.3184 9.97266 49.8926 9.63672C49.4707 9.30078 49.2012 8.80273 49.084 8.14258ZM59.7656 7.99609L60.8555 8.13086C60.6836 8.76758 60.3652 9.26172 59.9004 9.61328C59.4355 9.96484 58.8418 10.1406 58.1191 10.1406C57.209 10.1406 56.4863 9.86133 55.9512 9.30273C55.4199 8.74023 55.1543 7.95312 55.1543 6.94141C55.1543 5.89453 55.4238 5.08203 55.9629 4.50391C56.502 3.92578 57.2012 3.63672 58.0605 3.63672C58.8926 3.63672 59.5723 3.91992 60.0996 4.48633C60.627 5.05273 60.8906 5.84961 60.8906 6.87695C60.8906 6.93945 60.8887 7.0332 60.8848 7.1582H56.2441C56.2832 7.8418 56.4766 8.36523 56.8242 8.72852C57.1719 9.0918 57.6055 9.27344 58.125 9.27344C58.5117 9.27344 58.8418 9.17188 59.1152 8.96875C59.3887 8.76562 59.6055 8.44141 59.7656 7.99609ZM56.3027 6.29102H59.7773C59.7305 5.76758 59.5977 5.375 59.3789 5.11328C59.043 4.70703 58.6074 4.50391 58.0723 4.50391C57.5879 4.50391 57.1797 4.66602 56.8477 4.99023C56.5195 5.31445 56.3379 5.74805 56.3027 6.29102ZM66.2227 10V9.21484C65.8281 9.83203 65.248 10.1406 64.4824 10.1406C63.9863 10.1406 63.5293 10.0039 63.1113 9.73047C62.6973 9.45703 62.375 9.07617 62.1445 8.58789C61.918 8.0957 61.8047 7.53125 61.8047 6.89453C61.8047 6.27344 61.9082 5.71094 62.1152 5.20703C62.3223 4.69922 62.6328 4.31055 63.0469 4.04102C63.4609 3.77148 63.9238 3.63672 64.4355 3.63672C64.8105 3.63672 65.1445 3.7168 65.4375 3.87695C65.7305 4.0332 65.9688 4.23828 66.1523 4.49219V1.41016H67.2012V10H66.2227ZM62.8887 6.89453C62.8887 7.69141 63.0566 8.28711 63.3926 8.68164C63.7285 9.07617 64.125 9.27344 64.582 9.27344C65.043 9.27344 65.4336 9.08594 65.7539 8.71094C66.0781 8.33203 66.2402 7.75586 66.2402 6.98242C66.2402 6.13086 66.0762 5.50586 65.748 5.10742C65.4199 4.70898 65.0156 4.50977 64.5352 4.50977C64.0664 4.50977 63.6738 4.70117 63.3574 5.08398C63.0449 5.4668 62.8887 6.07031 62.8887 6.89453ZM71.4141 10.1465L73.9043 1.26367H74.748L72.2637 10.1465H71.4141ZM79.0781 10V1.41016H84.873V2.42383H80.2148V5.08398H84.2461V6.09766H80.2148V10H79.0781ZM86.209 10V3.77734H87.1582V4.7207C87.4004 4.2793 87.623 3.98828 87.8262 3.84766C88.0332 3.70703 88.2598 3.63672 88.5059 3.63672C88.8613 3.63672 89.2227 3.75 89.5898 3.97656L89.2266 4.95508C88.9688 4.80273 88.7109 4.72656 88.4531 4.72656C88.2227 4.72656 88.0156 4.79688 87.832 4.9375C87.6484 5.07422 87.5176 5.26562 87.4395 5.51172C87.3223 5.88672 87.2637 6.29688 87.2637 6.74219V10H86.209ZM94.4766 7.99609L95.5664 8.13086C95.3945 8.76758 95.0762 9.26172 94.6113 9.61328C94.1465 9.96484 93.5527 10.1406 92.8301 10.1406C91.9199 10.1406 91.1973 9.86133 90.6621 9.30273C90.1309 8.74023 89.8652 7.95312 89.8652 6.94141C89.8652 5.89453 90.1348 5.08203 90.6738 4.50391C91.2129 3.92578 91.9121 3.63672 92.7715 3.63672C93.6035 3.63672 94.2832 3.91992 94.8105 4.48633C95.3379 5.05273 95.6016 5.84961 95.6016 6.87695C95.6016 6.93945 95.5996 7.0332 95.5957 7.1582H90.9551C90.9941 7.8418 91.1875 8.36523 91.5352 8.72852C91.8828 9.0918 92.3164 9.27344 92.8359 9.27344C93.2227 9.27344 93.5527 9.17188 93.8262 8.96875C94.0996 8.76562 94.3164 8.44141 94.4766 7.99609ZM91.0137 6.29102H94.4883C94.4414 5.76758 94.3086 5.375 94.0898 5.11328C93.7539 4.70703 93.3184 4.50391 92.7832 4.50391C92.2988 4.50391 91.8906 4.66602 91.5586 4.99023C91.2305 5.31445 91.0488 5.74805 91.0137 6.29102ZM101.156 7.99609L102.246 8.13086C102.074 8.76758 101.756 9.26172 101.291 9.61328C100.826 9.96484 100.232 10.1406 99.5098 10.1406C98.5996 10.1406 97.877 9.86133 97.3418 9.30273C96.8105 8.74023 96.5449 7.95312 96.5449 6.94141C96.5449 5.89453 96.8145 5.08203 97.3535 4.50391C97.8926 3.92578 98.5918 3.63672 99.4512 3.63672C100.283 3.63672 100.963 3.91992 101.49 4.48633C102.018 5.05273 102.281 5.84961 102.281 6.87695C102.281 6.93945 102.279 7.0332 102.275 7.1582H97.6348C97.6738 7.8418 97.8672 8.36523 98.2148 8.72852C98.5625 9.0918 98.9961 9.27344 99.5156 9.27344C99.9023 9.27344 100.232 9.17188 100.506 8.96875C100.779 8.76562 100.996 8.44141 101.156 7.99609ZM97.6934 6.29102H101.168C101.121 5.76758 100.988 5.375 100.77 5.11328C100.434 4.70703 99.998 4.50391 99.4629 4.50391C98.9785 4.50391 98.5703 4.66602 98.2383 4.99023C97.9102 5.31445 97.7285 5.74805 97.6934 6.29102Z" fill="url(#paint0_linear_1_52)"/>
<path d="M2.86523 22.7285V20.2734C2.09961 20.0547 1.53711 19.7246 1.17773 19.2832C0.822266 18.8379 0.644531 18.2988 0.644531 17.666C0.644531 17.0254 0.845703 16.4883 1.24805 16.0547C1.6543 15.6172 2.19336 15.3652 2.86523 15.2988V14.7188H3.71484V15.2988C4.33594 15.373 4.83008 15.5859 5.19727 15.9375C5.56445 16.2852 5.79883 16.752 5.90039 17.3379L4.41797 17.5312C4.32812 17.0703 4.09375 16.7578 3.71484 16.5938V18.8848C4.65234 19.1387 5.29102 19.4688 5.63086 19.875C5.9707 20.2773 6.14062 20.7949 6.14062 21.4277C6.14062 22.1348 5.92578 22.7305 5.49609 23.2148C5.07031 23.6992 4.47656 23.9961 3.71484 24.1055V25.2012H2.86523V24.1348C2.18945 24.0527 1.64062 23.8008 1.21875 23.3789C0.796875 22.957 0.527344 22.3613 0.410156 21.5918L1.93945 21.4277C2.00195 21.7402 2.11914 22.0098 2.29102 22.2363C2.46289 22.4629 2.6543 22.627 2.86523 22.7285ZM2.86523 16.5762C2.63477 16.6543 2.45117 16.7871 2.31445 16.9746C2.17773 17.1621 2.10938 17.3691 2.10938 17.5957C2.10938 17.8027 2.17188 17.9961 2.29688 18.1758C2.42188 18.3516 2.61133 18.4941 2.86523 18.6035V16.5762ZM3.71484 22.8105C4.00781 22.7559 4.24609 22.6211 4.42969 22.4062C4.61328 22.1875 4.70508 21.9316 4.70508 21.6387C4.70508 21.377 4.62695 21.1523 4.4707 20.9648C4.31836 20.7734 4.06641 20.627 3.71484 20.5254V22.8105ZM7.21289 21.791L8.85352 21.6211C8.90039 21.9922 9.03906 22.2871 9.26953 22.5059C9.5 22.7207 9.76562 22.8281 10.0664 22.8281C10.4102 22.8281 10.7012 22.6895 10.9395 22.4121C11.1777 22.1309 11.2969 21.709 11.2969 21.1465C11.2969 20.6191 11.1777 20.2246 10.9395 19.9629C10.7051 19.6973 10.3984 19.5645 10.0195 19.5645C9.54688 19.5645 9.12305 19.7734 8.74805 20.1914L7.41211 19.998L8.25586 15.5273H12.6094V17.0684H9.50391L9.24609 18.5273C9.61328 18.3438 9.98828 18.252 10.3711 18.252C11.1016 18.252 11.7207 18.5176 12.2285 19.0488C12.7363 19.5801 12.9902 20.2695 12.9902 21.1172C12.9902 21.8242 12.7852 22.4551 12.375 23.0098C11.8164 23.7676 11.041 24.1465 10.0488 24.1465C9.25586 24.1465 8.60938 23.9336 8.10938 23.5078C7.60938 23.082 7.31055 22.5098 7.21289 21.791ZM19.4473 17.5137L17.8535 17.6895C17.8145 17.3613 17.7129 17.1191 17.5488 16.9629C17.3848 16.8066 17.1719 16.7285 16.9102 16.7285C16.5625 16.7285 16.2676 16.8848 16.0254 17.1973C15.7871 17.5098 15.6367 18.1602 15.5742 19.1484C15.9844 18.6641 16.4941 18.4219 17.1035 18.4219C17.791 18.4219 18.3789 18.6836 18.8672 19.207C19.3594 19.7305 19.6055 20.4062 19.6055 21.2344C19.6055 22.1133 19.3477 22.8184 18.832 23.3496C18.3164 23.8809 17.6543 24.1465 16.8457 24.1465C15.9785 24.1465 15.2656 23.8105 14.707 23.1387C14.1484 22.4629 13.8691 21.3574 13.8691 19.8223C13.8691 18.248 14.1602 17.1133 14.7422 16.418C15.3242 15.7227 16.0801 15.375 17.0098 15.375C17.6621 15.375 18.2012 15.5586 18.627 15.9258C19.0566 16.2891 19.3301 16.8184 19.4473 17.5137ZM15.7148 21.1055C15.7148 21.6406 15.8379 22.0547 16.084 22.3477C16.3301 22.6367 16.6113 22.7812 16.9277 22.7812C17.2324 22.7812 17.4863 22.6621 17.6895 22.4238C17.8926 22.1855 17.9941 21.7949 17.9941 21.252C17.9941 20.6934 17.8848 20.2852 17.666 20.0273C17.4473 19.7656 17.1738 19.6348 16.8457 19.6348C16.5293 19.6348 16.2617 19.7598 16.043 20.0098C15.8242 20.2559 15.7148 20.6211 15.7148 21.1055ZM23.332 15.375C24.1641 15.375 24.8145 15.6719 25.2832 16.2656C25.8418 16.9688 26.1211 18.1348 26.1211 19.7637C26.1211 21.3887 25.8398 22.5566 25.2773 23.2676C24.8125 23.8535 24.1641 24.1465 23.332 24.1465C22.4961 24.1465 21.8223 23.8262 21.3105 23.1855C20.7988 22.541 20.543 21.3945 20.543 19.7461C20.543 18.1289 20.8242 16.9648 21.3867 16.2539C21.8516 15.668 22.5 15.375 23.332 15.375ZM23.332 16.7402C23.1328 16.7402 22.9551 16.8047 22.7988 16.9336C22.6426 17.0586 22.5215 17.2852 22.4355 17.6133C22.3223 18.0391 22.2656 18.7559 22.2656 19.7637C22.2656 20.7715 22.3164 21.4648 22.418 21.8438C22.5195 22.2188 22.6465 22.4688 22.7988 22.5938C22.9551 22.7188 23.1328 22.7812 23.332 22.7812C23.5312 22.7812 23.709 22.7188 23.8652 22.5938C24.0215 22.4648 24.1426 22.2363 24.2285 21.9082C24.3418 21.4863 24.3984 20.7715 24.3984 19.7637C24.3984 18.7559 24.3477 18.0645 24.2461 17.6895C24.1445 17.3105 24.0156 17.0586 23.8594 16.9336C23.707 16.8047 23.5312 16.7402 23.332 16.7402ZM27.5801 24V22.3535H29.2266V24H27.5801ZM33.3516 15.375C34.1836 15.375 34.834 15.6719 35.3027 16.2656C35.8613 16.9688 36.1406 18.1348 36.1406 19.7637C36.1406 21.3887 35.8594 22.5566 35.2969 23.2676C34.832 23.8535 34.1836 24.1465 33.3516 24.1465C32.5156 24.1465 31.8418 23.8262 31.3301 23.1855C30.8184 22.541 30.5625 21.3945 30.5625 19.7461C30.5625 18.1289 30.8438 16.9648 31.4062 16.2539C31.8711 15.668 32.5195 15.375 33.3516 15.375ZM33.3516 16.7402C33.1523 16.7402 32.9746 16.8047 32.8184 16.9336C32.6621 17.0586 32.541 17.2852 32.4551 17.6133C32.3418 18.0391 32.2852 18.7559 32.2852 19.7637C32.2852 20.7715 32.3359 21.4648 32.4375 21.8438C32.5391 22.2188 32.666 22.4688 32.8184 22.5938C32.9746 22.7188 33.1523 22.7812 33.3516 22.7812C33.5508 22.7812 33.7285 22.7188 33.8848 22.5938C34.041 22.4648 34.1621 22.2363 34.248 21.9082C34.3613 21.4863 34.418 20.7715 34.418 19.7637C34.418 18.7559 34.3672 18.0645 34.2656 17.6895C34.1641 17.3105 34.0352 17.0586 33.8789 16.9336C33.7266 16.8047 33.5508 16.7402 33.3516 16.7402ZM40.0312 15.375C40.8633 15.375 41.5137 15.6719 41.9824 16.2656C42.541 16.9688 42.8203 18.1348 42.8203 19.7637C42.8203 21.3887 42.5391 22.5566 41.9766 23.2676C41.5117 23.8535 40.8633 24.1465 40.0312 24.1465C39.1953 24.1465 38.5215 23.8262 38.0098 23.1855C37.498 22.541 37.2422 21.3945 37.2422 19.7461C37.2422 18.1289 37.5234 16.9648 38.0859 16.2539C38.5508 15.668 39.1992 15.375 40.0312 15.375ZM40.0312 16.7402C39.832 16.7402 39.6543 16.8047 39.498 16.9336C39.3418 17.0586 39.2207 17.2852 39.1348 17.6133C39.0215 18.0391 38.9648 18.7559 38.9648 19.7637C38.9648 20.7715 39.0156 21.4648 39.1172 21.8438C39.2188 22.2188 39.3457 22.4688 39.498 22.5938C39.6543 22.7188 39.832 22.7812 40.0312 22.7812C40.2305 22.7812 40.4082 22.7188 40.5645 22.5938C40.7207 22.4648 40.8418 22.2363 40.9277 21.9082C41.041 21.4863 41.0977 20.7715 41.0977 19.7637C41.0977 18.7559 41.0469 18.0645 40.9453 17.6895C40.8438 17.3105 40.7148 17.0586 40.5586 16.9336C40.4062 16.8047 40.2305 16.7402 40.0312 16.7402ZM46.7402 24.1465L48.8672 15.2637H50.1035L47.9531 24.1465H46.7402ZM59.5254 17.5137L57.9316 17.6895C57.8926 17.3613 57.791 17.1191 57.627 16.9629C57.4629 16.8066 57.25 16.7285 56.9883 16.7285C56.6406 16.7285 56.3457 16.8848 56.1035 17.1973C55.8652 17.5098 55.7148 18.1602 55.6523 19.1484C56.0625 18.6641 56.5723 18.4219 57.1816 18.4219C57.8691 18.4219 58.457 18.6836 58.9453 19.207C59.4375 19.7305 59.6836 20.4062 59.6836 21.2344C59.6836 22.1133 59.4258 22.8184 58.9102 23.3496C58.3945 23.8809 57.7324 24.1465 56.9238 24.1465C56.0566 24.1465 55.3438 23.8105 54.7852 23.1387C54.2266 22.4629 53.9473 21.3574 53.9473 19.8223C53.9473 18.248 54.2383 17.1133 54.8203 16.418C55.4023 15.7227 56.1582 15.375 57.0879 15.375C57.7402 15.375 58.2793 15.5586 58.7051 15.9258C59.1348 16.2891 59.4082 16.8184 59.5254 17.5137ZM55.793 21.1055C55.793 21.6406 55.916 22.0547 56.1621 22.3477C56.4082 22.6367 56.6895 22.7812 57.0059 22.7812C57.3105 22.7812 57.5645 22.6621 57.7676 22.4238C57.9707 22.1855 58.0723 21.7949 58.0723 21.252C58.0723 20.6934 57.9629 20.2852 57.7441 20.0273C57.5254 19.7656 57.252 19.6348 56.9238 19.6348C56.6074 19.6348 56.3398 19.7598 56.1211 20.0098C55.9023 20.2559 55.793 20.6211 55.793 21.1055ZM66.2051 17.5137L64.6113 17.6895C64.5723 17.3613 64.4707 17.1191 64.3066 16.9629C64.1426 16.8066 63.9297 16.7285 63.668 16.7285C63.3203 16.7285 63.0254 16.8848 62.7832 17.1973C62.5449 17.5098 62.3945 18.1602 62.332 19.1484C62.7422 18.6641 63.252 18.4219 63.8613 18.4219C64.5488 18.4219 65.1367 18.6836 65.625 19.207C66.1172 19.7305 66.3633 20.4062 66.3633 21.2344C66.3633 22.1133 66.1055 22.8184 65.5898 23.3496C65.0742 23.8809 64.4121 24.1465 63.6035 24.1465C62.7363 24.1465 62.0234 23.8105 61.4648 23.1387C60.9062 22.4629 60.627 21.3574 60.627 19.8223C60.627 18.248 60.918 17.1133 61.5 16.418C62.082 15.7227 62.8379 15.375 63.7676 15.375C64.4199 15.375 64.959 15.5586 65.3848 15.9258C65.8145 16.2891 66.0879 16.8184 66.2051 17.5137ZM62.4727 21.1055C62.4727 21.6406 62.5957 22.0547 62.8418 22.3477C63.0879 22.6367 63.3691 22.7812 63.6855 22.7812C63.9902 22.7812 64.2441 22.6621 64.4473 22.4238C64.6504 22.1855 64.752 21.7949 64.752 21.252C64.752 20.6934 64.6426 20.2852 64.4238 20.0273C64.2051 19.7656 63.9316 19.6348 63.6035 19.6348C63.2871 19.6348 63.0195 19.7598 62.8008 20.0098C62.582 20.2559 62.4727 20.6211 62.4727 21.1055ZM70.0898 15.375C70.9219 15.375 71.5723 15.6719 72.041 16.2656C72.5996 16.9688 72.8789 18.1348 72.8789 19.7637C72.8789 21.3887 72.5977 22.5566 72.0352 23.2676C71.5703 23.8535 70.9219 24.1465 70.0898 24.1465C69.2539 24.1465 68.5801 23.8262 68.0684 23.1855C67.5566 22.541 67.3008 21.3945 67.3008 19.7461C67.3008 18.1289 67.582 16.9648 68.1445 16.2539C68.6094 15.668 69.2578 15.375 70.0898 15.375ZM70.0898 16.7402C69.8906 16.7402 69.7129 16.8047 69.5566 16.9336C69.4004 17.0586 69.2793 17.2852 69.1934 17.6133C69.0801 18.0391 69.0234 18.7559 69.0234 19.7637C69.0234 20.7715 69.0742 21.4648 69.1758 21.8438C69.2773 22.2188 69.4043 22.4688 69.5566 22.5938C69.7129 22.7188 69.8906 22.7812 70.0898 22.7812C70.2891 22.7812 70.4668 22.7188 70.623 22.5938C70.7793 22.4648 70.9004 22.2363 70.9863 21.9082C71.0996 21.4863 71.1562 20.7715 71.1562 19.7637C71.1562 18.7559 71.1055 18.0645 71.0039 17.6895C70.9023 17.3105 70.7734 17.0586 70.6172 16.9336C70.4648 16.8047 70.2891 16.7402 70.0898 16.7402ZM74.3379 24V22.3535H75.9844V24H74.3379ZM80.1094 15.375C80.9414 15.375 81.5918 15.6719 82.0605 16.2656C82.6191 16.9688 82.8984 18.1348 82.8984 19.7637C82.8984 21.3887 82.6172 22.5566 82.0547 23.2676C81.5898 23.8535 80.9414 24.1465 80.1094 24.1465C79.2734 24.1465 78.5996 23.8262 78.0879 23.1855C77.5762 22.541 77.3203 21.3945 77.3203 19.7461C77.3203 18.1289 77.6016 16.9648 78.1641 16.2539C78.6289 15.668 79.2773 15.375 80.1094 15.375ZM80.1094 16.7402C79.9102 16.7402 79.7324 16.8047 79.5762 16.9336C79.4199 17.0586 79.2988 17.2852 79.2129 17.6133C79.0996 18.0391 79.043 18.7559 79.043 19.7637C79.043 20.7715 79.0938 21.4648 79.1953 21.8438C79.2969 22.2188 79.4238 22.4688 79.5762 22.5938C79.7324 22.7188 79.9102 22.7812 80.1094 22.7812C80.3086 22.7812 80.4863 22.7188 80.6426 22.5938C80.7988 22.4648 80.9199 22.2363 81.0059 21.9082C81.1191 21.4863 81.1758 20.7715 81.1758 19.7637C81.1758 18.7559 81.125 18.0645 81.0234 17.6895C80.9219 17.3105 80.793 17.0586 80.6367 16.9336C80.4844 16.8047 80.3086 16.7402 80.1094 16.7402ZM86.7891 15.375C87.6211 15.375 88.2715 15.6719 88.7402 16.2656C89.2988 16.9688 89.5781 18.1348 89.5781 19.7637C89.5781 21.3887 89.2969 22.5566 88.7344 23.2676C88.2695 23.8535 87.6211 24.1465 86.7891 24.1465C85.9531 24.1465 85.2793 23.8262 84.7676 23.1855C84.2559 22.541 84 21.3945 84 19.7461C84 18.1289 84.2812 16.9648 84.8438 16.2539C85.3086 15.668 85.957 15.375 86.7891 15.375ZM86.7891 16.7402C86.5898 16.7402 86.4121 16.8047 86.2559 16.9336C86.0996 17.0586 85.9785 17.2852 85.8926 17.6133C85.7793 18.0391 85.7227 18.7559 85.7227 19.7637C85.7227 20.7715 85.7734 21.4648 85.875 21.8438C85.9766 22.2188 86.1035 22.4688 86.2559 22.5938C86.4121 22.7188 86.5898 22.7812 86.7891 22.7812C86.9883 22.7812 87.166 22.7188 87.3223 22.5938C87.4785 22.4648 87.5996 22.2363 87.6855 21.9082C87.7988 21.4863 87.8555 20.7715 87.8555 19.7637C87.8555 18.7559 87.8047 18.0645 87.7031 17.6895C87.6016 17.3105 87.4727 17.0586 87.3164 16.9336C87.1641 16.8047 86.9883 16.7402 86.7891 16.7402Z" fill="white"/>
<defs>
<linearGradient id="paint0_linear_1_52" x1="63.5" y1="0" x2="63.5" y2="12" gradientUnits="userSpaceOnUse">
<stop stop-color="white"/>
<stop offset="1" stop-color="#767676"/>
</linearGradient>
</defs>
</svg>
