<svg width="86" height="34" viewBox="0 0 86 34" fill="none" xmlns="http://www.w3.org/2000/svg">
<path d="M0.890625 14V5.41016H2.60156L4.63477 11.4922C4.82227 12.0586 4.95898 12.4824 5.04492 12.7637C5.14258 12.4512 5.29492 11.9922 5.50195 11.3867L7.55859 5.41016H9.08789V14H7.99219V6.81055L5.49609 14H4.4707L1.98633 6.6875V14H0.890625ZM14.8477 13.2324C14.457 13.5645 14.0801 13.7988 13.7168 13.9355C13.3574 14.0723 12.9707 14.1406 12.5566 14.1406C11.873 14.1406 11.3477 13.9746 10.9805 13.6426C10.6133 13.3066 10.4297 12.8789 10.4297 12.3594C10.4297 12.0547 10.498 11.7773 10.6348 11.5273C10.7754 11.2734 10.957 11.0703 11.1797 10.918C11.4062 10.7656 11.6602 10.6504 11.9414 10.5723C12.1484 10.5176 12.4609 10.4648 12.8789 10.4141C13.7305 10.3125 14.3574 10.1914 14.7598 10.0508C14.7637 9.90625 14.7656 9.81445 14.7656 9.77539C14.7656 9.3457 14.666 9.04297 14.4668 8.86719C14.1973 8.62891 13.7969 8.50977 13.2656 8.50977C12.7695 8.50977 12.4023 8.59766 12.1641 8.77344C11.9297 8.94531 11.7559 9.25195 11.6426 9.69336L10.6113 9.55273C10.7051 9.11133 10.8594 8.75586 11.0742 8.48633C11.2891 8.21289 11.5996 8.00391 12.0059 7.85938C12.4121 7.71094 12.8828 7.63672 13.418 7.63672C13.9492 7.63672 14.3809 7.69922 14.7129 7.82422C15.0449 7.94922 15.2891 8.10742 15.4453 8.29883C15.6016 8.48633 15.7109 8.72461 15.7734 9.01367C15.8086 9.19336 15.8262 9.51758 15.8262 9.98633V11.3926C15.8262 12.373 15.8477 12.9941 15.8906 13.2559C15.9375 13.5137 16.0273 13.7617 16.1602 14H15.0586C14.9492 13.7812 14.8789 13.5254 14.8477 13.2324ZM14.7598 10.877C14.377 11.0332 13.8027 11.166 13.0371 11.2754C12.6035 11.3379 12.2969 11.4082 12.1172 11.4863C11.9375 11.5645 11.7988 11.6797 11.7012 11.832C11.6035 11.9805 11.5547 12.1465 11.5547 12.3301C11.5547 12.6113 11.6602 12.8457 11.8711 13.0332C12.0859 13.2207 12.3984 13.3145 12.8086 13.3145C13.2148 13.3145 13.5762 13.2266 13.8926 13.0508C14.209 12.8711 14.4414 12.627 14.5898 12.3184C14.7031 12.0801 14.7598 11.7285 14.7598 11.2637V10.877ZM17.4551 14V7.77734H18.4043V8.7207C18.6465 8.2793 18.8691 7.98828 19.0723 7.84766C19.2793 7.70703 19.5059 7.63672 19.752 7.63672C20.1074 7.63672 20.4688 7.75 20.8359 7.97656L20.4727 8.95508C20.2148 8.80273 19.957 8.72656 19.6992 8.72656C19.4688 8.72656 19.2617 8.79688 19.0781 8.9375C18.8945 9.07422 18.7637 9.26562 18.6855 9.51172C18.5684 9.88672 18.5098 10.2969 18.5098 10.7422V14H17.4551ZM21.2695 14.5156L22.2949 14.668C22.3379 14.9844 22.457 15.2148 22.6523 15.3594C22.9141 15.5547 23.2715 15.6523 23.7246 15.6523C24.2129 15.6523 24.5898 15.5547 24.8555 15.3594C25.1211 15.1641 25.3008 14.8906 25.3945 14.5391C25.4492 14.3242 25.4746 13.873 25.4707 13.1855C25.0098 13.7285 24.4355 14 23.748 14C22.8926 14 22.2305 13.6914 21.7617 13.0742C21.293 12.457 21.0586 11.7168 21.0586 10.8535C21.0586 10.2598 21.166 9.71289 21.3809 9.21289C21.5957 8.70898 21.9062 8.32031 22.3125 8.04688C22.7227 7.77344 23.2031 7.63672 23.7539 7.63672C24.4883 7.63672 25.0938 7.93359 25.5703 8.52734V7.77734H26.543V13.1562C26.543 14.125 26.4434 14.8105 26.2441 15.2129C26.0488 15.6191 25.7363 15.9395 25.3066 16.1738C24.8809 16.4082 24.3555 16.5254 23.7305 16.5254C22.9883 16.5254 22.3887 16.3574 21.9316 16.0215C21.4746 15.6895 21.2539 15.1875 21.2695 14.5156ZM22.1426 10.7773C22.1426 11.5938 22.3047 12.1895 22.6289 12.5645C22.9531 12.9395 23.3594 13.127 23.8477 13.127C24.332 13.127 24.7383 12.9414 25.0664 12.5703C25.3945 12.1953 25.5586 11.6094 25.5586 10.8125C25.5586 10.0508 25.3887 9.47656 25.0488 9.08984C24.7129 8.70312 24.3066 8.50977 23.8301 8.50977C23.3613 8.50977 22.9629 8.70117 22.6348 9.08398C22.3066 9.46289 22.1426 10.0273 22.1426 10.7773ZM28.1484 6.62305V5.41016H29.2031V6.62305H28.1484ZM28.1484 14V7.77734H29.2031V14H28.1484ZM30.8145 14V7.77734H31.7637V8.66211C32.2207 7.97852 32.8809 7.63672 33.7441 7.63672C34.1191 7.63672 34.4629 7.70508 34.7754 7.8418C35.0918 7.97461 35.3281 8.15039 35.4844 8.36914C35.6406 8.58789 35.75 8.84766 35.8125 9.14844C35.8516 9.34375 35.8711 9.68555 35.8711 10.1738V14H34.8164V10.2148C34.8164 9.78516 34.7754 9.46484 34.6934 9.25391C34.6113 9.03906 34.4648 8.86914 34.2539 8.74414C34.0469 8.61523 33.8027 8.55078 33.5215 8.55078C33.0723 8.55078 32.6836 8.69336 32.3555 8.97852C32.0312 9.26367 31.8691 9.80469 31.8691 10.6016V14H30.8145ZM40.9219 14V5.41016H42.0586V12.9863H46.2891V14H40.9219ZM51.7734 11.9961L52.8633 12.1309C52.6914 12.7676 52.373 13.2617 51.9082 13.6133C51.4434 13.9648 50.8496 14.1406 50.127 14.1406C49.2168 14.1406 48.4941 13.8613 47.959 13.3027C47.4277 12.7402 47.1621 11.9531 47.1621 10.9414C47.1621 9.89453 47.4316 9.08203 47.9707 8.50391C48.5098 7.92578 49.209 7.63672 50.0684 7.63672C50.9004 7.63672 51.5801 7.91992 52.1074 8.48633C52.6348 9.05273 52.8984 9.84961 52.8984 10.877C52.8984 10.9395 52.8965 11.0332 52.8926 11.1582H48.252C48.291 11.8418 48.4844 12.3652 48.832 12.7285C49.1797 13.0918 49.6133 13.2734 50.1328 13.2734C50.5195 13.2734 50.8496 13.1719 51.123 12.9688C51.3965 12.7656 51.6133 12.4414 51.7734 11.9961ZM48.3105 10.291H51.7852C51.7383 9.76758 51.6055 9.375 51.3867 9.11328C51.0508 8.70703 50.6152 8.50391 50.0801 8.50391C49.5957 8.50391 49.1875 8.66602 48.8555 8.99023C48.5273 9.31445 48.3457 9.74805 48.3105 10.291ZM55.9219 14L53.5547 7.77734H54.668L56.0039 11.5039C56.1484 11.9062 56.2812 12.3242 56.4023 12.7578C56.4961 12.4297 56.627 12.0352 56.7949 11.5742L58.1777 7.77734H59.2617L56.9062 14H55.9219ZM64.4531 11.9961L65.543 12.1309C65.3711 12.7676 65.0527 13.2617 64.5879 13.6133C64.123 13.9648 63.5293 14.1406 62.8066 14.1406C61.8965 14.1406 61.1738 13.8613 60.6387 13.3027C60.1074 12.7402 59.8418 11.9531 59.8418 10.9414C59.8418 9.89453 60.1113 9.08203 60.6504 8.50391C61.1895 7.92578 61.8887 7.63672 62.748 7.63672C63.5801 7.63672 64.2598 7.91992 64.7871 8.48633C65.3145 9.05273 65.5781 9.84961 65.5781 10.877C65.5781 10.9395 65.5762 11.0332 65.5723 11.1582H60.9316C60.9707 11.8418 61.1641 12.3652 61.5117 12.7285C61.8594 13.0918 62.293 13.2734 62.8125 13.2734C63.1992 13.2734 63.5293 13.1719 63.8027 12.9688C64.0762 12.7656 64.293 12.4414 64.4531 11.9961ZM60.9902 10.291H64.4648C64.418 9.76758 64.2852 9.375 64.0664 9.11328C63.7305 8.70703 63.2949 8.50391 62.7598 8.50391C62.2754 8.50391 61.8672 8.66602 61.5352 8.99023C61.207 9.31445 61.0254 9.74805 60.9902 10.291ZM66.8496 14V5.41016H67.9043V14H66.8496Z" fill="url(#paint0_linear_1_55)"/>
<path d="M6.07031 26.4707V28H0.298828C0.361328 27.4219 0.548828 26.875 0.861328 26.3594C1.17383 25.8398 1.79102 25.1523 2.71289 24.2969C3.45508 23.6055 3.91016 23.1367 4.07812 22.8906C4.30469 22.5508 4.41797 22.2148 4.41797 21.8828C4.41797 21.5156 4.31836 21.2344 4.11914 21.0391C3.92383 20.8398 3.65234 20.7402 3.30469 20.7402C2.96094 20.7402 2.6875 20.8438 2.48438 21.0508C2.28125 21.2578 2.16406 21.6016 2.13281 22.082L0.492188 21.918C0.589844 21.0117 0.896484 20.3613 1.41211 19.9668C1.92773 19.5723 2.57227 19.375 3.3457 19.375C4.19336 19.375 4.85938 19.6035 5.34375 20.0605C5.82812 20.5176 6.07031 21.0859 6.07031 21.7656C6.07031 22.1523 6 22.5215 5.85938 22.873C5.72266 23.2207 5.50391 23.5859 5.20312 23.9688C5.00391 24.2227 4.64453 24.5879 4.125 25.0645C3.60547 25.541 3.27539 25.8574 3.13477 26.0137C2.99805 26.1699 2.88672 26.3223 2.80078 26.4707H6.07031ZM9.97266 19.375C10.8047 19.375 11.4551 19.6719 11.9238 20.2656C12.4824 20.9688 12.7617 22.1348 12.7617 23.7637C12.7617 25.3887 12.4805 26.5566 11.918 27.2676C11.4531 27.8535 10.8047 28.1465 9.97266 28.1465C9.13672 28.1465 8.46289 27.8262 7.95117 27.1855C7.43945 26.541 7.18359 25.3945 7.18359 23.7461C7.18359 22.1289 7.46484 20.9648 8.02734 20.2539C8.49219 19.668 9.14062 19.375 9.97266 19.375ZM9.97266 20.7402C9.77344 20.7402 9.5957 20.8047 9.43945 20.9336C9.2832 21.0586 9.16211 21.2852 9.07617 21.6133C8.96289 22.0391 8.90625 22.7559 8.90625 23.7637C8.90625 24.7715 8.95703 25.4648 9.05859 25.8438C9.16016 26.2188 9.28711 26.4688 9.43945 26.5938C9.5957 26.7188 9.77344 26.7812 9.97266 26.7812C10.1719 26.7812 10.3496 26.7188 10.5059 26.5938C10.6621 26.4648 10.7832 26.2363 10.8691 25.9082C10.9824 25.4863 11.0391 24.7715 11.0391 23.7637C11.0391 22.7559 10.9883 22.0645 10.8867 21.6895C10.7852 21.3105 10.6562 21.0586 10.5 20.9336C10.3477 20.8047 10.1719 20.7402 9.97266 20.7402ZM13.8926 25.791L15.5332 25.6211C15.5801 25.9922 15.7188 26.2871 15.9492 26.5059C16.1797 26.7207 16.4453 26.8281 16.7461 26.8281C17.0898 26.8281 17.3809 26.6895 17.6191 26.4121C17.8574 26.1309 17.9766 25.709 17.9766 25.1465C17.9766 24.6191 17.8574 24.2246 17.6191 23.9629C17.3848 23.6973 17.0781 23.5645 16.6992 23.5645C16.2266 23.5645 15.8027 23.7734 15.4277 24.1914L14.0918 23.998L14.9355 19.5273H19.2891V21.0684H16.1836L15.9258 22.5273C16.293 22.3438 16.668 22.252 17.0508 22.252C17.7812 22.252 18.4004 22.5176 18.9082 23.0488C19.416 23.5801 19.6699 24.2695 19.6699 25.1172C19.6699 25.8242 19.4648 26.4551 19.0547 27.0098C18.4961 27.7676 17.7207 28.1465 16.7285 28.1465C15.9355 28.1465 15.2891 27.9336 14.7891 27.5078C14.2891 27.082 13.9902 26.5098 13.8926 25.791ZM20.9004 28V26.3535H22.5469V28H20.9004ZM23.8301 25.7207L25.4238 25.5273C25.4746 25.9336 25.6113 26.2441 25.834 26.459C26.0566 26.6738 26.3262 26.7812 26.6426 26.7812C26.9824 26.7812 27.2676 26.6523 27.498 26.3945C27.7324 26.1367 27.8496 25.7891 27.8496 25.3516C27.8496 24.9375 27.7383 24.6094 27.5156 24.3672C27.293 24.125 27.0215 24.0039 26.7012 24.0039C26.4902 24.0039 26.2383 24.0449 25.9453 24.127L26.127 22.7852C26.5723 22.7969 26.9121 22.7012 27.1465 22.498C27.3809 22.291 27.498 22.0176 27.498 21.6777C27.498 21.3887 27.4121 21.1582 27.2402 20.9863C27.0684 20.8145 26.8398 20.7285 26.5547 20.7285C26.2734 20.7285 26.0332 20.8262 25.834 21.0215C25.6348 21.2168 25.5137 21.502 25.4707 21.877L23.9531 21.6191C24.0586 21.0996 24.2168 20.6855 24.4277 20.377C24.6426 20.0645 24.9395 19.8203 25.3184 19.6445C25.7012 19.4648 26.1289 19.375 26.6016 19.375C27.4102 19.375 28.0586 19.6328 28.5469 20.1484C28.9492 20.5703 29.1504 21.0469 29.1504 21.5781C29.1504 22.332 28.7383 22.9336 27.9141 23.3828C28.4062 23.4883 28.7988 23.7246 29.0918 24.0918C29.3887 24.459 29.5371 24.9023 29.5371 25.4219C29.5371 26.1758 29.2617 26.8184 28.7109 27.3496C28.1602 27.8809 27.4746 28.1465 26.6543 28.1465C25.877 28.1465 25.2324 27.9238 24.7207 27.4785C24.209 27.0293 23.9121 26.4434 23.8301 25.7207ZM33.3516 19.375C34.1836 19.375 34.834 19.6719 35.3027 20.2656C35.8613 20.9688 36.1406 22.1348 36.1406 23.7637C36.1406 25.3887 35.8594 26.5566 35.2969 27.2676C34.832 27.8535 34.1836 28.1465 33.3516 28.1465C32.5156 28.1465 31.8418 27.8262 31.3301 27.1855C30.8184 26.541 30.5625 25.3945 30.5625 23.7461C30.5625 22.1289 30.8438 20.9648 31.4062 20.2539C31.8711 19.668 32.5195 19.375 33.3516 19.375ZM33.3516 20.7402C33.1523 20.7402 32.9746 20.8047 32.8184 20.9336C32.6621 21.0586 32.541 21.2852 32.4551 21.6133C32.3418 22.0391 32.2852 22.7559 32.2852 23.7637C32.2852 24.7715 32.3359 25.4648 32.4375 25.8438C32.5391 26.2188 32.666 26.4688 32.8184 26.5938C32.9746 26.7188 33.1523 26.7812 33.3516 26.7812C33.5508 26.7812 33.7285 26.7188 33.8848 26.5938C34.041 26.4648 34.1621 26.2363 34.248 25.9082C34.3613 25.4863 34.418 24.7715 34.418 23.7637C34.418 22.7559 34.3672 22.0645 34.2656 21.6895C34.1641 21.3105 34.0352 21.0586 33.8789 20.9336C33.7266 20.8047 33.5508 20.7402 33.3516 20.7402ZM37.2598 21.5312C37.2598 20.7617 37.4277 20.1914 37.7637 19.8203C38.1035 19.4492 38.5625 19.2637 39.1406 19.2637C39.7383 19.2637 40.2051 19.4492 40.541 19.8203C40.8809 20.1875 41.0508 20.7578 41.0508 21.5312C41.0508 22.3008 40.8809 22.8711 40.541 23.2422C40.2051 23.6133 39.748 23.7988 39.1699 23.7988C38.5723 23.7988 38.1035 23.6152 37.7637 23.248C37.4277 22.877 37.2598 22.3047 37.2598 21.5312ZM38.543 21.5195C38.543 22.0781 38.6074 22.4531 38.7363 22.6445C38.834 22.7852 38.9688 22.8555 39.1406 22.8555C39.3164 22.8555 39.4531 22.7852 39.5508 22.6445C39.6758 22.4531 39.7383 22.0781 39.7383 21.5195C39.7383 20.9609 39.6758 20.5879 39.5508 20.4004C39.4531 20.2559 39.3164 20.1836 39.1406 20.1836C38.9688 20.1836 38.834 20.2539 38.7363 20.3945C38.6074 20.5859 38.543 20.9609 38.543 21.5195ZM40.3945 28.3281H39.1758L43.752 19.2637H44.9355L40.3945 28.3281ZM43.0547 26.0723C43.0547 25.3027 43.2227 24.7324 43.5586 24.3613C43.8984 23.9902 44.3613 23.8047 44.9473 23.8047C45.5371 23.8047 46 23.9902 46.3359 24.3613C46.6758 24.7324 46.8457 25.3027 46.8457 26.0723C46.8457 26.8457 46.6758 27.418 46.3359 27.7891C46 28.1602 45.543 28.3457 44.9648 28.3457C44.3672 28.3457 43.8984 28.1602 43.5586 27.7891C43.2227 27.418 43.0547 26.8457 43.0547 26.0723ZM44.3379 26.0664C44.3379 26.625 44.4023 26.998 44.5312 27.1855C44.6289 27.3301 44.7637 27.4023 44.9355 27.4023C45.1113 27.4023 45.2461 27.332 45.3398 27.1914C45.4688 27 45.5332 26.625 45.5332 26.0664C45.5332 25.5078 45.4707 25.1328 45.3457 24.9414C45.248 24.8008 45.1113 24.7305 44.9355 24.7305C44.7598 24.7305 44.625 24.8008 44.5312 24.9414C44.4023 25.1328 44.3379 25.5078 44.3379 26.0664Z" fill="white"/>
<defs>
<linearGradient id="paint0_linear_1_55" x1="43" y1="4" x2="43" y2="16" gradientUnits="userSpaceOnUse">
<stop stop-color="white"/>
<stop offset="1" stop-color="#767676"/>
</linearGradient>
</defs>
</svg>
