<svg width="33" height="33" viewBox="0 0 33 33" fill="none" xmlns="http://www.w3.org/2000/svg">
<rect width="32" height="32" rx="16" transform="matrix(-1 0 0 1 32.5 0.5)" fill="#111111"/>
<rect width="32" height="32" rx="16" transform="matrix(-1 0 0 1 32.5 0.5)" stroke="url(#paint0_linear_1_77)" stroke-linecap="round" stroke-linejoin="round"/>
<path d="M12 15C12.0001 14.9144 12.0029 14.8291 12.0078 14.7441C12.0031 14.8292 11.9999 14.9145 12 15ZM12.0156 14.6279C12.0195 14.5822 12.025 14.5367 12.0303 14.4912C12.0252 14.5367 12.0193 14.5822 12.0156 14.6279ZM17.9648 10.748C17.9767 10.7522 17.9882 10.7575 18 10.7617C17.9882 10.7575 17.9767 10.7522 17.9648 10.748ZM17.5381 10.626C17.5755 10.635 17.6132 10.6424 17.6504 10.6523C17.6132 10.6424 17.5755 10.6349 17.5381 10.626ZM17.1768 10.5537C17.2356 10.5628 17.2942 10.5725 17.3525 10.584C17.2942 10.5726 17.2356 10.5628 17.1768 10.5537ZM15.8125 10.5537C15.8259 10.5516 15.8391 10.5488 15.8525 10.5469C15.8391 10.5488 15.8259 10.5517 15.8125 10.5537ZM16.5 10.4766L16.9492 10.5225C16.9773 10.5253 17.0052 10.5308 17.0332 10.5342C16.8572 10.5128 16.6793 10.5004 16.501 10.5C16.3281 10.4997 16.1561 10.5109 15.9854 10.5303C16.0071 10.5277 16.029 10.5247 16.0508 10.5225L16.5 10.4766Z" stroke="white"/>
<path d="M21.5 14.5C22.6046 14.5 23.5 13.6046 23.5 12.5C23.5 11.3954 22.6046 10.5 21.5 10.5C20.3954 10.5 19.5 11.3954 19.5 12.5C19.5 13.6046 20.3954 14.5 21.5 14.5Z" fill="#E85102"/>
<defs>
<linearGradient id="paint0_linear_1_77" x1="10.4795" y1="-44.5" x2="72.9168" y2="-8.90403" gradientUnits="userSpaceOnUse">
<stop stop-color="#767676"/>
<stop offset="0.490038" stop-color="#0B0B0B" stop-opacity="0.26"/>
<stop offset="1" stop-color="#767676"/>
</linearGradient>
</defs>
</svg>
