<svg width="29" height="29" viewBox="0 0 29 29" fill="none" xmlns="http://www.w3.org/2000/svg">
<path d="M27 14.5C27 21.4036 21.4036 27 14.5 27C7.59644 27 2 21.4036 2 14.5C2 7.59644 7.59644 2 14.5 2C21.4036 2 27 7.59644 27 14.5ZM5.125 14.5C5.125 19.6777 9.32233 23.875 14.5 23.875C19.6777 23.875 23.875 19.6777 23.875 14.5C23.875 9.32233 19.6777 5.125 14.5 5.125C9.32233 5.125 5.125 9.32233 5.125 14.5Z" fill="#1C1B20"/>
<path d="M14.5 2C16.9723 2 19.389 2.73311 21.4446 4.10663C23.5002 5.48015 25.1024 7.43238 26.0485 9.71646C26.9946 12.0005 27.2421 14.5139 26.7598 16.9386C26.2775 19.3634 25.087 21.5907 23.3388 23.3388C21.5907 25.087 19.3634 26.2775 16.9386 26.7598C14.5139 27.2421 12.0005 26.9946 9.71646 26.0485C7.43238 25.1024 5.48015 23.5002 4.10663 21.4446C2.73311 19.389 2 16.9723 2 14.5H5.125C5.125 16.3542 5.67483 18.1668 6.70497 19.7085C7.73511 21.2502 9.19929 22.4518 10.9123 23.1614C12.6254 23.8709 14.5104 24.0566 16.329 23.6949C18.1475 23.3331 19.818 22.4402 21.1291 21.1291C22.4402 19.818 23.3331 18.1475 23.6949 16.329C24.0566 14.5104 23.8709 12.6254 23.1614 10.9123C22.4518 9.19929 21.2502 7.73511 19.7085 6.70497C18.1668 5.67483 16.3542 5.125 14.5 5.125V2Z" fill="#E85102"/>
</svg>
