<svg width="172" height="33" viewBox="0 0 172 33" fill="none" xmlns="http://www.w3.org/2000/svg">
<rect x="0.5" y="0.5" width="171" height="32" rx="16" fill="#111111"/>
<rect x="0.5" y="0.5" width="171" height="32" rx="16" stroke="url(#paint0_linear_1_64)" stroke-linecap="round" stroke-linejoin="round"/>
<path d="M10.9492 17.7002L11.8428 17.6221C11.8851 17.9801 11.9827 18.2747 12.1357 18.5059C12.292 18.7337 12.5329 18.9193 12.8584 19.0625C13.1839 19.2025 13.5501 19.2725 13.957 19.2725C14.3184 19.2725 14.6374 19.2188 14.9141 19.1113C15.1908 19.0039 15.3958 18.8574 15.5293 18.6719C15.666 18.4831 15.7344 18.278 15.7344 18.0566C15.7344 17.832 15.6693 17.6367 15.5391 17.4707C15.4089 17.3014 15.194 17.1598 14.8945 17.0459C14.7025 16.971 14.2777 16.8555 13.6201 16.6992C12.9626 16.5397 12.502 16.39 12.2383 16.25C11.8965 16.071 11.641 15.8496 11.4717 15.5859C11.3057 15.319 11.2227 15.0212 11.2227 14.6924C11.2227 14.3311 11.3252 13.9941 11.5303 13.6816C11.7354 13.3659 12.0348 13.1266 12.4287 12.9639C12.8226 12.8011 13.2604 12.7197 13.7422 12.7197C14.2728 12.7197 14.7399 12.806 15.1436 12.9785C15.5505 13.1478 15.863 13.3984 16.0811 13.7305C16.2992 14.0625 16.4163 14.4385 16.4326 14.8584L15.5244 14.9268C15.4756 14.4743 15.3096 14.1325 15.0264 13.9014C14.7464 13.6702 14.3314 13.5547 13.7812 13.5547C13.2083 13.5547 12.79 13.6605 12.5264 13.8721C12.266 14.0804 12.1357 14.3327 12.1357 14.6289C12.1357 14.8861 12.2285 15.0977 12.4141 15.2637C12.5964 15.4297 13.0716 15.6006 13.8398 15.7764C14.6113 15.9489 15.1403 16.1003 15.4268 16.2305C15.8434 16.4225 16.151 16.6667 16.3496 16.9629C16.5482 17.2559 16.6475 17.5944 16.6475 17.9785C16.6475 18.3594 16.5384 18.7191 16.3203 19.0576C16.1022 19.3929 15.7881 19.6549 15.3779 19.8438C14.971 20.0293 14.512 20.1221 14.001 20.1221C13.3532 20.1221 12.8096 20.0277 12.3701 19.8389C11.9339 19.6501 11.5905 19.3669 11.3398 18.9893C11.0924 18.6084 10.9622 18.1787 10.9492 17.7002ZM21.3789 18.3301L22.2871 18.4424C22.1439 18.973 21.8786 19.3848 21.4912 19.6777C21.1038 19.9707 20.609 20.1172 20.0068 20.1172C19.2484 20.1172 18.6462 19.8844 18.2002 19.4189C17.7575 18.9502 17.5361 18.2943 17.5361 17.4512C17.5361 16.5788 17.7607 15.9017 18.21 15.4199C18.6592 14.9382 19.2419 14.6973 19.958 14.6973C20.6514 14.6973 21.2178 14.9333 21.6572 15.4053C22.0967 15.8773 22.3164 16.5413 22.3164 17.3975C22.3164 17.4495 22.3148 17.5277 22.3115 17.6318H18.4443C18.4769 18.2015 18.638 18.6377 18.9277 18.9404C19.2174 19.2432 19.5788 19.3945 20.0117 19.3945C20.334 19.3945 20.609 19.3099 20.8369 19.1406C21.0648 18.9714 21.2454 18.7012 21.3789 18.3301ZM18.4932 16.9092H21.3887C21.3496 16.473 21.2389 16.1458 21.0566 15.9277C20.7767 15.5892 20.4137 15.4199 19.9678 15.4199C19.5641 15.4199 19.224 15.555 18.9473 15.8252C18.6738 16.0954 18.5225 16.4567 18.4932 16.9092ZM26.7793 19.3604C26.4538 19.637 26.1396 19.8324 25.8369 19.9463C25.5374 20.0602 25.2152 20.1172 24.8701 20.1172C24.3005 20.1172 23.8626 19.9788 23.5566 19.7021C23.2507 19.4222 23.0977 19.0658 23.0977 18.6328C23.0977 18.3789 23.1546 18.1478 23.2686 17.9395C23.3857 17.7279 23.5371 17.5586 23.7227 17.4316C23.9115 17.3047 24.123 17.2087 24.3574 17.1436C24.5299 17.098 24.7904 17.054 25.1387 17.0117C25.8483 16.9271 26.3708 16.8262 26.7061 16.709C26.7093 16.5885 26.7109 16.512 26.7109 16.4795C26.7109 16.1214 26.6279 15.8691 26.4619 15.7227C26.2373 15.5241 25.9036 15.4248 25.4609 15.4248C25.0475 15.4248 24.7415 15.498 24.543 15.6445C24.3477 15.7878 24.2028 16.0433 24.1084 16.4111L23.249 16.2939C23.3271 15.9261 23.4557 15.6299 23.6348 15.4053C23.8138 15.1774 24.0726 15.0033 24.4111 14.8828C24.7497 14.7591 25.1419 14.6973 25.5879 14.6973C26.0306 14.6973 26.3903 14.7493 26.667 14.8535C26.9437 14.9577 27.1471 15.0895 27.2773 15.249C27.4076 15.4053 27.4987 15.6038 27.5508 15.8447C27.5801 15.9945 27.5947 16.2646 27.5947 16.6553V17.8271C27.5947 18.6442 27.6126 19.1618 27.6484 19.3799C27.6875 19.5947 27.7624 19.8014 27.873 20H26.9551C26.8639 19.8177 26.8053 19.6045 26.7793 19.3604ZM26.7061 17.3975C26.387 17.5277 25.9085 17.6383 25.2705 17.7295C24.9092 17.7816 24.6536 17.8402 24.5039 17.9053C24.3542 17.9704 24.2386 18.0664 24.1572 18.1934C24.0758 18.3171 24.0352 18.4554 24.0352 18.6084C24.0352 18.8428 24.123 19.0381 24.2988 19.1943C24.4779 19.3506 24.7383 19.4287 25.0801 19.4287C25.4186 19.4287 25.7197 19.3555 25.9834 19.209C26.2471 19.0592 26.4408 18.8558 26.5645 18.5986C26.6589 18.4001 26.7061 18.1071 26.7061 17.7197V17.3975ZM28.9521 20V14.8145H29.7432V15.6006C29.945 15.2327 30.1305 14.9902 30.2998 14.873C30.4723 14.7559 30.6611 14.6973 30.8662 14.6973C31.1624 14.6973 31.4635 14.7917 31.7695 14.9805L31.4668 15.7959C31.252 15.6689 31.0371 15.6055 30.8223 15.6055C30.6302 15.6055 30.4577 15.6641 30.3047 15.7812C30.1517 15.8952 30.0426 16.0547 29.9775 16.2598C29.8799 16.5723 29.8311 16.9141 29.8311 17.2852V20H28.9521ZM35.6758 18.1006L36.54 18.2129C36.4456 18.8086 36.2031 19.2757 35.8125 19.6143C35.4251 19.9495 34.9482 20.1172 34.3818 20.1172C33.6722 20.1172 33.1009 19.8861 32.668 19.4238C32.2383 18.9583 32.0234 18.2926 32.0234 17.4268C32.0234 16.8669 32.1162 16.377 32.3018 15.957C32.4873 15.5371 32.7689 15.223 33.1465 15.0146C33.5273 14.8031 33.9408 14.6973 34.3867 14.6973C34.9499 14.6973 35.4105 14.8405 35.7686 15.127C36.1266 15.4102 36.3561 15.8138 36.457 16.3379L35.6025 16.4697C35.5212 16.1214 35.3763 15.8594 35.168 15.6836C34.9629 15.5078 34.7139 15.4199 34.4209 15.4199C33.9782 15.4199 33.6185 15.5794 33.3418 15.8984C33.0651 16.2142 32.9268 16.7155 32.9268 17.4023C32.9268 18.099 33.0602 18.6051 33.3271 18.9209C33.5941 19.2367 33.9424 19.3945 34.3721 19.3945C34.7171 19.3945 35.0052 19.2887 35.2363 19.0771C35.4674 18.8656 35.6139 18.54 35.6758 18.1006ZM37.292 20V12.8418H38.1709V15.4102C38.5811 14.9349 39.0986 14.6973 39.7236 14.6973C40.1077 14.6973 40.4414 14.7738 40.7246 14.9268C41.0078 15.0765 41.2096 15.2848 41.3301 15.5518C41.4538 15.8187 41.5156 16.2061 41.5156 16.7139V20H40.6367V16.7139C40.6367 16.2744 40.5407 15.9554 40.3486 15.7568C40.1598 15.555 39.8913 15.4541 39.543 15.4541C39.2826 15.4541 39.0368 15.5225 38.8057 15.6592C38.5778 15.7926 38.415 15.9749 38.3174 16.2061C38.2197 16.4372 38.1709 16.7562 38.1709 17.1631V20H37.292ZM45.915 20V12.8418H46.8623V20H45.915ZM48.4248 20V14.8145H49.2158V15.5518C49.5967 14.9821 50.1468 14.6973 50.8662 14.6973C51.1787 14.6973 51.4652 14.7542 51.7256 14.8682C51.9893 14.9788 52.1862 15.1253 52.3164 15.3076C52.4466 15.4899 52.5378 15.7064 52.5898 15.957C52.6224 16.1198 52.6387 16.4046 52.6387 16.8115V20H51.7598V16.8457C51.7598 16.4876 51.7256 16.2207 51.6572 16.0449C51.5889 15.8659 51.4668 15.7243 51.291 15.6201C51.1185 15.5127 50.915 15.459 50.6807 15.459C50.3063 15.459 49.9824 15.5778 49.709 15.8154C49.4388 16.0531 49.3037 16.5039 49.3037 17.168V20H48.4248ZM53.6396 18.4521L54.5088 18.3154C54.5576 18.6637 54.6927 18.9307 54.9141 19.1162C55.1387 19.3018 55.4512 19.3945 55.8516 19.3945C56.2552 19.3945 56.5547 19.3132 56.75 19.1504C56.9453 18.9844 57.043 18.7907 57.043 18.5693C57.043 18.3708 56.9567 18.2145 56.7842 18.1006C56.6637 18.0225 56.3643 17.9232 55.8857 17.8027C55.2412 17.64 54.7936 17.5 54.543 17.3828C54.2956 17.2624 54.1068 17.098 53.9766 16.8896C53.8496 16.6781 53.7861 16.4453 53.7861 16.1914C53.7861 15.9603 53.8382 15.7471 53.9424 15.5518C54.0498 15.3532 54.1947 15.1888 54.377 15.0586C54.5137 14.9577 54.6992 14.873 54.9336 14.8047C55.1712 14.7331 55.4251 14.6973 55.6953 14.6973C56.1022 14.6973 56.4587 14.7559 56.7646 14.873C57.0739 14.9902 57.3018 15.1497 57.4482 15.3516C57.5947 15.5501 57.6956 15.8171 57.751 16.1523L56.8916 16.2695C56.8525 16.0026 56.7386 15.7943 56.5498 15.6445C56.3643 15.4948 56.1006 15.4199 55.7588 15.4199C55.3551 15.4199 55.0671 15.4867 54.8945 15.6201C54.722 15.7536 54.6357 15.9098 54.6357 16.0889C54.6357 16.2028 54.6715 16.3053 54.7432 16.3965C54.8148 16.4909 54.9271 16.569 55.0801 16.6309C55.168 16.6634 55.4268 16.7383 55.8564 16.8555C56.4782 17.0215 56.9111 17.1582 57.1553 17.2656C57.4027 17.3698 57.5964 17.5228 57.7363 17.7246C57.8763 17.9264 57.9463 18.1771 57.9463 18.4766C57.9463 18.7695 57.86 19.0462 57.6875 19.3066C57.5182 19.5638 57.2725 19.764 56.9502 19.9072C56.6279 20.0472 56.2633 20.1172 55.8564 20.1172C55.1826 20.1172 54.6683 19.9772 54.3135 19.6973C53.9619 19.4173 53.7373 19.0023 53.6396 18.4521ZM60.9102 19.2139L61.0371 19.9902C60.7897 20.0423 60.5684 20.0684 60.373 20.0684C60.054 20.0684 59.8066 20.0179 59.6309 19.917C59.4551 19.8161 59.3314 19.6842 59.2598 19.5215C59.1882 19.3555 59.1523 19.0088 59.1523 18.4814V15.498H58.5078V14.8145H59.1523V13.5303L60.0264 13.0029V14.8145H60.9102V15.498H60.0264V18.5303C60.0264 18.7809 60.041 18.9421 60.0703 19.0137C60.1029 19.0853 60.1533 19.1423 60.2217 19.1846C60.2933 19.2269 60.3942 19.248 60.5244 19.248C60.6221 19.248 60.7507 19.2367 60.9102 19.2139ZM61.7646 20V14.8145H62.5557V15.6006C62.7575 15.2327 62.943 14.9902 63.1123 14.873C63.2848 14.7559 63.4736 14.6973 63.6787 14.6973C63.9749 14.6973 64.276 14.7917 64.582 14.9805L64.2793 15.7959C64.0645 15.6689 63.8496 15.6055 63.6348 15.6055C63.4427 15.6055 63.2702 15.6641 63.1172 15.7812C62.9642 15.8952 62.8551 16.0547 62.79 16.2598C62.6924 16.5723 62.6436 16.9141 62.6436 17.2852V20H61.7646ZM68.5029 20V19.2383C68.0993 19.8242 67.5508 20.1172 66.8574 20.1172C66.5514 20.1172 66.265 20.0586 65.998 19.9414C65.7344 19.8242 65.5374 19.6777 65.4072 19.502C65.2803 19.3229 65.1908 19.1048 65.1387 18.8477C65.1029 18.6751 65.085 18.4017 65.085 18.0273V14.8145H65.9639V17.6904C65.9639 18.1494 65.9818 18.4587 66.0176 18.6182C66.0729 18.8493 66.1901 19.0316 66.3691 19.165C66.5482 19.2952 66.7695 19.3604 67.0332 19.3604C67.2969 19.3604 67.5443 19.2936 67.7754 19.1602C68.0065 19.0234 68.1693 18.8395 68.2637 18.6084C68.3613 18.374 68.4102 18.0355 68.4102 17.5928V14.8145H69.2891V20H68.5029ZM70.6709 20V14.8145H71.457V15.542C71.6198 15.2881 71.8363 15.0846 72.1064 14.9316C72.3766 14.7754 72.6842 14.6973 73.0293 14.6973C73.4134 14.6973 73.7275 14.777 73.9717 14.9365C74.2191 15.096 74.3932 15.319 74.4941 15.6055C74.9043 15 75.4382 14.6973 76.0957 14.6973C76.61 14.6973 77.0055 14.8405 77.2822 15.127C77.5589 15.4102 77.6973 15.848 77.6973 16.4404V20H76.8232V16.7334C76.8232 16.3818 76.7939 16.1296 76.7354 15.9766C76.68 15.8203 76.5775 15.695 76.4277 15.6006C76.278 15.5062 76.1022 15.459 75.9004 15.459C75.5358 15.459 75.2331 15.5811 74.9922 15.8252C74.7513 16.0661 74.6309 16.4535 74.6309 16.9873V20H73.752V16.6309C73.752 16.2402 73.6803 15.9473 73.5371 15.752C73.3939 15.5566 73.1595 15.459 72.834 15.459C72.5866 15.459 72.3571 15.5241 72.1455 15.6543C71.9372 15.7845 71.7858 15.9749 71.6914 16.2256C71.597 16.4762 71.5498 16.8376 71.5498 17.3096V20H70.6709ZM82.5508 18.3301L83.459 18.4424C83.3158 18.973 83.0505 19.3848 82.6631 19.6777C82.2757 19.9707 81.7809 20.1172 81.1787 20.1172C80.4202 20.1172 79.818 19.8844 79.3721 19.4189C78.9294 18.9502 78.708 18.2943 78.708 17.4512C78.708 16.5788 78.9326 15.9017 79.3818 15.4199C79.8311 14.9382 80.4137 14.6973 81.1299 14.6973C81.8232 14.6973 82.3896 14.9333 82.8291 15.4053C83.2686 15.8773 83.4883 16.5413 83.4883 17.3975C83.4883 17.4495 83.4867 17.5277 83.4834 17.6318H79.6162C79.6488 18.2015 79.8099 18.6377 80.0996 18.9404C80.3893 19.2432 80.7507 19.3945 81.1836 19.3945C81.5059 19.3945 81.7809 19.3099 82.0088 19.1406C82.2367 18.9714 82.4173 18.7012 82.5508 18.3301ZM79.665 16.9092H82.5605C82.5215 16.473 82.4108 16.1458 82.2285 15.9277C81.9486 15.5892 81.5856 15.4199 81.1396 15.4199C80.736 15.4199 80.3958 15.555 80.1191 15.8252C79.8457 16.0954 79.6943 16.4567 79.665 16.9092ZM84.5674 20V14.8145H85.3584V15.5518C85.7393 14.9821 86.2894 14.6973 87.0088 14.6973C87.3213 14.6973 87.6077 14.7542 87.8682 14.8682C88.1318 14.9788 88.3288 15.1253 88.459 15.3076C88.5892 15.4899 88.6803 15.7064 88.7324 15.957C88.765 16.1198 88.7812 16.4046 88.7812 16.8115V20H87.9023V16.8457C87.9023 16.4876 87.8682 16.2207 87.7998 16.0449C87.7314 15.8659 87.6094 15.7243 87.4336 15.6201C87.2611 15.5127 87.0576 15.459 86.8232 15.459C86.4489 15.459 86.125 15.5778 85.8516 15.8154C85.5814 16.0531 85.4463 16.5039 85.4463 17.168V20H84.5674ZM92.0527 19.2139L92.1797 19.9902C91.9323 20.0423 91.7109 20.0684 91.5156 20.0684C91.1966 20.0684 90.9492 20.0179 90.7734 19.917C90.5977 19.8161 90.474 19.6842 90.4023 19.5215C90.3307 19.3555 90.2949 19.0088 90.2949 18.4814V15.498H89.6504V14.8145H90.2949V13.5303L91.1689 13.0029V14.8145H92.0527V15.498H91.1689V18.5303C91.1689 18.7809 91.1836 18.9421 91.2129 19.0137C91.2454 19.0853 91.2959 19.1423 91.3643 19.1846C91.4359 19.2269 91.5368 19.248 91.667 19.248C91.7646 19.248 91.8932 19.2367 92.0527 19.2139ZM92.5654 18.4521L93.4346 18.3154C93.4834 18.6637 93.6185 18.9307 93.8398 19.1162C94.0645 19.3018 94.377 19.3945 94.7773 19.3945C95.181 19.3945 95.4805 19.3132 95.6758 19.1504C95.8711 18.9844 95.9688 18.7907 95.9688 18.5693C95.9688 18.3708 95.8825 18.2145 95.71 18.1006C95.5895 18.0225 95.29 17.9232 94.8115 17.8027C94.167 17.64 93.7194 17.5 93.4688 17.3828C93.2214 17.2624 93.0326 17.098 92.9023 16.8896C92.7754 16.6781 92.7119 16.4453 92.7119 16.1914C92.7119 15.9603 92.764 15.7471 92.8682 15.5518C92.9756 15.3532 93.1204 15.1888 93.3027 15.0586C93.4395 14.9577 93.625 14.873 93.8594 14.8047C94.097 14.7331 94.3509 14.6973 94.6211 14.6973C95.028 14.6973 95.3844 14.7559 95.6904 14.873C95.9997 14.9902 96.2275 15.1497 96.374 15.3516C96.5205 15.5501 96.6214 15.8171 96.6768 16.1523L95.8174 16.2695C95.7783 16.0026 95.6644 15.7943 95.4756 15.6445C95.29 15.4948 95.0264 15.4199 94.6846 15.4199C94.2809 15.4199 93.9928 15.4867 93.8203 15.6201C93.6478 15.7536 93.5615 15.9098 93.5615 16.0889C93.5615 16.2028 93.5973 16.3053 93.6689 16.3965C93.7406 16.4909 93.8529 16.569 94.0059 16.6309C94.0938 16.6634 94.3525 16.7383 94.7822 16.8555C95.404 17.0215 95.8369 17.1582 96.0811 17.2656C96.3285 17.3698 96.5221 17.5228 96.6621 17.7246C96.8021 17.9264 96.8721 18.1771 96.8721 18.4766C96.8721 18.7695 96.7858 19.0462 96.6133 19.3066C96.444 19.5638 96.1982 19.764 95.876 19.9072C95.5537 20.0472 95.1891 20.1172 94.7822 20.1172C94.1084 20.1172 93.5941 19.9772 93.2393 19.6973C92.8877 19.4173 92.6631 19.0023 92.5654 18.4521Z" fill="#A2A2A2"/>
<g filter="url(#filter0_i_1_64)">
<rect x="143.5" y="4.5" width="24" height="24" rx="12" fill="url(#paint1_linear_1_64)"/>
<path d="M159.5 20.5L157.57 18.5698M157.57 18.5698C157.9 18.2396 158.162 17.8477 158.341 17.4163C158.519 16.9849 158.611 16.5225 158.611 16.0556C158.611 15.5887 158.519 15.1263 158.341 14.6949C158.162 14.2635 157.9 13.8716 157.57 13.5414C157.24 13.2112 156.848 12.9493 156.416 12.7707C155.985 12.592 155.523 12.5 155.056 12.5C154.589 12.5 154.126 12.592 153.695 12.7707C153.264 12.9493 152.872 13.2112 152.541 13.5414C151.875 14.2082 151.5 15.1126 151.5 16.0556C151.5 16.9986 151.875 17.903 152.541 18.5698C153.208 19.2366 154.113 19.6112 155.056 19.6112C155.999 19.6112 156.903 19.2366 157.57 18.5698Z" stroke="white" stroke-linecap="round" stroke-linejoin="round"/>
</g>
<defs>
<filter id="filter0_i_1_64" x="143.5" y="2.5" width="24" height="26" filterUnits="userSpaceOnUse" color-interpolation-filters="sRGB">
<feFlood flood-opacity="0" result="BackgroundImageFix"/>
<feBlend mode="normal" in="SourceGraphic" in2="BackgroundImageFix" result="shape"/>
<feColorMatrix in="SourceAlpha" type="matrix" values="0 0 0 0 0 0 0 0 0 0 0 0 0 0 0 0 0 0 127 0" result="hardAlpha"/>
<feOffset dy="-2"/>
<feGaussianBlur stdDeviation="1.5"/>
<feComposite in2="hardAlpha" operator="arithmetic" k2="-1" k3="1"/>
<feColorMatrix type="matrix" values="0 0 0 0 0.909804 0 0 0 0 0.317647 0 0 0 0 0.00784314 0 0 0 1 0"/>
<feBlend mode="normal" in2="shape" result="effect1_innerShadow_1_64"/>
</filter>
<linearGradient id="paint0_linear_1_64" x1="56.5" y1="-44" x2="99.5" y2="87" gradientUnits="userSpaceOnUse">
<stop stop-color="#767676"/>
<stop offset="0.490038" stop-color="#0B0B0B" stop-opacity="0.26"/>
<stop offset="1" stop-color="#767676"/>
</linearGradient>
<linearGradient id="paint1_linear_1_64" x1="155.5" y1="4.5" x2="155.5" y2="28.5" gradientUnits="userSpaceOnUse">
<stop stop-color="#111111" stop-opacity="0"/>
<stop offset="1" stop-color="#E85102" stop-opacity="0.75"/>
</linearGradient>
</defs>
</svg>
