<svg width="86" height="34" viewBox="0 0 86 34" fill="none" xmlns="http://www.w3.org/2000/svg">
<path d="M3.11133 14V6.42383H0.28125V5.41016H7.08984V6.42383H4.24805V14H3.11133ZM7.6875 6.62305V5.41016H8.74219V6.62305H7.6875ZM7.6875 14V7.77734H8.74219V14H7.6875ZM10.3535 14V7.77734H11.2969V8.65039C11.4922 8.3457 11.752 8.10156 12.0762 7.91797C12.4004 7.73047 12.7695 7.63672 13.1836 7.63672C13.6445 7.63672 14.0215 7.73242 14.3145 7.92383C14.6113 8.11523 14.8203 8.38281 14.9414 8.72656C15.4336 8 16.0742 7.63672 16.8633 7.63672C17.4805 7.63672 17.9551 7.80859 18.2871 8.15234C18.6191 8.49219 18.7852 9.01758 18.7852 9.72852V14H17.7363V10.0801C17.7363 9.6582 17.7012 9.35547 17.6309 9.17188C17.5645 8.98438 17.4414 8.83398 17.2617 8.7207C17.082 8.60742 16.8711 8.55078 16.6289 8.55078C16.1914 8.55078 15.8281 8.69727 15.5391 8.99023C15.25 9.2793 15.1055 9.74414 15.1055 10.3848V14H14.0508V9.95703C14.0508 9.48828 13.9648 9.13672 13.793 8.90234C13.6211 8.66797 13.3398 8.55078 12.9492 8.55078C12.6523 8.55078 12.377 8.62891 12.123 8.78516C11.873 8.94141 11.6914 9.16992 11.5781 9.4707C11.4648 9.77148 11.4082 10.2051 11.4082 10.7715V14H10.3535ZM24.6094 11.9961L25.6992 12.1309C25.5273 12.7676 25.209 13.2617 24.7441 13.6133C24.2793 13.9648 23.6855 14.1406 22.9629 14.1406C22.0527 14.1406 21.3301 13.8613 20.7949 13.3027C20.2637 12.7402 19.998 11.9531 19.998 10.9414C19.998 9.89453 20.2676 9.08203 20.8066 8.50391C21.3457 7.92578 22.0449 7.63672 22.9043 7.63672C23.7363 7.63672 24.416 7.91992 24.9434 8.48633C25.4707 9.05273 25.7344 9.84961 25.7344 10.877C25.7344 10.9395 25.7324 11.0332 25.7285 11.1582H21.0879C21.127 11.8418 21.3203 12.3652 21.668 12.7285C22.0156 13.0918 22.4492 13.2734 22.9688 13.2734C23.3555 13.2734 23.6855 13.1719 23.959 12.9688C24.2324 12.7656 24.4492 12.4414 24.6094 11.9961ZM21.1465 10.291H24.6211C24.5742 9.76758 24.4414 9.375 24.2227 9.11328C23.8867 8.70703 23.4512 8.50391 22.916 8.50391C22.4316 8.50391 22.0234 8.66602 21.6914 8.99023C21.3633 9.31445 21.1816 9.74805 21.1465 10.291ZM29.8184 14V12.9453L34.2188 7.44336C34.5312 7.05273 34.8281 6.71289 35.1094 6.42383H30.3164V5.41016H36.4688V6.42383L31.6465 12.3828L31.125 12.9863H36.6094V14H29.8184ZM37.3125 10.8887C37.3125 9.73633 37.6328 8.88281 38.2734 8.32812C38.8086 7.86719 39.4609 7.63672 40.2305 7.63672C41.0859 7.63672 41.7852 7.91797 42.3281 8.48047C42.8711 9.03906 43.1426 9.8125 43.1426 10.8008C43.1426 11.6016 43.0215 12.2324 42.7793 12.6934C42.541 13.1504 42.1914 13.5059 41.7305 13.7598C41.2734 14.0137 40.7734 14.1406 40.2305 14.1406C39.3594 14.1406 38.6543 13.8613 38.1152 13.3027C37.5801 12.7441 37.3125 11.9395 37.3125 10.8887ZM38.3965 10.8887C38.3965 11.6855 38.5703 12.2832 38.918 12.6816C39.2656 13.0762 39.7031 13.2734 40.2305 13.2734C40.7539 13.2734 41.1895 13.0742 41.5371 12.6758C41.8848 12.2773 42.0586 11.6699 42.0586 10.8535C42.0586 10.084 41.8828 9.50195 41.5312 9.10742C41.1836 8.70898 40.75 8.50977 40.2305 8.50977C39.7031 8.50977 39.2656 8.70703 38.918 9.10156C38.5703 9.49609 38.3965 10.0918 38.3965 10.8887ZM44.3848 14V7.77734H45.334V8.66211C45.791 7.97852 46.4512 7.63672 47.3145 7.63672C47.6895 7.63672 48.0332 7.70508 48.3457 7.8418C48.6621 7.97461 48.8984 8.15039 49.0547 8.36914C49.2109 8.58789 49.3203 8.84766 49.3828 9.14844C49.4219 9.34375 49.4414 9.68555 49.4414 10.1738V14H48.3867V10.2148C48.3867 9.78516 48.3457 9.46484 48.2637 9.25391C48.1816 9.03906 48.0352 8.86914 47.8242 8.74414C47.6172 8.61523 47.373 8.55078 47.0918 8.55078C46.6426 8.55078 46.2539 8.69336 45.9258 8.97852C45.6016 9.26367 45.4395 9.80469 45.4395 10.6016V14H44.3848ZM55.3242 11.9961L56.4141 12.1309C56.2422 12.7676 55.9238 13.2617 55.459 13.6133C54.9941 13.9648 54.4004 14.1406 53.6777 14.1406C52.7676 14.1406 52.0449 13.8613 51.5098 13.3027C50.9785 12.7402 50.7129 11.9531 50.7129 10.9414C50.7129 9.89453 50.9824 9.08203 51.5215 8.50391C52.0605 7.92578 52.7598 7.63672 53.6191 7.63672C54.4512 7.63672 55.1309 7.91992 55.6582 8.48633C56.1855 9.05273 56.4492 9.84961 56.4492 10.877C56.4492 10.9395 56.4473 11.0332 56.4434 11.1582H51.8027C51.8418 11.8418 52.0352 12.3652 52.3828 12.7285C52.7305 13.0918 53.1641 13.2734 53.6836 13.2734C54.0703 13.2734 54.4004 13.1719 54.6738 12.9688C54.9473 12.7656 55.1641 12.4414 55.3242 11.9961ZM51.8613 10.291H55.3359C55.2891 9.76758 55.1562 9.375 54.9375 9.11328C54.6016 8.70703 54.166 8.50391 53.6309 8.50391C53.1465 8.50391 52.7383 8.66602 52.4062 8.99023C52.0781 9.31445 51.8965 9.74805 51.8613 10.291Z" fill="url(#paint0_linear_1_61)"/>
<path d="M4.72266 29H3.07617V22.7949C2.47461 23.3574 1.76563 23.7734 0.949219 24.043V22.5488C1.37891 22.4082 1.8457 22.1426 2.34961 21.752C2.85352 21.3574 3.19922 20.8984 3.38672 20.375H4.72266V29ZM7.13086 26.7207L8.72461 26.5273C8.77539 26.9336 8.91211 27.2441 9.13477 27.459C9.35742 27.6738 9.62695 27.7812 9.94336 27.7812C10.2832 27.7812 10.5684 27.6523 10.7988 27.3945C11.0332 27.1367 11.1504 26.7891 11.1504 26.3516C11.1504 25.9375 11.0391 25.6094 10.8164 25.3672C10.5938 25.125 10.3223 25.0039 10.002 25.0039C9.79102 25.0039 9.53906 25.0449 9.24609 25.127L9.42773 23.7852C9.87305 23.7969 10.2129 23.7012 10.4473 23.498C10.6816 23.291 10.7988 23.0176 10.7988 22.6777C10.7988 22.3887 10.7129 22.1582 10.541 21.9863C10.3691 21.8145 10.1406 21.7285 9.85547 21.7285C9.57422 21.7285 9.33398 21.8262 9.13477 22.0215C8.93555 22.2168 8.81445 22.502 8.77148 22.877L7.25391 22.6191C7.35938 22.0996 7.51758 21.6855 7.72852 21.377C7.94336 21.0645 8.24023 20.8203 8.61914 20.6445C9.00195 20.4648 9.42969 20.375 9.90234 20.375C10.7109 20.375 11.3594 20.6328 11.8477 21.1484C12.25 21.5703 12.4512 22.0469 12.4512 22.5781C12.4512 23.332 12.0391 23.9336 11.2148 24.3828C11.707 24.4883 12.0996 24.7246 12.3926 25.0918C12.6895 25.459 12.8379 25.9023 12.8379 26.4219C12.8379 27.1758 12.5625 27.8184 12.0117 28.3496C11.4609 28.8809 10.7754 29.1465 9.95508 29.1465C9.17773 29.1465 8.5332 28.9238 8.02148 28.4785C7.50977 28.0293 7.21289 27.4434 7.13086 26.7207ZM14.5371 24.4238V22.7773H16.1836V24.4238H14.5371ZM14.5371 29V27.3535H16.1836V29H14.5371ZM17.8066 26.7207L19.4004 26.5273C19.4512 26.9336 19.5879 27.2441 19.8105 27.459C20.0332 27.6738 20.3027 27.7812 20.6191 27.7812C20.959 27.7812 21.2441 27.6523 21.4746 27.3945C21.709 27.1367 21.8262 26.7891 21.8262 26.3516C21.8262 25.9375 21.7148 25.6094 21.4922 25.3672C21.2695 25.125 20.998 25.0039 20.6777 25.0039C20.4668 25.0039 20.2148 25.0449 19.9219 25.127L20.1035 23.7852C20.5488 23.7969 20.8887 23.7012 21.123 23.498C21.3574 23.291 21.4746 23.0176 21.4746 22.6777C21.4746 22.3887 21.3887 22.1582 21.2168 21.9863C21.0449 21.8145 20.8164 21.7285 20.5312 21.7285C20.25 21.7285 20.0098 21.8262 19.8105 22.0215C19.6113 22.2168 19.4902 22.502 19.4473 22.877L17.9297 22.6191C18.0352 22.0996 18.1934 21.6855 18.4043 21.377C18.6191 21.0645 18.916 20.8203 19.2949 20.6445C19.6777 20.4648 20.1055 20.375 20.5781 20.375C21.3867 20.375 22.0352 20.6328 22.5234 21.1484C22.9258 21.5703 23.127 22.0469 23.127 22.5781C23.127 23.332 22.7148 23.9336 21.8906 24.3828C22.3828 24.4883 22.7754 24.7246 23.0684 25.0918C23.3652 25.459 23.5137 25.9023 23.5137 26.4219C23.5137 27.1758 23.2383 27.8184 22.6875 28.3496C22.1367 28.8809 21.4512 29.1465 20.6309 29.1465C19.8535 29.1465 19.209 28.9238 18.6973 28.4785C18.1855 28.0293 17.8887 27.4434 17.8066 26.7207ZM28.7578 29H27.1113V22.7949C26.5098 23.3574 25.8008 23.7734 24.9844 24.043V22.5488C25.4141 22.4082 25.8809 22.1426 26.3848 21.752C26.8887 21.3574 27.2344 20.8984 27.4219 20.375H28.7578V29ZM31.8926 24.4238V22.7773H33.5391V24.4238H31.8926ZM31.8926 29V27.3535H33.5391V29H31.8926ZM38.0039 20.375C38.8359 20.375 39.4863 20.6719 39.9551 21.2656C40.5137 21.9688 40.793 23.1348 40.793 24.7637C40.793 26.3887 40.5117 27.5566 39.9492 28.2676C39.4844 28.8535 38.8359 29.1465 38.0039 29.1465C37.168 29.1465 36.4941 28.8262 35.9824 28.1855C35.4707 27.541 35.2148 26.3945 35.2148 24.7461C35.2148 23.1289 35.4961 21.9648 36.0586 21.2539C36.5234 20.668 37.1719 20.375 38.0039 20.375ZM38.0039 21.7402C37.8047 21.7402 37.627 21.8047 37.4707 21.9336C37.3145 22.0586 37.1934 22.2852 37.1074 22.6133C36.9941 23.0391 36.9375 23.7559 36.9375 24.7637C36.9375 25.7715 36.9883 26.4648 37.0898 26.8438C37.1914 27.2188 37.3184 27.4688 37.4707 27.5938C37.627 27.7188 37.8047 27.7812 38.0039 27.7812C38.2031 27.7812 38.3809 27.7188 38.5371 27.5938C38.6934 27.4648 38.8145 27.2363 38.9004 26.9082C39.0137 26.4863 39.0703 25.7715 39.0703 24.7637C39.0703 23.7559 39.0195 23.0645 38.918 22.6895C38.8164 22.3105 38.6875 22.0586 38.5312 21.9336C38.3789 21.8047 38.2031 21.7402 38.0039 21.7402ZM43.3125 24.3652C42.8867 24.1855 42.5762 23.9395 42.3809 23.627C42.1895 23.3105 42.0938 22.9648 42.0938 22.5898C42.0938 21.9492 42.3164 21.4199 42.7617 21.002C43.2109 20.584 43.8477 20.375 44.6719 20.375C45.4883 20.375 46.1211 20.584 46.5703 21.002C47.0234 21.4199 47.25 21.9492 47.25 22.5898C47.25 22.9883 47.1465 23.3438 46.9395 23.6562C46.7324 23.9648 46.4414 24.2012 46.0664 24.3652C46.543 24.5566 46.9043 24.8359 47.1504 25.2031C47.4004 25.5703 47.5254 25.9941 47.5254 26.4746C47.5254 27.2676 47.2715 27.9121 46.7637 28.4082C46.2598 28.9043 45.5879 29.1523 44.748 29.1523C43.9668 29.1523 43.3164 28.9473 42.7969 28.5371C42.1836 28.0527 41.877 27.3887 41.877 26.5449C41.877 26.0801 41.9922 25.6543 42.2227 25.2676C42.4531 24.877 42.8164 24.5762 43.3125 24.3652ZM43.6523 22.707C43.6523 23.0352 43.7441 23.291 43.9277 23.4746C44.1152 23.6582 44.3633 23.75 44.6719 23.75C44.9844 23.75 45.2344 23.6582 45.4219 23.4746C45.6094 23.2871 45.7031 23.0293 45.7031 22.7012C45.7031 22.3926 45.6094 22.1465 45.4219 21.9629C45.2383 21.7754 44.9941 21.6816 44.6895 21.6816C44.373 21.6816 44.1211 21.7754 43.9336 21.9629C43.7461 22.1504 43.6523 22.3984 43.6523 22.707ZM43.5 26.3867C43.5 26.8398 43.6152 27.1934 43.8457 27.4473C44.0801 27.7012 44.3711 27.8281 44.7188 27.8281C45.0586 27.8281 45.3398 27.707 45.5625 27.4648C45.7852 27.2188 45.8965 26.8652 45.8965 26.4043C45.8965 26.002 45.7832 25.6797 45.5566 25.4375C45.3301 25.1914 45.043 25.0684 44.6953 25.0684C44.293 25.0684 43.9922 25.207 43.793 25.4844C43.5977 25.7617 43.5 26.0625 43.5 26.3867ZM55.002 31.5254H53.8711C53.2734 30.623 52.8184 29.6855 52.5059 28.7129C52.1934 27.7402 52.0371 26.7988 52.0371 25.8887C52.0371 24.7598 52.2305 23.6914 52.6172 22.6836C52.9531 21.8086 53.3789 21.002 53.8945 20.2637H55.0195C54.4844 21.4473 54.1152 22.4551 53.9121 23.2871C53.7129 24.1152 53.6133 24.9941 53.6133 25.9238C53.6133 26.5645 53.6719 27.2207 53.7891 27.8926C53.9102 28.5645 54.0742 29.2031 54.2812 29.8086C54.418 30.207 54.6582 30.7793 55.002 31.5254ZM61.4941 22.5137L59.9004 22.6895C59.8613 22.3613 59.7598 22.1191 59.5957 21.9629C59.4316 21.8066 59.2188 21.7285 58.957 21.7285C58.6094 21.7285 58.3145 21.8848 58.0723 22.1973C57.834 22.5098 57.6836 23.1602 57.6211 24.1484C58.0312 23.6641 58.541 23.4219 59.1504 23.4219C59.8379 23.4219 60.4258 23.6836 60.9141 24.207C61.4062 24.7305 61.6523 25.4062 61.6523 26.2344C61.6523 27.1133 61.3945 27.8184 60.8789 28.3496C60.3633 28.8809 59.7012 29.1465 58.8926 29.1465C58.0254 29.1465 57.3125 28.8105 56.7539 28.1387C56.1953 27.4629 55.916 26.3574 55.916 24.8223C55.916 23.248 56.207 22.1133 56.7891 21.418C57.3711 20.7227 58.127 20.375 59.0566 20.375C59.709 20.375 60.248 20.5586 60.6738 20.9258C61.1035 21.2891 61.377 21.8184 61.4941 22.5137ZM57.7617 26.1055C57.7617 26.6406 57.8848 27.0547 58.1309 27.3477C58.377 27.6367 58.6582 27.7812 58.9746 27.7812C59.2793 27.7812 59.5332 27.6621 59.7363 27.4238C59.9395 27.1855 60.041 26.7949 60.041 26.252C60.041 25.6934 59.9316 25.2852 59.7129 25.0273C59.4941 24.7656 59.2207 24.6348 58.8926 24.6348C58.5762 24.6348 58.3086 24.7598 58.0898 25.0098C57.8711 25.2559 57.7617 25.6211 57.7617 26.1055ZM64.834 27.7637V25.5312H62.584V23.9902H64.834V21.7578H66.334V23.9902H68.5898V25.5312H66.334V27.7637H64.834ZM69.498 31.5254C69.8223 30.8301 70.0508 30.2969 70.1836 29.9258C70.3164 29.5547 70.4395 29.127 70.5527 28.6426C70.666 28.1582 70.75 27.6992 70.8047 27.2656C70.8594 26.8281 70.8867 26.3809 70.8867 25.9238C70.8867 24.9941 70.7871 24.1152 70.5879 23.2871C70.3887 22.4551 70.0215 21.4473 69.4863 20.2637H70.6055C71.1953 21.1035 71.6523 21.9941 71.9766 22.9355C72.3047 23.877 72.4688 24.832 72.4688 25.8008C72.4688 26.6172 72.3398 27.4922 72.082 28.4258C71.7891 29.4727 71.3066 30.5059 70.6348 31.5254H69.498Z" fill="white"/>
<defs>
<linearGradient id="paint0_linear_1_61" x1="28.5" y1="3" x2="28.5" y2="17" gradientUnits="userSpaceOnUse">
<stop stop-color="white"/>
<stop offset="1" stop-color="#767676"/>
</linearGradient>
</defs>
</svg>
