<svg width="108" height="34" viewBox="0 0 108 34" fill="none" xmlns="http://www.w3.org/2000/svg">
<path d="M3.11133 14V6.42383H0.28125V5.41016H7.08984V6.42383H4.24805V14H3.11133ZM6.39844 10.8887C6.39844 9.73633 6.71875 8.88281 7.35938 8.32812C7.89453 7.86719 8.54688 7.63672 9.31641 7.63672C10.1719 7.63672 10.8711 7.91797 11.4141 8.48047C11.957 9.03906 12.2285 9.8125 12.2285 10.8008C12.2285 11.6016 12.1074 12.2324 11.8652 12.6934C11.627 13.1504 11.2773 13.5059 10.8164 13.7598C10.3594 14.0137 9.85938 14.1406 9.31641 14.1406C8.44531 14.1406 7.74023 13.8613 7.20117 13.3027C6.66602 12.7441 6.39844 11.9395 6.39844 10.8887ZM7.48242 10.8887C7.48242 11.6855 7.65625 12.2832 8.00391 12.6816C8.35156 13.0762 8.78906 13.2734 9.31641 13.2734C9.83984 13.2734 10.2754 13.0742 10.623 12.6758C10.9707 12.2773 11.1445 11.6699 11.1445 10.8535C11.1445 10.084 10.9688 9.50195 10.6172 9.10742C10.2695 8.70898 9.83594 8.50977 9.31641 8.50977C8.78906 8.50977 8.35156 8.70703 8.00391 9.10156C7.65625 9.49609 7.48242 10.0918 7.48242 10.8887ZM15.7734 13.0566L15.9258 13.9883C15.6289 14.0508 15.3633 14.082 15.1289 14.082C14.7461 14.082 14.4492 14.0215 14.2383 13.9004C14.0273 13.7793 13.8789 13.6211 13.793 13.4258C13.707 13.2266 13.6641 12.8105 13.6641 12.1777V8.59766H12.8906V7.77734H13.6641V6.23633L14.7129 5.60352V7.77734H15.7734V8.59766H14.7129V12.2363C14.7129 12.5371 14.7305 12.7305 14.7656 12.8164C14.8047 12.9023 14.8652 12.9707 14.9473 13.0215C15.0332 13.0723 15.1543 13.0977 15.3105 13.0977C15.4277 13.0977 15.582 13.084 15.7734 13.0566ZM20.8711 13.2324C20.4805 13.5645 20.1035 13.7988 19.7402 13.9355C19.3809 14.0723 18.9941 14.1406 18.5801 14.1406C17.8965 14.1406 17.3711 13.9746 17.0039 13.6426C16.6367 13.3066 16.4531 12.8789 16.4531 12.3594C16.4531 12.0547 16.5215 11.7773 16.6582 11.5273C16.7988 11.2734 16.9805 11.0703 17.2031 10.918C17.4297 10.7656 17.6836 10.6504 17.9648 10.5723C18.1719 10.5176 18.4844 10.4648 18.9023 10.4141C19.7539 10.3125 20.3809 10.1914 20.7832 10.0508C20.7871 9.90625 20.7891 9.81445 20.7891 9.77539C20.7891 9.3457 20.6895 9.04297 20.4902 8.86719C20.2207 8.62891 19.8203 8.50977 19.2891 8.50977C18.793 8.50977 18.4258 8.59766 18.1875 8.77344C17.9531 8.94531 17.7793 9.25195 17.666 9.69336L16.6348 9.55273C16.7285 9.11133 16.8828 8.75586 17.0977 8.48633C17.3125 8.21289 17.623 8.00391 18.0293 7.85938C18.4355 7.71094 18.9062 7.63672 19.4414 7.63672C19.9727 7.63672 20.4043 7.69922 20.7363 7.82422C21.0684 7.94922 21.3125 8.10742 21.4688 8.29883C21.625 8.48633 21.7344 8.72461 21.7969 9.01367C21.832 9.19336 21.8496 9.51758 21.8496 9.98633V11.3926C21.8496 12.373 21.8711 12.9941 21.9141 13.2559C21.9609 13.5137 22.0508 13.7617 22.1836 14H21.082C20.9727 13.7812 20.9023 13.5254 20.8711 13.2324ZM20.7832 10.877C20.4004 11.0332 19.8262 11.166 19.0605 11.2754C18.627 11.3379 18.3203 11.4082 18.1406 11.4863C17.9609 11.5645 17.8223 11.6797 17.7246 11.832C17.627 11.9805 17.5781 12.1465 17.5781 12.3301C17.5781 12.6113 17.6836 12.8457 17.8945 13.0332C18.1094 13.2207 18.4219 13.3145 18.832 13.3145C19.2383 13.3145 19.5996 13.2266 19.916 13.0508C20.2324 12.8711 20.4648 12.627 20.6133 12.3184C20.7266 12.0801 20.7832 11.7285 20.7832 11.2637V10.877ZM23.4668 14V5.41016H24.5215V14H23.4668ZM35.2734 5.41016H36.4102V10.373C36.4102 11.2363 36.3125 11.9219 36.1172 12.4297C35.9219 12.9375 35.5684 13.3516 35.0566 13.6719C34.5488 13.9883 33.8809 14.1465 33.0527 14.1465C32.248 14.1465 31.5898 14.0078 31.0781 13.7305C30.5664 13.4531 30.2012 13.0527 29.9824 12.5293C29.7637 12.002 29.6543 11.2832 29.6543 10.373V5.41016H30.791V10.3672C30.791 11.1133 30.8594 11.6641 30.9961 12.0195C31.1367 12.3711 31.375 12.6426 31.7109 12.834C32.0508 13.0254 32.4648 13.1211 32.9531 13.1211C33.7891 13.1211 34.3848 12.9316 34.7402 12.5527C35.0957 12.1738 35.2734 11.4453 35.2734 10.3672V5.41016ZM38.1738 14V7.77734H39.123V8.66211C39.5801 7.97852 40.2402 7.63672 41.1035 7.63672C41.4785 7.63672 41.8223 7.70508 42.1348 7.8418C42.4512 7.97461 42.6875 8.15039 42.8438 8.36914C43 8.58789 43.1094 8.84766 43.1719 9.14844C43.2109 9.34375 43.2305 9.68555 43.2305 10.1738V14H42.1758V10.2148C42.1758 9.78516 42.1348 9.46484 42.0527 9.25391C41.9707 9.03906 41.8242 8.86914 41.6133 8.74414C41.4062 8.61523 41.1621 8.55078 40.8809 8.55078C40.4316 8.55078 40.043 8.69336 39.7148 8.97852C39.3906 9.26367 39.2285 9.80469 39.2285 10.6016V14H38.1738ZM44.8418 14V7.77734H45.791V8.7207C46.0332 8.2793 46.2559 7.98828 46.459 7.84766C46.666 7.70703 46.8926 7.63672 47.1387 7.63672C47.4941 7.63672 47.8555 7.75 48.2227 7.97656L47.8594 8.95508C47.6016 8.80273 47.3438 8.72656 47.0859 8.72656C46.8555 8.72656 46.6484 8.79688 46.4648 8.9375C46.2812 9.07422 46.1504 9.26562 46.0723 9.51172C45.9551 9.88672 45.8965 10.2969 45.8965 10.7422V14H44.8418ZM53.1094 11.9961L54.1992 12.1309C54.0273 12.7676 53.709 13.2617 53.2441 13.6133C52.7793 13.9648 52.1855 14.1406 51.4629 14.1406C50.5527 14.1406 49.8301 13.8613 49.2949 13.3027C48.7637 12.7402 48.498 11.9531 48.498 10.9414C48.498 9.89453 48.7676 9.08203 49.3066 8.50391C49.8457 7.92578 50.5449 7.63672 51.4043 7.63672C52.2363 7.63672 52.916 7.91992 53.4434 8.48633C53.9707 9.05273 54.2344 9.84961 54.2344 10.877C54.2344 10.9395 54.2324 11.0332 54.2285 11.1582H49.5879C49.627 11.8418 49.8203 12.3652 50.168 12.7285C50.5156 13.0918 50.9492 13.2734 51.4688 13.2734C51.8555 13.2734 52.1855 13.1719 52.459 12.9688C52.7324 12.7656 52.9492 12.4414 53.1094 11.9961ZM49.6465 10.291H53.1211C53.0742 9.76758 52.9414 9.375 52.7227 9.11328C52.3867 8.70703 51.9512 8.50391 51.416 8.50391C50.9316 8.50391 50.5234 8.66602 50.1914 8.99023C49.8633 9.31445 49.6816 9.74805 49.6465 10.291ZM59.5898 13.2324C59.1992 13.5645 58.8223 13.7988 58.459 13.9355C58.0996 14.0723 57.7129 14.1406 57.2988 14.1406C56.6152 14.1406 56.0898 13.9746 55.7227 13.6426C55.3555 13.3066 55.1719 12.8789 55.1719 12.3594C55.1719 12.0547 55.2402 11.7773 55.377 11.5273C55.5176 11.2734 55.6992 11.0703 55.9219 10.918C56.1484 10.7656 56.4023 10.6504 56.6836 10.5723C56.8906 10.5176 57.2031 10.4648 57.6211 10.4141C58.4727 10.3125 59.0996 10.1914 59.502 10.0508C59.5059 9.90625 59.5078 9.81445 59.5078 9.77539C59.5078 9.3457 59.4082 9.04297 59.209 8.86719C58.9395 8.62891 58.5391 8.50977 58.0078 8.50977C57.5117 8.50977 57.1445 8.59766 56.9062 8.77344C56.6719 8.94531 56.498 9.25195 56.3848 9.69336L55.3535 9.55273C55.4473 9.11133 55.6016 8.75586 55.8164 8.48633C56.0312 8.21289 56.3418 8.00391 56.748 7.85938C57.1543 7.71094 57.625 7.63672 58.1602 7.63672C58.6914 7.63672 59.123 7.69922 59.4551 7.82422C59.7871 7.94922 60.0312 8.10742 60.1875 8.29883C60.3438 8.48633 60.4531 8.72461 60.5156 9.01367C60.5508 9.19336 60.5684 9.51758 60.5684 9.98633V11.3926C60.5684 12.373 60.5898 12.9941 60.6328 13.2559C60.6797 13.5137 60.7695 13.7617 60.9023 14H59.8008C59.6914 13.7812 59.6211 13.5254 59.5898 13.2324ZM59.502 10.877C59.1191 11.0332 58.5449 11.166 57.7793 11.2754C57.3457 11.3379 57.0391 11.4082 56.8594 11.4863C56.6797 11.5645 56.541 11.6797 56.4434 11.832C56.3457 11.9805 56.2969 12.1465 56.2969 12.3301C56.2969 12.6113 56.4023 12.8457 56.6133 13.0332C56.8281 13.2207 57.1406 13.3145 57.5508 13.3145C57.957 13.3145 58.3184 13.2266 58.6348 13.0508C58.9512 12.8711 59.1836 12.627 59.332 12.3184C59.4453 12.0801 59.502 11.7285 59.502 11.2637V10.877ZM62.1855 14V5.41016H63.2402V14H62.1855ZM64.8867 6.62305V5.41016H65.9414V6.62305H64.8867ZM64.8867 14V7.77734H65.9414V14H64.8867ZM66.9961 14V13.1445L70.957 8.59766C70.5078 8.62109 70.1113 8.63281 69.7676 8.63281H67.2305V7.77734H72.3164V8.47461L68.9473 12.4238L68.2969 13.1445C68.7695 13.1094 69.2129 13.0918 69.627 13.0918H72.5039V14H66.9961ZM77.8125 11.9961L78.9023 12.1309C78.7305 12.7676 78.4121 13.2617 77.9473 13.6133C77.4824 13.9648 76.8887 14.1406 76.166 14.1406C75.2559 14.1406 74.5332 13.8613 73.998 13.3027C73.4668 12.7402 73.2012 11.9531 73.2012 10.9414C73.2012 9.89453 73.4707 9.08203 74.0098 8.50391C74.5488 7.92578 75.248 7.63672 76.1074 7.63672C76.9395 7.63672 77.6191 7.91992 78.1465 8.48633C78.6738 9.05273 78.9375 9.84961 78.9375 10.877C78.9375 10.9395 78.9355 11.0332 78.9316 11.1582H74.291C74.3301 11.8418 74.5234 12.3652 74.8711 12.7285C75.2188 13.0918 75.6523 13.2734 76.1719 13.2734C76.5586 13.2734 76.8887 13.1719 77.1621 12.9688C77.4355 12.7656 77.6523 12.4414 77.8125 11.9961ZM74.3496 10.291H77.8242C77.7773 9.76758 77.6445 9.375 77.4258 9.11328C77.0898 8.70703 76.6543 8.50391 76.1191 8.50391C75.6348 8.50391 75.2266 8.66602 74.8945 8.99023C74.5664 9.31445 74.3848 9.74805 74.3496 10.291ZM84.2695 14V13.2148C83.875 13.832 83.2949 14.1406 82.5293 14.1406C82.0332 14.1406 81.5762 14.0039 81.1582 13.7305C80.7441 13.457 80.4219 13.0762 80.1914 12.5879C79.9648 12.0957 79.8516 11.5312 79.8516 10.8945C79.8516 10.2734 79.9551 9.71094 80.1621 9.20703C80.3691 8.69922 80.6797 8.31055 81.0938 8.04102C81.5078 7.77148 81.9707 7.63672 82.4824 7.63672C82.8574 7.63672 83.1914 7.7168 83.4844 7.87695C83.7773 8.0332 84.0156 8.23828 84.1992 8.49219V5.41016H85.248V14H84.2695ZM80.9355 10.8945C80.9355 11.6914 81.1035 12.2871 81.4395 12.6816C81.7754 13.0762 82.1719 13.2734 82.6289 13.2734C83.0898 13.2734 83.4805 13.0859 83.8008 12.7109C84.125 12.332 84.2871 11.7559 84.2871 10.9824C84.2871 10.1309 84.123 9.50586 83.7949 9.10742C83.4668 8.70898 83.0625 8.50977 82.582 8.50977C82.1133 8.50977 81.7207 8.70117 81.4043 9.08398C81.0918 9.4668 80.9355 10.0703 80.9355 10.8945ZM90.3867 14V5.41016H93.627C94.1973 5.41016 94.6328 5.4375 94.9336 5.49219C95.3555 5.5625 95.709 5.69727 95.9941 5.89648C96.2793 6.0918 96.5078 6.36719 96.6797 6.72266C96.8555 7.07812 96.9434 7.46875 96.9434 7.89453C96.9434 8.625 96.7109 9.24414 96.2461 9.75195C95.7812 10.2559 94.9414 10.5078 93.7266 10.5078H91.5234V14H90.3867ZM91.5234 9.49414H93.7441C94.4785 9.49414 95 9.35742 95.3086 9.08398C95.6172 8.81055 95.7715 8.42578 95.7715 7.92969C95.7715 7.57031 95.6797 7.26367 95.4961 7.00977C95.3164 6.75195 95.0781 6.58203 94.7812 6.5C94.5898 6.44922 94.2363 6.42383 93.7207 6.42383H91.5234V9.49414ZM97.4648 14.1465L99.9551 5.26367H100.799L98.3145 14.1465H97.4648ZM101.684 14V5.41016H102.82V12.9863H107.051V14H101.684Z" fill="url(#paint0_linear_1_58)"/>
<path d="M2.86523 26.7285V24.2734C2.09961 24.0547 1.53711 23.7246 1.17773 23.2832C0.822266 22.8379 0.644531 22.2988 0.644531 21.666C0.644531 21.0254 0.845703 20.4883 1.24805 20.0547C1.6543 19.6172 2.19336 19.3652 2.86523 19.2988V18.7188H3.71484V19.2988C4.33594 19.373 4.83008 19.5859 5.19727 19.9375C5.56445 20.2852 5.79883 20.752 5.90039 21.3379L4.41797 21.5312C4.32812 21.0703 4.09375 20.7578 3.71484 20.5938V22.8848C4.65234 23.1387 5.29102 23.4688 5.63086 23.875C5.9707 24.2773 6.14062 24.7949 6.14062 25.4277C6.14062 26.1348 5.92578 26.7305 5.49609 27.2148C5.07031 27.6992 4.47656 27.9961 3.71484 28.1055V29.2012H2.86523V28.1348C2.18945 28.0527 1.64062 27.8008 1.21875 27.3789C0.796875 26.957 0.527344 26.3613 0.410156 25.5918L1.93945 25.4277C2.00195 25.7402 2.11914 26.0098 2.29102 26.2363C2.46289 26.4629 2.6543 26.627 2.86523 26.7285ZM2.86523 20.5762C2.63477 20.6543 2.45117 20.7871 2.31445 20.9746C2.17773 21.1621 2.10938 21.3691 2.10938 21.5957C2.10938 21.8027 2.17188 21.9961 2.29688 22.1758C2.42188 22.3516 2.61133 22.4941 2.86523 22.6035V20.5762ZM3.71484 26.8105C4.00781 26.7559 4.24609 26.6211 4.42969 26.4062C4.61328 26.1875 4.70508 25.9316 4.70508 25.6387C4.70508 25.377 4.62695 25.1523 4.4707 24.9648C4.31836 24.7734 4.06641 24.627 3.71484 24.5254V26.8105ZM12.75 26.4707V28H6.97852C7.04102 27.4219 7.22852 26.875 7.54102 26.3594C7.85352 25.8398 8.4707 25.1523 9.39258 24.2969C10.1348 23.6055 10.5898 23.1367 10.7578 22.8906C10.9844 22.5508 11.0977 22.2148 11.0977 21.8828C11.0977 21.5156 10.998 21.2344 10.7988 21.0391C10.6035 20.8398 10.332 20.7402 9.98438 20.7402C9.64062 20.7402 9.36719 20.8438 9.16406 21.0508C8.96094 21.2578 8.84375 21.6016 8.8125 22.082L7.17188 21.918C7.26953 21.0117 7.57617 20.3613 8.0918 19.9668C8.60742 19.5723 9.25195 19.375 10.0254 19.375C10.873 19.375 11.5391 19.6035 12.0234 20.0605C12.5078 20.5176 12.75 21.0859 12.75 21.7656C12.75 22.1523 12.6797 22.5215 12.5391 22.873C12.4023 23.2207 12.1836 23.5859 11.8828 23.9688C11.6836 24.2227 11.3242 24.5879 10.8047 25.0645C10.2852 25.541 9.95508 25.8574 9.81445 26.0137C9.67773 26.1699 9.56641 26.3223 9.48047 26.4707H12.75ZM14.1797 26.3535H15.8262V27.5312C15.8262 28.0078 15.7852 28.3828 15.7031 28.6562C15.6211 28.9336 15.4648 29.1816 15.2344 29.4004C15.0078 29.6191 14.7188 29.791 14.3672 29.916L14.0449 29.2363C14.377 29.127 14.6133 28.9766 14.7539 28.7852C14.8945 28.5938 14.9688 28.332 14.9766 28H14.1797V26.3535ZM17.1504 25.7207L18.7441 25.5273C18.7949 25.9336 18.9316 26.2441 19.1543 26.459C19.377 26.6738 19.6465 26.7812 19.9629 26.7812C20.3027 26.7812 20.5879 26.6523 20.8184 26.3945C21.0527 26.1367 21.1699 25.7891 21.1699 25.3516C21.1699 24.9375 21.0586 24.6094 20.8359 24.3672C20.6133 24.125 20.3418 24.0039 20.0215 24.0039C19.8105 24.0039 19.5586 24.0449 19.2656 24.127L19.4473 22.7852C19.8926 22.7969 20.2324 22.7012 20.4668 22.498C20.7012 22.291 20.8184 22.0176 20.8184 21.6777C20.8184 21.3887 20.7324 21.1582 20.5605 20.9863C20.3887 20.8145 20.1602 20.7285 19.875 20.7285C19.5938 20.7285 19.3535 20.8262 19.1543 21.0215C18.9551 21.2168 18.834 21.502 18.791 21.877L17.2734 21.6191C17.3789 21.0996 17.5371 20.6855 17.748 20.377C17.9629 20.0645 18.2598 19.8203 18.6387 19.6445C19.0215 19.4648 19.4492 19.375 19.9219 19.375C20.7305 19.375 21.3789 19.6328 21.8672 20.1484C22.2695 20.5703 22.4707 21.0469 22.4707 21.5781C22.4707 22.332 22.0586 22.9336 21.2344 23.3828C21.7266 23.4883 22.1191 23.7246 22.4121 24.0918C22.709 24.459 22.8574 24.9023 22.8574 25.4219C22.8574 26.1758 22.582 26.8184 22.0312 27.3496C21.4805 27.8809 20.7949 28.1465 19.9746 28.1465C19.1973 28.1465 18.5527 27.9238 18.041 27.4785C17.5293 27.0293 17.2324 26.4434 17.1504 25.7207ZM26.6719 19.375C27.5039 19.375 28.1543 19.6719 28.623 20.2656C29.1816 20.9688 29.4609 22.1348 29.4609 23.7637C29.4609 25.3887 29.1797 26.5566 28.6172 27.2676C28.1523 27.8535 27.5039 28.1465 26.6719 28.1465C25.8359 28.1465 25.1621 27.8262 24.6504 27.1855C24.1387 26.541 23.8828 25.3945 23.8828 23.7461C23.8828 22.1289 24.1641 20.9648 24.7266 20.2539C25.1914 19.668 25.8398 19.375 26.6719 19.375ZM26.6719 20.7402C26.4727 20.7402 26.2949 20.8047 26.1387 20.9336C25.9824 21.0586 25.8613 21.2852 25.7754 21.6133C25.6621 22.0391 25.6055 22.7559 25.6055 23.7637C25.6055 24.7715 25.6562 25.4648 25.7578 25.8438C25.8594 26.2188 25.9863 26.4688 26.1387 26.5938C26.2949 26.7188 26.4727 26.7812 26.6719 26.7812C26.8711 26.7812 27.0488 26.7188 27.2051 26.5938C27.3613 26.4648 27.4824 26.2363 27.5684 25.9082C27.6816 25.4863 27.7383 24.7715 27.7383 23.7637C27.7383 22.7559 27.6875 22.0645 27.5859 21.6895C27.4844 21.3105 27.3555 21.0586 27.1992 20.9336C27.0469 20.8047 26.8711 20.7402 26.6719 20.7402ZM33.7969 28V26.2715H30.2812V24.8301L34.0078 19.375H35.3906V24.8242H36.457V26.2715H35.3906V28H33.7969ZM33.7969 24.8242V21.8887L31.8223 24.8242H33.7969ZM37.5996 28V26.3535H39.2461V28H37.5996ZM43.3711 19.375C44.2031 19.375 44.8535 19.6719 45.3223 20.2656C45.8809 20.9688 46.1602 22.1348 46.1602 23.7637C46.1602 25.3887 45.8789 26.5566 45.3164 27.2676C44.8516 27.8535 44.2031 28.1465 43.3711 28.1465C42.5352 28.1465 41.8613 27.8262 41.3496 27.1855C40.8379 26.541 40.582 25.3945 40.582 23.7461C40.582 22.1289 40.8633 20.9648 41.4258 20.2539C41.8906 19.668 42.5391 19.375 43.3711 19.375ZM43.3711 20.7402C43.1719 20.7402 42.9941 20.8047 42.8379 20.9336C42.6816 21.0586 42.5605 21.2852 42.4746 21.6133C42.3613 22.0391 42.3047 22.7559 42.3047 23.7637C42.3047 24.7715 42.3555 25.4648 42.457 25.8438C42.5586 26.2188 42.6855 26.4688 42.8379 26.5938C42.9941 26.7188 43.1719 26.7812 43.3711 26.7812C43.5703 26.7812 43.748 26.7188 43.9043 26.5938C44.0605 26.4648 44.1816 26.2363 44.2676 25.9082C44.3809 25.4863 44.4375 24.7715 44.4375 23.7637C44.4375 22.7559 44.3867 22.0645 44.2852 21.6895C44.1836 21.3105 44.0547 21.0586 43.8984 20.9336C43.7461 20.8047 43.5703 20.7402 43.3711 20.7402ZM52.8281 26.4707V28H47.0566C47.1191 27.4219 47.3066 26.875 47.6191 26.3594C47.9316 25.8398 48.5488 25.1523 49.4707 24.2969C50.2129 23.6055 50.668 23.1367 50.8359 22.8906C51.0625 22.5508 51.1758 22.2148 51.1758 21.8828C51.1758 21.5156 51.0762 21.2344 50.877 21.0391C50.6816 20.8398 50.4102 20.7402 50.0625 20.7402C49.7188 20.7402 49.4453 20.8438 49.2422 21.0508C49.0391 21.2578 48.9219 21.6016 48.8906 22.082L47.25 21.918C47.3477 21.0117 47.6543 20.3613 48.1699 19.9668C48.6855 19.5723 49.3301 19.375 50.1035 19.375C50.9512 19.375 51.6172 19.6035 52.1016 20.0605C52.5859 20.5176 52.8281 21.0859 52.8281 21.7656C52.8281 22.1523 52.7578 22.5215 52.6172 22.873C52.4805 23.2207 52.2617 23.5859 51.9609 23.9688C51.7617 24.2227 51.4023 24.5879 50.8828 25.0645C50.3633 25.541 50.0332 25.8574 49.8926 26.0137C49.7559 26.1699 49.6445 26.3223 49.5586 26.4707H52.8281Z" fill="#2FD77B"/>
<defs>
<linearGradient id="paint0_linear_1_58" x1="54" y1="4" x2="54" y2="16" gradientUnits="userSpaceOnUse">
<stop stop-color="white"/>
<stop offset="1" stop-color="#767676"/>
</linearGradient>
</defs>
</svg>
