<?xml version="1.0" encoding="utf-8"?>
<svg width="35" height="35" viewBox="0 0 35 35" fill="none" xmlns="http://www.w3.org/2000/svg">
  <g>
    <g transform="translate(2.793 1.823)">
      <path d="M14.7072 0C8.46532 0 3.40521 5.06011 3.40521 11.3021L3.40521 12.3289C3.40521 13.3452 3.10437 14.3389 2.54061 15.1845L0.865552 17.697C-1.07854 20.6132 0.405623 24.577 3.7869 25.4991C4.88883 25.7997 6.00007 26.0539 7.11775 26.2618L7.12052 26.2692C8.24196 29.2616 11.2393 31.3542 14.7072 31.3542C18.1752 31.3542 21.1725 29.2616 22.2939 26.2692L22.2967 26.2618C23.4144 26.0539 24.5258 25.7997 25.6277 25.4991C29.009 24.577 30.4931 20.6132 28.549 17.697L26.874 15.1845C26.3102 14.3389 26.0093 13.3452 26.0093 12.3289L26.0093 11.3021C26.0093 5.06011 20.9492 0 14.7072 0L14.7072 0ZM5.59271 11.3021C5.59271 6.26824 9.67345 2.1875 14.7072 2.1875C19.7411 2.1875 23.8218 6.26824 23.8218 11.3021L23.8218 12.3289C23.8218 13.7772 24.2506 15.1929 25.0538 16.3979L26.7289 18.9105C27.8448 20.5842 26.993 22.8594 25.0521 23.3887C18.2793 25.2359 11.1353 25.2359 4.36246 23.3887C2.42167 22.8594 1.56979 20.5842 2.68567 18.9105L4.36071 16.3979C5.16403 15.1929 5.59271 13.7772 5.59271 12.3289L5.59271 11.3021L5.59271 11.3021ZM19.6312 26.6685C16.3603 27.0594 13.0541 27.0592 9.78316 26.6684C10.82 28.1582 12.6233 29.1667 14.7072 29.1667C16.791 29.1667 18.5944 28.1582 19.6312 26.6685L19.6312 26.6685Z" fill="#959595" fill-rule="evenodd" transform="translate(-0 0)" />
    </g>
  </g>
</svg>