<?xml version="1.0" encoding="utf-8"?>
<svg width="31.354" height="31.354" viewBox="0 0 31.354 31.354" fill="none" xmlns="http://www.w3.org/2000/svg">
  <g transform="translate(0 0.001)">
    <path d="M13.4321 3.12924e-07L17.922 3.12924e-07C20.2602 -1.39764e-05 22.0933 -1.40512e-05 23.5578 0.139227C25.0504 0.281152 26.2726 0.575415 27.3502 1.23568C28.4785 1.9271 29.4271 2.87575 30.1185 4.00404C30.7787 5.08149 31.073 6.30373 31.2149 7.79641C31.3542 9.26084 31.3542 11.0939 31.3542 13.4321L31.3542 14.9885C31.3542 16.6529 31.3542 17.9579 31.2823 19.012C31.2091 20.0846 31.0578 20.9772 30.7159 21.8027C29.8648 23.8573 28.2323 25.4898 26.1777 26.3409C25.0039 26.8271 23.6667 26.935 21.8361 26.9665C21.1957 26.9776 20.7901 26.9857 20.481 27.0199C20.1921 27.0519 20.0801 27.0988 20.0145 27.137C19.9453 27.1771 19.8511 27.2504 19.6876 27.4747C19.5106 27.7177 19.3107 28.0532 18.9936 28.589L18.2031 29.9246C17.0749 31.8306 14.2793 31.8306 13.1511 29.9246L12.3605 28.589C12.0434 28.0532 11.8434 27.7177 11.6664 27.4747C11.5029 27.2504 11.4087 27.1771 11.3396 27.137C11.2741 27.0988 11.1621 27.0519 10.8732 27.0199C10.564 26.9857 10.1584 26.9776 9.51805 26.9665C7.68743 26.935 6.35037 26.8271 5.17646 26.3409C3.1218 25.4898 1.48937 23.8573 0.638298 21.8027C0.296377 20.9772 0.145104 20.0846 0.0719256 19.012C2.85191e-07 17.9581 2.85191e-07 16.6534 2.85191e-07 14.9895L2.85191e-07 13.4321C-1.40041e-05 11.0939 -1.40789e-05 9.26084 0.139227 7.79641C0.281152 6.30373 0.575415 5.08149 1.23568 4.00404C1.9271 2.87575 2.87575 1.9271 4.00404 1.23568C5.08149 0.575415 6.30373 0.281152 7.79641 0.139227C9.26084 -1.40512e-05 11.0939 -1.39764e-05 13.4321 3.12924e-07L13.4321 3.12924e-07ZM8.00346 2.3169C6.67091 2.4436 5.82299 2.68659 5.14701 3.10083C4.31305 3.61188 3.61188 4.31305 3.10083 5.14701C2.68659 5.82299 2.4436 6.67091 2.3169 8.00346C2.18865 9.35229 2.1875 11.0815 2.1875 13.4896L2.1875 14.9479C2.1875 16.6616 2.1881 17.8921 2.25435 18.8631C2.31993 19.8243 2.44616 20.4511 2.65929 20.9656C3.28834 22.4843 4.49492 23.6908 6.01358 24.3199C6.76554 24.6314 7.72488 24.7478 9.55573 24.7794L9.60213 24.7801C10.1825 24.7902 10.6912 24.7988 11.1139 24.8456C11.5682 24.8959 12.0124 24.9976 12.4394 25.2459C12.8628 25.4923 13.168 25.8211 13.4343 26.1863C13.6802 26.5239 13.9329 26.9509 14.2193 27.4346L15.0335 28.8104C15.3147 29.2852 16.0395 29.2852 16.3205 28.8104L17.1348 27.4346C17.4211 26.9509 17.6738 26.5239 17.9199 26.1863C18.186 25.8211 18.4914 25.4923 18.9147 25.2459C19.3417 24.9976 19.7859 24.8959 20.2402 24.8456C20.663 24.7988 21.1715 24.7902 21.7519 24.7801L21.7984 24.7794C23.6292 24.7478 24.5887 24.6314 25.3406 24.3199C26.8593 23.6908 28.0658 22.4843 28.6949 20.9656C28.908 20.4511 29.0343 19.8243 29.0999 18.8631C29.1661 17.8921 29.1667 16.6616 29.1667 14.9479L29.1667 13.4896C29.1667 11.0815 29.1655 9.35229 29.0373 8.00346C28.9106 6.67091 28.6676 5.82299 28.2533 5.14701C27.7423 4.31305 27.0411 3.61188 26.2071 3.10083C25.5312 2.68659 24.6833 2.4436 23.3507 2.3169C22.0019 2.18865 20.2726 2.1875 17.8646 2.1875L13.4896 2.1875C11.0815 2.1875 9.35229 2.18865 8.00346 2.3169L8.00346 2.3169ZM8.75 11.3021C8.75 10.698 9.23969 10.2083 9.84375 10.2083L21.5104 10.2083C22.1145 10.2083 22.6042 10.698 22.6042 11.3021C22.6042 11.9061 22.1145 12.3958 21.5104 12.3958L9.84375 12.3958C9.23969 12.3958 8.75 11.9061 8.75 11.3021L8.75 11.3021ZM8.75 16.4062C8.75 15.8022 9.23969 15.3125 9.84375 15.3125L17.8646 15.3125C18.4686 15.3125 18.9583 15.8022 18.9583 16.4062C18.9583 17.0103 18.4686 17.5 17.8646 17.5L9.84375 17.5C9.23969 17.5 8.75 17.0103 8.75 16.4062L8.75 16.4062Z" fill="#959595" fill-rule="evenodd" transform="translate(-0 -0)" />
  </g>
</svg>