<svg width="54" height="1024" viewBox="0 0 54 1024" fill="none" xmlns="http://www.w3.org/2000/svg">
<g clip-path="url(#clip0_1_4)">
<mask id="path-1-inside-1_1_4" fill="white">
<path d="M0 0H54V1024H0V0Z"/>
</mask>
<path d="M0 0H54V1024H0V0Z" fill="#0B0B0B"/>
<path d="M22.6732 16.0257L15.0217 25.9545H21.1247L27.7743 17.3009L32.602 22.493L30.3248 24.5881H24.2218L16.2059 35.9743H22.7643L27.7743 28.4139H32.8753L38.9783 22.3109L32.602 16.0257H22.6732Z" fill="#E85102"/>
<path d="M29.6872 30.6L26.0436 35.9743H33.4218L29.6872 30.6Z" fill="#E85102"/>
<path d="M9 46H45" stroke="url(#paint0_linear_1_4)" stroke-opacity="0.5" stroke-linecap="round"/>
<g filter="url(#filter0_i_1_4)">
<rect x="9" y="66" width="36" height="36" rx="18" fill="url(#paint1_linear_1_4)"/>
<path fill-rule="evenodd" clip-rule="evenodd" d="M32.8605 77H28.9535C28.6513 77 28.3614 77.1201 28.1477 77.3338C27.934 77.5475 27.814 77.8373 27.814 78.1395V82.0465C27.814 82.1962 27.8434 82.3443 27.9007 82.4826C27.958 82.6208 28.0419 82.7465 28.1477 82.8523C28.2535 82.9581 28.3792 83.042 28.5174 83.0993C28.6557 83.1566 28.8038 83.186 28.9535 83.186H32.8605C33.0101 83.186 33.1583 83.1566 33.2965 83.0993C33.4348 83.042 33.5604 82.9581 33.6662 82.8523C33.7721 82.7465 33.856 82.6208 33.9133 82.4826C33.9705 82.3443 34 82.1962 34 82.0465V78.1395C34 77.8373 33.8799 77.5475 33.6662 77.3338C33.4525 77.1201 33.1627 77 32.8605 77Z" fill="white"/>
<path fill-rule="evenodd" clip-rule="evenodd" d="M21.1395 84.814H25.0465C25.1962 84.814 25.3443 84.8434 25.4826 84.9007C25.6208 84.958 25.7465 85.0419 25.8523 85.1477C25.9581 85.2535 26.042 85.3792 26.0993 85.5174C26.1566 85.6557 26.186 85.8038 26.186 85.9535V89.8605C26.186 90.0101 26.1566 90.1583 26.0993 90.2965C26.042 90.4348 25.9581 90.5604 25.8523 90.6662C25.7465 90.7721 25.6208 90.856 25.4826 90.9133C25.3443 90.9705 25.1962 91 25.0465 91H21.1395C20.8373 91 20.5475 90.8799 20.3338 90.6662C20.1201 90.4525 20 90.1627 20 89.8605V85.9535C20 85.6513 20.1201 85.3614 20.3338 85.1477C20.5475 84.934 20.8373 84.814 21.1395 84.814Z" fill="white"/>
<path fill-rule="evenodd" clip-rule="evenodd" d="M25.0465 77H21.1395C20.8373 77 20.5475 77.1201 20.3338 77.3338C20.1201 77.5475 20 77.8373 20 78.1395V82.0465C20 82.1962 20.0295 82.3443 20.0867 82.4826C20.144 82.6208 20.2279 82.7465 20.3338 82.8523C20.4396 82.9581 20.5652 83.042 20.7035 83.0993C20.8417 83.1566 20.9899 83.186 21.1395 83.186H25.0465C25.1962 83.186 25.3443 83.1566 25.4826 83.0993C25.6208 83.042 25.7465 82.9581 25.8523 82.8523C25.9581 82.7465 26.042 82.6208 26.0993 82.4826C26.1566 82.3443 26.186 82.1962 26.186 82.0465V78.1395C26.186 77.9899 26.1566 77.8417 26.0993 77.7035C26.042 77.5652 25.9581 77.4396 25.8523 77.3338C25.7465 77.2279 25.6208 77.144 25.4826 77.0867C25.3443 77.0295 25.1962 77 25.0465 77Z" fill="white"/>
<path fill-rule="evenodd" clip-rule="evenodd" d="M28.9535 84.814H32.8605C33.1627 84.814 33.4525 84.934 33.6662 85.1477C33.8799 85.3614 34 85.6513 34 85.9535V89.8605C34 90.1627 33.8799 90.4525 33.6662 90.6662C33.4525 90.8799 33.1627 91 32.8605 91H28.9535C28.6513 91 28.3614 90.8799 28.1477 90.6662C27.934 90.4525 27.814 90.1627 27.814 89.8605V85.9535C27.814 85.6513 27.934 85.3614 28.1477 85.1477C28.3614 84.934 28.6513 84.814 28.9535 84.814Z" fill="white"/>
</g>
<path d="M26.4167 126.583H20V125.417H26.4167V119H27.5833V125.417H34V126.583H27.5833V133H26.4167V126.583Z" fill="white"/>
<path d="M34 162.043V169.787C34 170.064 33.8902 170.329 33.6946 170.524C33.4991 170.72 33.2339 170.83 32.9574 170.83H24.5046L25.5285 171.854C25.5724 171.895 25.6076 171.945 25.632 172C25.6565 172.054 25.6696 172.113 25.6707 172.173C25.6717 172.233 25.6607 172.293 25.6382 172.349C25.6157 172.404 25.5823 172.455 25.5399 172.497C25.4974 172.54 25.4469 172.573 25.3912 172.596C25.3356 172.618 25.276 172.629 25.216 172.628C25.156 172.627 25.0969 172.614 25.0421 172.589C24.9873 172.565 24.9379 172.53 24.897 172.486L23.1098 170.699C23.0261 170.615 22.9791 170.501 22.9791 170.383C22.9791 170.265 23.0261 170.151 23.1098 170.067L24.897 168.28C24.9817 168.201 25.0937 168.158 25.2095 168.16C25.3253 168.162 25.4357 168.209 25.5176 168.291C25.5994 168.373 25.6463 168.483 25.6484 168.599C25.6504 168.715 25.6074 168.827 25.5285 168.911L24.5046 169.936H32.9574C32.9969 169.936 33.0348 169.92 33.0628 169.893C33.0907 169.865 33.1064 169.827 33.1064 169.787V162.043C33.1064 162.003 33.0907 161.965 33.0628 161.937C33.0348 161.909 32.9969 161.894 32.9574 161.894H24.617C24.5775 161.894 24.5396 161.909 24.5117 161.937C24.4838 161.965 24.4681 162.003 24.4681 162.043V162.638C24.4681 162.757 24.421 162.87 24.3372 162.954C24.2534 163.038 24.1398 163.085 24.0213 163.085C23.9028 163.085 23.7891 163.038 23.7053 162.954C23.6215 162.87 23.5745 162.757 23.5745 162.638V162.043C23.5745 161.766 23.6843 161.501 23.8798 161.305C24.0753 161.11 24.3405 161 24.617 161H32.9574C33.2339 161 33.4991 161.11 33.6946 161.305C33.8902 161.501 34 161.766 34 162.043ZM29.9787 172.915C29.8602 172.915 29.7466 172.962 29.6628 173.046C29.579 173.13 29.5319 173.243 29.5319 173.362V173.957C29.5319 173.997 29.5162 174.035 29.4883 174.063C29.4604 174.091 29.4225 174.106 29.383 174.106H21.0426C21.0031 174.106 20.9652 174.091 20.9372 174.063C20.9093 174.035 20.8936 173.997 20.8936 173.957V166.213C20.8936 166.173 20.9093 166.135 20.9372 166.107C20.9652 166.08 21.0031 166.064 21.0426 166.064H29.4954L28.4715 167.089C28.4276 167.129 28.3924 167.179 28.368 167.234C28.3435 167.288 28.3304 167.348 28.3293 167.408C28.3283 167.468 28.3393 167.527 28.3618 167.583C28.3843 167.638 28.4177 167.689 28.4601 167.731C28.5026 167.774 28.5531 167.807 28.6088 167.83C28.6644 167.852 28.724 167.863 28.784 167.862C28.844 167.861 28.9031 167.848 28.9579 167.824C29.0127 167.799 29.0621 167.764 29.103 167.72L30.8902 165.933C30.9739 165.849 31.0209 165.735 31.0209 165.617C31.0209 165.499 30.9739 165.385 30.8902 165.301L29.103 163.514C29.0183 163.435 28.9063 163.392 28.7905 163.394C28.6747 163.396 28.5643 163.443 28.4824 163.525C28.4006 163.607 28.3537 163.717 28.3516 163.833C28.3496 163.949 28.3926 164.061 28.4715 164.146L29.4954 165.17H21.0426C20.7661 165.17 20.5009 165.28 20.3054 165.476C20.1098 165.671 20 165.936 20 166.213V173.957C20 174.234 20.1098 174.499 20.3054 174.695C20.5009 174.89 20.7661 175 21.0426 175H29.383C29.6595 175 29.9247 174.89 30.1202 174.695C30.3157 174.499 30.4255 174.234 30.4255 173.957V173.362C30.4255 173.243 30.3785 173.13 30.2947 173.046C30.2109 172.962 30.0972 172.915 29.9787 172.915Z" fill="white"/>
<path d="M33.5882 215.133H32.902V203.433C32.902 203.318 32.8586 203.208 32.7814 203.127C32.7041 203.046 32.5994 203 32.4902 203H28.6471C28.5379 203 28.4331 203.046 28.3559 203.127C28.2787 203.208 28.2353 203.318 28.2353 203.433V206.467H24.8039C24.6947 206.467 24.59 206.512 24.5128 206.594C24.4355 206.675 24.3922 206.785 24.3922 206.9V209.933H21.5098C21.4006 209.933 21.2959 209.979 21.2186 210.06C21.1414 210.142 21.098 210.252 21.098 210.367V215.133H20.4118C20.3026 215.133 20.1978 215.179 20.1206 215.26C20.0434 215.342 20 215.452 20 215.567C20 215.682 20.0434 215.792 20.1206 215.873C20.1978 215.954 20.3026 216 20.4118 216H33.5882C33.6974 216 33.8022 215.954 33.8794 215.873C33.9566 215.792 34 215.682 34 215.567C34 215.452 33.9566 215.342 33.8794 215.26C33.8022 215.179 33.6974 215.133 33.5882 215.133ZM29.0588 203.867H32.0784V215.133H29.0588V203.867ZM25.2157 207.333H28.2353V215.133H25.2157V207.333ZM21.9216 210.8H24.3922V215.133H21.9216V210.8Z" fill="white"/>
<rect x="9.5" y="248.5" width="35" height="35" rx="3.5" fill="url(#paint2_linear_1_4)"/>
<rect x="9.5" y="248.5" width="35" height="35" rx="3.5" stroke="url(#paint3_linear_1_4)"/>
<path fill-rule="evenodd" clip-rule="evenodd" d="M20.4776 260.907C20.4729 260.907 20.4683 260.908 20.4637 260.909C20.4495 260.911 20.4356 260.913 20.4221 260.916L20.4776 260.907Z" fill="url(#paint4_linear_1_4)"/>
<path d="M32.5161 261.158H23.0199V261.915L33.5002 261.915C33.6327 261.915 33.7599 261.968 33.8536 262.062C33.9473 262.157 34 262.285 34 262.419V271.496C34 271.629 33.9473 271.758 33.8536 271.852C33.7599 271.947 33.6327 272 33.5002 272H20.5046C20.372 272 20.2449 271.947 20.1512 271.852C20.0574 271.758 20.0048 271.629 20.0048 271.496L20 266.059V261.536C20 261.265 20.087 261.089 20.2424 260.991C20.2967 260.954 20.3577 260.929 20.4221 260.916L31.9182 259.01C31.9907 258.995 32.0656 258.997 32.1373 259.015C32.2091 259.033 32.276 259.067 32.3332 259.114C32.3904 259.162 32.4365 259.221 32.4681 259.289C32.4997 259.356 32.5161 259.43 32.5161 259.504V261.158ZM29.9614 267.796C30.1258 267.907 30.3191 267.966 30.5168 267.966C30.7819 267.966 31.0362 267.86 31.2237 267.67C31.4111 267.481 31.5165 267.225 31.5165 266.957C31.5165 266.758 31.4578 266.563 31.348 266.397C31.2382 266.231 31.082 266.102 30.8994 266.026C30.7167 265.949 30.5157 265.929 30.3218 265.968C30.1279 266.007 29.9497 266.103 29.8099 266.244C29.6701 266.385 29.5749 266.565 29.5364 266.761C29.4978 266.956 29.5176 267.159 29.5932 267.343C29.6689 267.528 29.797 267.685 29.9614 267.796Z" fill="url(#paint5_linear_1_4)"/>
<rect x="9" y="625" width="36" height="81" rx="18" fill="#111111"/>
<rect x="9" y="625" width="36" height="81" rx="18" stroke="url(#paint6_linear_1_4)" stroke-linecap="round" stroke-linejoin="round"/>
<path d="M27.0007 643.618C26.339 643.618 25.6922 643.816 25.142 644.188C24.5918 644.559 24.1629 645.088 23.9097 645.706C23.6565 646.324 23.5902 647.004 23.7193 647.66C23.8484 648.316 24.1671 648.919 24.635 649.392C25.1029 649.865 25.699 650.187 26.348 650.317C26.997 650.448 27.6697 650.381 28.2811 650.125C28.8924 649.869 29.4149 649.435 29.7826 648.879C30.1502 648.323 30.3464 647.669 30.3464 647C30.3453 646.103 29.9924 645.244 29.3652 644.61C28.738 643.976 27.8877 643.619 27.0007 643.618ZM27.0007 649.5C26.5116 649.5 26.0335 649.353 25.6269 649.079C25.2202 648.804 24.9032 648.414 24.7161 647.957C24.5289 647.5 24.4799 646.997 24.5753 646.512C24.6708 646.027 24.9063 645.582 25.2521 645.232C25.598 644.883 26.0386 644.645 26.5183 644.548C26.998 644.452 27.4952 644.501 27.9471 644.69C28.3989 644.88 28.7851 645.2 29.0569 645.611C29.3286 646.022 29.4736 646.506 29.4736 647C29.4736 647.663 29.2131 648.299 28.7493 648.768C28.2856 649.237 27.6566 649.5 27.0007 649.5ZM34.8558 645.5C34.8432 645.439 34.8177 645.381 34.781 645.33C34.7444 645.279 34.6975 645.237 34.6434 645.206L32.4295 643.928L32.3989 643.876L32.3902 641.353C32.3902 641.289 32.3765 641.226 32.3502 641.168C32.3238 641.111 32.2853 641.059 32.2374 641.018C31.4642 640.357 30.574 639.85 29.614 639.524C29.5563 639.505 29.4951 639.498 29.4345 639.503C29.3739 639.509 29.3151 639.527 29.262 639.557L27.0342 640.813H26.9615L24.7395 639.556C24.6861 639.526 24.627 639.507 24.5661 639.502C24.5052 639.496 24.4439 639.504 24.386 639.524C23.4261 639.85 22.5363 640.358 21.764 641.021C21.7159 641.062 21.6773 641.113 21.6506 641.171C21.624 641.229 21.6101 641.291 21.6098 641.355L21.5982 643.88C21.588 643.897 21.5778 643.915 21.5684 643.932L19.3573 645.204C19.303 645.235 19.2559 645.278 19.2194 645.329C19.1829 645.381 19.1577 645.439 19.1456 645.502C18.9515 646.491 18.9515 647.51 19.1456 648.5C19.1583 648.562 19.1838 648.62 19.2204 648.67C19.257 648.721 19.304 648.763 19.358 648.794L21.5705 650.068L21.6011 650.121L21.6098 652.643C21.6095 652.708 21.6231 652.772 21.6497 652.83C21.6764 652.889 21.7154 652.941 21.764 652.982C22.5372 653.643 23.4275 654.15 24.3875 654.476C24.4452 654.495 24.5063 654.503 24.5669 654.497C24.6276 654.491 24.6863 654.473 24.7395 654.443L26.9658 653.187H27.0385L29.2612 654.444C29.3263 654.48 29.3993 654.5 29.4736 654.5C29.5214 654.5 29.5688 654.492 29.614 654.476C30.5726 654.149 31.4611 653.641 32.2324 652.979C32.2804 652.938 32.3191 652.887 32.3457 652.829C32.3723 652.771 32.3863 652.709 32.3865 652.645L32.3982 650.12C32.4084 650.103 32.4185 650.085 32.428 650.068L34.6405 648.796C34.695 648.765 34.7422 648.722 34.7788 648.671C34.8155 648.619 34.8407 648.561 34.8529 648.499C35.0481 647.509 35.049 646.49 34.8558 645.5ZM34.0376 648.132L31.8971 649.36C31.8277 649.4 31.7703 649.459 31.7312 649.529C31.6883 649.603 31.6432 649.685 31.5959 649.76C31.5529 649.83 31.53 649.91 31.5298 649.993L31.5181 652.435C30.9163 652.922 30.2404 653.308 29.5165 653.576L27.3644 652.359C27.2993 652.322 27.2259 652.302 27.1513 652.302H27.1411C27.0509 652.302 26.9593 652.302 26.8691 652.302C26.791 652.3 26.7139 652.32 26.6458 652.358L24.4878 653.576C23.7631 653.308 23.0861 652.924 22.4833 652.437L22.4746 649.998C22.4744 649.916 22.4514 649.835 22.4084 649.765C22.3619 649.692 22.316 649.613 22.2731 649.535C22.2344 649.464 22.1773 649.406 22.108 649.365L19.9675 648.132C19.8431 647.383 19.8431 646.618 19.9675 645.868L22.1044 644.64C22.1749 644.6 22.2332 644.542 22.2731 644.471C22.316 644.397 22.3611 644.315 22.4084 644.24C22.4514 644.17 22.4744 644.09 22.4746 644.007L22.4862 641.565C23.0872 641.078 23.7621 640.693 24.4849 640.424L26.6371 641.641C26.705 641.68 26.7822 641.7 26.8604 641.697C26.9505 641.697 27.0422 641.697 27.1324 641.697C27.2104 641.699 27.2875 641.68 27.3557 641.641L29.5122 640.424C30.2369 640.691 30.9139 641.076 31.5167 641.563L31.5254 644.002C31.5256 644.084 31.5485 644.164 31.5916 644.234C31.6381 644.307 31.684 644.387 31.7269 644.465C31.7656 644.535 31.8227 644.594 31.892 644.634L34.0339 645.868C34.1591 646.617 34.1598 647.382 34.0361 648.132H34.0376Z" fill="white"/>
<path d="M31.2629 679.277C30.7109 678.716 30.0542 678.271 29.3304 677.966C28.6067 677.661 27.8301 677.503 27.0453 677.5H27C25.4087 677.5 23.8826 678.135 22.7574 679.265C21.6321 680.396 21 681.929 21 683.527V686.836C21 687.181 21.1363 687.512 21.379 687.756C21.6217 687.999 21.9509 688.136 22.2941 688.136H23.2353C23.5785 688.136 23.9077 687.999 24.1504 687.756C24.3931 687.512 24.5294 687.181 24.5294 686.836V684.473C24.5294 684.128 24.3931 683.797 24.1504 683.553C23.9077 683.31 23.5785 683.173 23.2353 683.173H21.7176C21.8072 681.827 22.4026 680.565 23.3834 679.643C24.3642 678.722 25.657 678.209 27 678.209H27.04C28.3773 678.215 29.6626 678.731 30.6358 679.652C31.6091 680.574 32.1978 681.832 32.2829 683.173H30.7647C30.4215 683.173 30.0923 683.31 29.8496 683.553C29.6069 683.797 29.4706 684.128 29.4706 684.473V686.836C29.4706 687.181 29.6069 687.512 29.8496 687.756C30.0923 687.999 30.4215 688.136 30.7647 688.136H32.2941V688.255C32.2941 688.662 32.1329 689.053 31.8461 689.341C31.5593 689.629 31.1703 689.791 30.7647 689.791H27.4706C27.377 689.791 27.2872 689.828 27.221 689.895C27.1548 689.961 27.1176 690.051 27.1176 690.145C27.1176 690.239 27.1548 690.33 27.221 690.396C27.2872 690.463 27.377 690.5 27.4706 690.5H30.7647C31.3575 690.5 31.9261 690.263 32.3453 689.842C32.7645 689.421 33 688.85 33 688.255V683.527C33.0029 682.739 32.851 681.958 32.5529 681.228C32.2549 680.499 31.8165 679.836 31.2629 679.277ZM23.2353 683.882C23.3913 683.882 23.5409 683.944 23.6512 684.055C23.7615 684.166 23.8235 684.316 23.8235 684.473V686.836C23.8235 686.993 23.7615 687.143 23.6512 687.254C23.5409 687.365 23.3913 687.427 23.2353 687.427H22.2941C22.1381 687.427 21.9885 687.365 21.8782 687.254C21.7679 687.143 21.7059 686.993 21.7059 686.836V683.882H23.2353ZM30.1764 686.836V684.473C30.1764 684.316 30.2384 684.166 30.3487 684.055C30.459 683.944 30.6087 683.882 30.7647 683.882H32.2941V687.427H30.7647C30.6087 687.427 30.459 687.365 30.3487 687.254C30.2384 687.143 30.1764 686.993 30.1764 686.836Z" fill="white"/>
<g filter="url(#filter1_d_1_4)">
<path d="M0 69C1.65685 69 3 70.3431 3 72V96C3 97.6569 1.65685 99 0 99V69Z" fill="#E85102"/>
</g>
</g>
<path d="M54 0H53V1024H54H55V0H54Z" fill="#1C1B20" mask="url(#path-1-inside-1_1_4)"/>
<defs>
<filter id="filter0_i_1_4" x="9" y="64" width="36" height="38" filterUnits="userSpaceOnUse" color-interpolation-filters="sRGB">
<feFlood flood-opacity="0" result="BackgroundImageFix"/>
<feBlend mode="normal" in="SourceGraphic" in2="BackgroundImageFix" result="shape"/>
<feColorMatrix in="SourceAlpha" type="matrix" values="0 0 0 0 0 0 0 0 0 0 0 0 0 0 0 0 0 0 127 0" result="hardAlpha"/>
<feOffset dy="-2"/>
<feGaussianBlur stdDeviation="1.5"/>
<feComposite in2="hardAlpha" operator="arithmetic" k2="-1" k3="1"/>
<feColorMatrix type="matrix" values="0 0 0 0 0.909804 0 0 0 0 0.317647 0 0 0 0 0.00784314 0 0 0 1 0"/>
<feBlend mode="normal" in2="shape" result="effect1_innerShadow_1_4"/>
</filter>
<filter id="filter1_d_1_4" x="-16.4" y="54.6" width="31.8" height="58.8" filterUnits="userSpaceOnUse" color-interpolation-filters="sRGB">
<feFlood flood-opacity="0" result="BackgroundImageFix"/>
<feColorMatrix in="SourceAlpha" type="matrix" values="0 0 0 0 0 0 0 0 0 0 0 0 0 0 0 0 0 0 127 0" result="hardAlpha"/>
<feOffset dx="-2"/>
<feGaussianBlur stdDeviation="7.2"/>
<feComposite in2="hardAlpha" operator="out"/>
<feColorMatrix type="matrix" values="0 0 0 0 1 0 0 0 0 0.343478 0 0 0 0 0 0 0 0 1 0"/>
<feBlend mode="normal" in2="BackgroundImageFix" result="effect1_dropShadow_1_4"/>
<feBlend mode="normal" in="SourceGraphic" in2="effect1_dropShadow_1_4" result="shape"/>
</filter>
<linearGradient id="paint0_linear_1_4" x1="9" y1="46.5" x2="45" y2="46.5" gradientUnits="userSpaceOnUse">
<stop stop-color="#0B0B0B"/>
<stop offset="0.5" stop-color="#E85102"/>
<stop offset="1" stop-color="#0B0B0B"/>
</linearGradient>
<linearGradient id="paint1_linear_1_4" x1="27" y1="66" x2="27" y2="102" gradientUnits="userSpaceOnUse">
<stop stop-color="#111111" stop-opacity="0"/>
<stop offset="1" stop-color="#E85102" stop-opacity="0.75"/>
</linearGradient>
<linearGradient id="paint2_linear_1_4" x1="13.5" y1="236.5" x2="47.5" y2="298" gradientUnits="userSpaceOnUse">
<stop stop-color="#333333"/>
<stop offset="0.490038" stop-color="#111111"/>
<stop offset="1" stop-color="#6E2600"/>
</linearGradient>
<linearGradient id="paint3_linear_1_4" x1="20.7895" y1="197.938" x2="82.8835" y2="228.62" gradientUnits="userSpaceOnUse">
<stop stop-color="#929292"/>
<stop offset="0.490038" stop-color="#0B0B0B" stop-opacity="0.26"/>
<stop offset="1" stop-color="#E54F00"/>
</linearGradient>
<linearGradient id="paint4_linear_1_4" x1="21.1667" y1="253.583" x2="29.4767" y2="274.31" gradientUnits="userSpaceOnUse">
<stop stop-color="#1C1B20"/>
<stop offset="0.338294" stop-color="#D9D9D9"/>
<stop offset="0.604349" stop-color="white" stop-opacity="0.55"/>
<stop offset="1" stop-color="white"/>
</linearGradient>
<linearGradient id="paint5_linear_1_4" x1="21.1667" y1="253.583" x2="29.4767" y2="274.31" gradientUnits="userSpaceOnUse">
<stop stop-color="#1C1B20"/>
<stop offset="0.338294" stop-color="#D9D9D9"/>
<stop offset="0.604349" stop-color="white" stop-opacity="0.55"/>
<stop offset="1" stop-color="white"/>
</linearGradient>
<linearGradient id="paint6_linear_1_4" x1="20.7895" y1="512.359" x2="108.247" y2="534.519" gradientUnits="userSpaceOnUse">
<stop stop-color="#767676"/>
<stop offset="0.490038" stop-color="#0B0B0B" stop-opacity="0.26"/>
<stop offset="1" stop-color="#767676"/>
</linearGradient>
<clipPath id="clip0_1_4">
<path d="M0 0H54V1024H0V0Z" fill="white"/>
</clipPath>
</defs>
</svg>
